SplineFontDB: 1.0
FontName: NimbusMonL-Regu
FullName: Nimbus Mono L Regular
FamilyName: Nimbus Mono L
Weight: Regular
Copyright: Copyright (URW)++,Copyright 1999 by (URW)++ Design & Development; Cyrillic glyphs added by Valek Filippov (C) 2001
Version: 1.06
ItalicAngle: 0
UnderlinePosition: -100
UnderlineWidth: 50
Ascent: 620
Descent: 155
NeedsXUIDChange: 1
UniqueID: 4027231
FSType: 0
OS2WinAscent: 0
OS2WinAOffset: 1
OS2WinDescent: 0
OS2WinDOffset: 1
HheadAscent: 0
HheadAOffset: 1
HheadDescent: 0
HheadDOffset: 1
ScriptLang: 2
 1 latn 1 dflt 
 1 DFLT 1 dflt 
Encoding: adobestandard
UnicodeInterp: none
DisplaySize: -36
AntiAlias: 1
FitToEm: 1
WinInfo: 330 22 11
BeginPrivate: 7
BlueValues 31 [-20 0 417 437 563 583 603 623]
BlueScale 8 0.039625
StdHW 4 [43]
StdVW 4 [41]
StemSnapH 4 [43]
StemSnapV 4 [41]
ForceBold 5 false
EndPrivate
BeginChars: 767 660
StartChar: exclam
Encoding: 33 33 2
Width: 600
Flags: W
HStem: -14 99<292 309> 598 20G<288 310>
Fore
338 563 m 1
 320 237 l 1
 318 217 312 209 298 209 c 0
 286 209 280 219 280 237 c 1
 260 563 l 1
 258 571 258 575 258 579 c 0
 258 601 276 618 300 618 c 0
 320 618 338 601 338 579 c 2
 338 563 l 1
292 85 m 2
 306 85 l 2
 336 85 360 63 360 35 c 0
 360 8 336 -14 306 -14 c 2
 292 -14 l 2
 262 -14 240 8 240 35 c 0
 240 63 262 85 292 85 c 2
EndSplineSet
EndChar
StartChar: quotedbl
Encoding: 34 34 3
Width: 600
Flags: W
HStem: 584 20G<146 274 328 454>
Fore
146 604 m 1
 274 604 l 1
 242 351 l 1
 238 327 228 316 210 316 c 0
 192 316 184 327 180 351 c 1
 146 604 l 1
328 604 m 1
 454 604 l 1
 420 351 l 1
 418 327 406 316 390 316 c 0
 372 316 362 327 360 351 c 1
 328 604 l 1
EndSplineSet
EndChar
StartChar: numbersign
Encoding: 35 35 4
Width: 600
Flags: W
HStem: 189 42<120 200 244 344 384 462> 355 41<129.111 212 256 354 396 488>
VStem: 326 39<-42 -36>
DStem: 200 189 242 189 184 -33 226 -36 212 355 252 355 202 231 244 231 230 623 270 619 214 396 256 396 344 189 384 189 326 -33 365 -36 354 355 394 355 344 231 384 231 372 623 412 619 356 396 396 396
Fore
394 355 m 1
 384 231 l 1
 460 231 l 2
 480 231 486 223 486 211 c 0
 486 197 480 189 460 189 c 2
 384 189 l 1
 365 -36 l 1
 365 -53 358 -61 346 -61 c 0
 334 -61 324 -50 326 -41 c 1
 326 -33 l 1
 344 189 l 1
 242 189 l 1
 226 -36 l 1
 224 -53 220 -61 204 -61 c 0
 192 -61 184 -53 184 -41 c 2
 184 -33 l 1
 200 189 l 1
 120 189 l 2
 100 189 92 197 92 211 c 0
 92 223 100 231 120 231 c 2
 202 231 l 1
 212 355 l 1
 140 355 l 2
 120 355 112 363 112 377 c 0
 112 390 120 396 140 396 c 2
 214 396 l 1
 230 623 l 1
 230 640 238 646 252 646 c 0
 262 646 274 637 272 626 c 1
 270 619 l 1
 256 396 l 1
 356 396 l 1
 372 623 l 1
 374 640 380 646 392 646 c 0
 406 646 414 635 412 619 c 1
 396 396 l 1
 480 396 l 2
 498 396 508 390 508 377 c 0
 508 363 498 355 480 355 c 2
 394 355 l 1
354 355 m 1
 252 355 l 1
 244 231 l 1
 344 231 l 1
 354 355 l 1
EndSplineSet
EndChar
StartChar: dollar
Encoding: 36 36 5
Width: 600
Flags: W
HStem: -93 186<300 307> 66 132<134 136> 450 113<448 450> 538 118<298 307>
VStem: 114 41<83.0026 108> 134 44<420.786 437> 280 42<-75.237 54 576 629> 448 39<201 212>
Fore
280 577 m 1x87
 280 627 l 2
 280 646 286 656 300 656 c 0x97
 314 656 322 646 322 627 c 2
 322 577 l 1
 366 572 390 561 424 535 c 1
 426 553 434 563 448 563 c 0
 462 563 466 553 466 536 c 2
 466 476 l 2
 466 458 458 450 448 450 c 0x27
 434 450 428 454 424 470 c 1
 420 508 362 538 302 538 c 0
 234 538 178 492 178 434 c 0x17
 178 407 190 384 212 371 c 0
 232 358 252 354 310 343 c 0
 384 327 410 321 438 300 c 1
 468 280 487 244 487 201 c 0
 487 123 424 66 322 53 c 1
 322 -66 l 2
 322 -82 314 -93 300 -93 c 0
 286 -93 280 -82 280 -66 c 2
 280 53 l 1
 234 57 180 79 155 108 c 1
 155 93 l 2x9b
 155 74 146 66 134 66 c 0x47
 120 66 114 74 114 93 c 2
 114 171 l 2x8b
 114 189 120 198 134 198 c 0x47
 146 198 152 190 155 173 c 1x4b
 158 131 224 93 300 93 c 0
 384 93 448 138 448 201 c 0
 448 231 432 258 406 272 c 1
 386 285 368 289 302 303 c 0
 238 316 210 325 184 341 c 0
 154 360 134 396 134 434 c 0
 134 508 196 566 280 577 c 1x87
EndSplineSet
EndChar
StartChar: percent
Encoding: 37 37 6
Width: 600
Flags: W
HStem: -13 38<362 364> 198 38<346.649 364> 363 38<236 249> 572 38<236 249>
VStem: 114 38<487 500> 238 38<112 116> 320 39<486 500> 446 37<110 116>
DStem: 483 381 494 343 104 258 116 222
Fore
359 236 m 0
 428 236 483 181 483 110 c 0
 483 44 428 -13 362 -13 c 0
 294 -13 238 44 238 112 c 0
 238 179 293 236 359 236 c 0
359 198 m 0
 315 198 276 160 276 112 c 0
 276 66 316 25 362 25 c 0
 406 25 446 66 446 110 c 0
 446 160 408 198 359 198 c 0
236 610 m 0
 306 610 359 557 359 486 c 0
 359 418 302 363 236 363 c 0
 170 363 114 418 114 487 c 0
 114 555 170 610 236 610 c 0
236 572 m 0
 190 572 152 535 152 487 c 0
 152 440 190 401 236 401 c 0
 282 401 320 440 320 486 c 0
 320 535 284 572 236 572 c 0
494 343 m 1
 116 222 l 2
 110 220 104 219 104 219 c 1
 96 219 88 228 88 237 c 0
 88 247 92 253 104 258 c 1
 483 381 l 2
 485 381 492 382 496 382 c 0
 504 382 512 373 512 363 c 0
 512 354 506 349 494 343 c 1
EndSplineSet
EndChar
StartChar: ampersand
Encoding: 38 38 7
Width: 600
Flags: W
HStem: -16 41<238 258> 0 41<417 483> 208 40<412 483> 478 41<294 307>
VStem: 98 41<142 144> 172 41<385.564 403>
DStem: 238 252 256 299 342 86 366 121 366 49 390 82 398 0 418 41
Fore
398 0 m 1x7c
 366 49 l 1
 336 5 300 -16 256 -16 c 0xbc
 172 -16 98 53 98 142 c 0
 98 214 150 266 220 286 c 1
 176 360 172 371 172 401 c 0
 172 465 226 519 294 519 c 0
 316 519 336 513 360 498 c 1
 370 505 l 2
 376 508 382 509 386 509 c 0
 396 509 406 500 406 489 c 0
 406 481 400 475 388 469 c 2
 356 451 l 1
 336 470 316 478 294 478 c 0
 252 478 213 440 213 398 c 0
 213 374 224 349 256 299 c 1
 366 121 l 1
 386 157 404 201 412 248 c 1
 474 248 l 2
 494 248 502 242 502 230 c 0
 502 215 494 208 474 208 c 2
 444 208 l 1
 430 157 412 110 390 82 c 1
 418 41 l 1
 474 41 l 2
 494 41 502 35 502 20 c 0
 502 8 494 0 474 0 c 2
 398 0 l 1x7c
342 86 m 1
 238 252 l 1
 184 239 139 200 139 142 c 0
 139 77 194 25 252 25 c 0
 290 25 320 47 342 86 c 1
EndSplineSet
EndChar
StartChar: quoteright
Encoding: 39 8217 8
Width: 600
Flags: W
HStem: 584 20G<270 402>
Fore
270 604 m 1
 402 604 l 1
 258 338 l 1
 248 321 240 314 226 314 c 0
 210 314 198 327 198 343 c 2
 198 354 l 1
 270 604 l 1
EndSplineSet
KernsSLIF: 121 -286 1 0 119 -258 1 0 118 -263 1 0 116 -280 1 0 115 -340 1 0 114 -353 1 0 46 -538 1 0 111 -320 1 0 100 -308 1 0 44 -481 1 0 262 -340 1 0 256 -340 1 0 257 -340 1 0 225 -365 1 0 65 -340 1 0
EndChar
StartChar: parenleft
Encoding: 40 40 9
Width: 600
Flags: W
HStem: 584 20G<356 366>
VStem: 218 61<211 261>
Fore
360 604 m 0
 372 604 382 594 382 583 c 0
 382 580 380 577 378 572 c 0
 308 451 279 347 279 241 c 0
 279 134 308 31 378 -93 c 1
 380 -99 382 -99 382 -104 c 0
 382 -115 372 -124 360 -124 c 0
 350 -124 342 -115 318 -77 c 0
 250 36 218 140 218 242 c 0
 218 343 256 461 328 571 c 0
 344 597 352 604 360 604 c 0
EndSplineSet
EndChar
StartChar: parenright
Encoding: 41 41 10
Width: 600
Flags: W
HStem: 584 20G<234 244>
VStem: 318 63<211 261>
Fore
240 604 m 0
 248 604 258 594 282 557 c 1
 350 445 381 340 381 237 c 0
 381 137 342 19 270 -90 c 0
 254 -116 246 -124 236 -124 c 0
 226 -124 218 -115 218 -104 c 0
 218 -99 218 -99 220 -93 c 1
 288 30 318 134 318 241 c 0
 318 349 292 448 220 572 c 0
 218 577 218 580 218 583 c 0
 218 594 228 604 240 604 c 0
EndSplineSet
EndChar
StartChar: asterisk
Encoding: 42 42 11
Width: 600
Flags: W
HStem: 443 40<127 134> 584 20G<293 307>
VStem: 280 41<439 587>
DStem: 134 442 146 481 266 401 280 439 266 401 300 376 184 288 220 264 300 376 332 401 382 264 414 288 454 481 466 442 321 439 332 401
Fore
280 439 m 1
 280 577 l 2
 280 594 286 604 300 604 c 0
 314 604 321 594 321 577 c 2
 321 439 l 1
 454 481 l 2
 458 483 466 484 468 484 c 0
 478 484 486 475 486 464 c 0
 486 453 482 447 466 442 c 2
 332 401 l 1
 414 288 l 1
 418 281 420 275 420 269 c 0
 420 258 412 250 400 250 c 0
 394 250 390 253 382 264 c 2
 300 376 l 1
 220 264 l 1
 210 253 204 250 196 250 c 0
 186 250 178 258 178 270 c 0
 178 275 178 278 184 288 c 1
 266 401 l 1
 134 442 l 1
 128 443 l 2
 120 443 114 453 114 464 c 0
 114 475 124 483 134 483 c 0
 138 483 140 481 146 481 c 1
 280 439 l 1
EndSplineSet
EndChar
StartChar: plus
Encoding: 43 43 12
Width: 600
Flags: W
HStem: 231 41<97.9892 280 320 499>
VStem: 280 41<39.3923 231 271 455>
Fore
321 231 m 1
 321 49 l 2
 321 31 312 22 300 22 c 0
 286 22 280 31 280 49 c 2
 280 231 l 1
 108 231 l 2
 90 231 82 237 82 253 c 0
 82 264 90 272 108 272 c 2
 280 272 l 1
 280 453 l 2
 280 470 286 481 300 481 c 0
 312 481 321 470 321 453 c 2
 321 272 l 1
 490 272 l 2
 506 272 518 264 518 253 c 0
 518 237 506 231 490 231 c 2
 321 231 l 1
EndSplineSet
EndChar
StartChar: comma
Encoding: 44 44 13
Width: 600
Flags: W
Fore
270 145 m 1
 402 145 l 1
 258 -119 l 2
 246 -140 240 -145 226 -145 c 0
 210 -145 198 -132 198 -116 c 0
 198 -112 198 -108 200 -105 c 1
 270 145 l 1
EndSplineSet
KernsSLIF: 39 -330 1 0 186 -290 1 0 49 -353 1 0
EndChar
StartChar: hyphen
Encoding: 45 45 14
Width: 600
Flags: W
HStem: 231 41<89.7639 504>
Fore
502 231 m 2
 100 231 l 2
 82 231 72 237 72 253 c 0
 72 264 82 272 100 272 c 2
 502 272 l 2
 520 272 528 264 528 253 c 0
 528 237 520 231 502 231 c 2
EndSplineSet
KernsSLIF: 89 -225 1 0 87 -2 1 0 86 -101 1 0 84 -230 1 0 262 -59 1 0 256 -59 1 0 257 -59 1 0 225 -46 1 0 65 -59 1 0
EndChar
StartChar: period
Encoding: 46 46 15
Width: 600
Flags: W
HStem: -14 21G<296 306>
Fore
296 116 m 2
 306 116 l 2
 344 116 374 88 374 50 c 0
 374 13 344 -14 306 -14 c 2
 296 -14 l 2
 256 -14 226 14 226 50 c 0
 226 88 256 116 296 116 c 2
EndSplineSet
KernsSLIF: 39 -304 1 0 186 -263 1 0 49 -290 1 0
EndChar
StartChar: slash
Encoding: 47 47 16
Width: 600
Flags: W
DStem: 444 651 482 634 118 -46 156 -63
Fore
482 634 m 2
 156 -63 l 1
 148 -77 144 -82 134 -82 c 0
 124 -82 114 -72 114 -61 c 0
 114 -58 114 -53 118 -46 c 1
 444 651 l 1
 452 664 458 668 468 668 c 0
 476 668 486 659 486 649 c 0
 486 645 486 642 482 634 c 2
EndSplineSet
EndChar
StartChar: zero
Encoding: 48 48 17
Width: 600
Flags: W
HStem: -14 39<300 307> 577 41<300 307>
VStem: 114 41<241 371> 448 39<241 371>
Fore
487 351 m 2
 487 252 l 2
 487 93 412 -14 300 -14 c 0
 190 -14 114 93 114 252 c 2
 114 351 l 2
 114 509 190 618 300 618 c 0
 412 618 487 509 487 351 c 2
155 346 m 2
 155 258 l 2
 155 193 172 126 200 79 c 1
 224 46 258 25 300 25 c 0
 344 25 376 46 398 79 c 0
 428 126 448 193 448 258 c 2
 448 346 l 2
 448 410 428 478 398 524 c 0
 376 558 344 577 300 577 c 0
 258 577 224 558 200 524 c 1
 172 478 155 410 155 346 c 2
EndSplineSet
KernsSLIF: 55 -178 1 0 49 -201 1 0 52 -141 1 0
EndChar
StartChar: one
Encoding: 49 49 18
Width: 600
Flags: W
HStem: 0 41<142 280 321 467>
VStem: 280 42<40 612>
DStem: 322 612 280 557 134 553 148 514
Fore
322 612 m 1
 322 41 l 1
 462 41 l 2
 478 41 486 35 486 20 c 0
 486 8 478 0 462 0 c 2
 142 0 l 2
 124 0 114 8 114 20 c 0
 114 35 124 41 142 41 c 2
 280 41 l 1
 280 557 l 1
 148 514 l 2
 146 514 134 513 134 513 c 2
 126 513 114 522 114 531 c 0
 114 542 120 549 134 553 c 2
 322 612 l 1
EndSplineSet
KernsSLIF: 48 -229 1 0 50 -113 1 0 51 -145 1 0 54 -269 1 0 55 -343 1 0 46 -290 1 0 49 -148 1 0 57 -184 1 0 52 -290 1 0 53 -162 1 0 56 -209 1 0 44 -223 1 0
EndChar
StartChar: two
Encoding: 50 50 19
Width: 600
Flags: W
HStem: 0 41<142 496> 0 104<471 496> 577 41<310 312>
VStem: 104 38<0 44> 450 41<447 453>
Fore
142 41 m 1xb8
 456 41 l 1xb8
 456 77 l 2
 456 94 462 104 476 104 c 0x78
 490 104 496 94 496 77 c 2
 496 0 l 1xb8
 104 0 l 1x78
 104 60 l 1
 338 281 l 1
 434 374 450 401 450 447 c 0
 450 516 384 577 310 577 c 0
 242 577 178 531 162 472 c 0
 158 458 152 451 142 451 c 0
 132 451 122 461 122 470 c 0
 122 487 136 519 156 542 c 1
 192 590 248 618 310 618 c 0
 406 618 491 536 491 447 c 0
 491 387 472 358 348 237 c 1
 262 151 200 93 142 44 c 1
 142 41 l 1xb8
EndSplineSet
KernsSLIF: 55 -174 1 0 49 -158 1 0 52 -225 1 0
EndChar
StartChar: three
Encoding: 51 51 20
Width: 600
Flags: W
HStem: -14 39<292 307> 311 43<282 302> 577 41<302 307>
VStem: 438 41<464 466> 460 41<168 179>
Fore
374 327 m 1xf0
 454 296 501 236 501 168 c 0
 501 66 406 -14 292 -14 c 0
 244 -14 194 -3 144 25 c 1
 110 42 98 57 98 69 c 0
 98 79 106 88 116 88 c 0
 122 88 126 86 132 82 c 0
 182 46 236 25 292 25 c 0
 382 25 460 91 460 168 c 0xe8
 460 247 378 311 282 311 c 0
 264 311 254 319 254 332 c 0
 254 346 264 354 282 354 c 0
 330 354 346 354 368 365 c 1
 410 382 438 421 438 464 c 0
 438 528 378 577 302 577 c 0
 246 577 196 557 168 524 c 0
 158 511 154 508 148 508 c 0
 136 508 126 519 126 528 c 0
 126 538 140 557 162 572 c 1
 200 602 250 618 302 618 c 0
 402 618 479 550 479 464 c 0
 479 407 440 355 382 330 c 0
 380 330 378 329 374 327 c 1xf0
EndSplineSet
KernsSLIF: 55 -162 1 0 49 -180 1 0 52 -125 1 0
EndChar
StartChar: four
Encoding: 52 52 21
Width: 600
Flags: W
HStem: 0 41<288 376 418 475> 168 43<146 376 418 475> 563 41<334 376>
VStem: 376 42<40 168 211 604>
DStem: 334 604 354 563 106 215 146 211
Fore
376 168 m 1
 106 168 l 1
 106 215 l 1
 334 604 l 1
 418 604 l 1
 418 211 l 1
 468 211 l 2
 484 211 494 203 494 189 c 0
 494 176 484 168 468 168 c 2
 418 168 l 1
 418 41 l 1
 468 41 l 2
 484 41 494 35 494 20 c 0
 494 8 484 0 468 0 c 2
 288 0 l 2
 268 0 260 8 260 20 c 0
 260 35 268 41 288 41 c 2
 376 41 l 1
 376 168 l 1
376 211 m 1
 376 563 l 1
 354 563 l 1
 146 211 l 1
 376 211 l 1
EndSplineSet
KernsSLIF: 55 -229 1 0 49 -158 1 0 52 -148 1 0
EndChar
StartChar: five
Encoding: 53 53 22
Width: 600
Flags: W
HStem: -14 39<273 307> 354 41<305 326> 563 41<150 436>
VStem: 150 41<335 563> 460 41<193 211>
Fore
191 563 m 1
 191 365 l 1
 243 385 280 395 324 395 c 0
 426 395 501 313 501 201 c 0
 501 75 416 -14 296 -14 c 0
 244 -14 194 2 144 35 c 1
 110 55 98 71 98 82 c 0
 98 93 106 102 118 102 c 0
 124 102 130 99 134 93 c 1
 184 49 236 25 294 25 c 0
 392 25 460 99 460 203 c 0
 460 292 402 354 316 354 c 0
 278 354 233 343 191 322 c 0
 178 316 174 313 170 313 c 0
 158 313 150 322 150 335 c 2
 150 604 l 1
 434 604 l 2
 454 604 460 597 460 583 c 0
 460 571 454 563 434 563 c 2
 191 563 l 1
EndSplineSet
KernsSLIF: 55 -174 1 0 49 -209 1 0 52 -125 1 0
EndChar
StartChar: six
Encoding: 54 54 23
Width: 600
Flags: W
HStem: -14 39<314 322> 322 43<305 322> 563 55<404 464> 577 41<385 419>
VStem: 114 38<257 307> 446 41<178 195>
Fore
154 242 m 1xdc
 194 324 248 365 320 365 c 0
 410 365 487 280 487 178 c 0
 487 71 410 -14 314 -14 c 0
 196 -14 114 107 114 281 c 0
 114 398 148 484 222 547 c 1
 274 593 340 618 404 618 c 0
 448 618 484 602 484 582 c 0
 484 572 476 563 464 563 c 0xec
 460 563 454 564 448 569 c 1
 438 574 420 577 400 577 c 0
 324 577 246 530 196 454 c 0
 168 412 152 349 152 285 c 0
 152 275 152 261 154 242 c 1xdc
160 189 m 1
 168 156 l 1
 196 72 246 25 314 25 c 0
 388 25 446 93 446 178 c 0
 446 258 388 322 318 322 c 0
 282 322 240 302 210 266 c 1
 194 250 182 231 160 189 c 1
EndSplineSet
KernsSLIF: 55 -117 1 0 49 -145 1 0 52 -113 1 0
EndChar
StartChar: seven
Encoding: 55 55 24
Width: 600
Flags: W
HStem: -2 21G<299 309> 563 41<114 445>
VStem: 114 41<516.464 563> 445 41<545 604>
DStem: 445 546 486 539 286 31 324 19
Fore
445 546 m 1
 445 563 l 1
 155 563 l 1
 155 528 l 2
 155 508 148 500 135 500 c 0
 121 500 114 508 114 528 c 2
 114 604 l 1
 486 604 l 1
 486 539 l 1
 324 19 l 1
 318 3 314 -2 304 -2 c 0
 294 -2 283 8 283 19 c 0
 283 22 283 28 286 31 c 1
 445 546 l 1
EndSplineSet
KernsSLIF: 50 -169 1 0 51 -174 1 0 54 -241 1 0 55 -148 1 0 46 -403 1 0 49 -162 1 0 52 -269 1 0 53 -202 1 0 56 -190 1 0 44 -340 1 0 58 -362 1 0
EndChar
StartChar: eight
Encoding: 56 56 25
Width: 600
Flags: W
HStem: -14 39<300 307> 292 40<300 307> 577 41<300 307>
VStem: 124 41<436.131 467> 436 39<435.762 455> 448 39<145 164>
Fore
374 313 m 1xf8
 448 280 487 226 487 162 c 0xf4
 487 64 404 -14 300 -14 c 0
 196 -14 114 64 114 162 c 0
 114 226 152 280 224 313 c 1
 156 349 124 392 124 453 c 0
 124 542 204 618 300 618 c 0
 396 618 475 542 475 453 c 0
 475 392 448 349 374 313 c 1xf8
300 577 m 0
 224 577 165 520 165 451 c 0
 165 385 224 332 300 332 c 0
 374 332 436 385 436 450 c 0xf8
 436 520 376 577 300 577 c 0
300 292 m 0
 220 292 155 236 155 162 c 0
 155 86 220 25 300 25 c 0
 382 25 448 86 448 160 c 0xf4
 448 236 384 292 300 292 c 0
EndSplineSet
KernsSLIF: 55 -163 1 0 49 -184 1 0 52 -141 1 0
EndChar
StartChar: nine
Encoding: 57 57 26
Width: 600
Flags: W
HStem: -14 39<191 209> -14 53<136 194> 239 41<271 290> 577 41<271 290>
VStem: 112 41<425 435> 450 38<305 324 318 355>
Fore
446 360 m 1xbc
 406 280 350 239 280 239 c 0
 188 239 112 322 112 425 c 0
 112 533 188 618 288 618 c 0
 402 618 488 497 488 322 c 0
 488 204 452 119 378 57 c 1
 324 9 260 -14 194 -14 c 0xbc
 154 -14 116 2 116 19 c 0
 116 31 126 39 136 39 c 0x7c
 140 39 143 39 153 35 c 1
 161 30 180 25 198 25 c 0
 276 25 354 72 402 148 c 0
 430 192 450 253 450 318 c 0
 450 327 446 343 446 360 c 1xbc
440 415 m 1
 434 439 434 439 430 448 c 0
 402 531 354 577 284 577 c 0
 212 577 153 511 153 425 c 0
 153 346 212 280 282 280 c 0
 318 280 356 300 390 338 c 1
 406 354 416 371 440 415 c 1
EndSplineSet
KernsSLIF: 55 -158 1 0 49 -184 1 0 52 -123 1 0
EndChar
StartChar: colon
Encoding: 58 58 27
Width: 600
Flags: W
HStem: -14 130<296 308> 285 133<296 308>
Fore
296 116 m 2
 306 116 l 2
 344 116 374 88 374 50 c 0
 374 13 344 -14 306 -14 c 2
 296 -14 l 2
 256 -14 226 14 226 50 c 0
 226 88 256 116 296 116 c 2
296 418 m 2
 306 418 l 2
 344 418 374 388 374 351 c 0
 374 314 344 285 306 285 c 2
 296 285 l 2
 256 285 226 314 226 351 c 0
 226 388 256 418 296 418 c 2
EndSplineSet
EndChar
StartChar: semicolon
Encoding: 59 59 28
Width: 600
Flags: W
HStem: 285 133<328 340>
Fore
268 145 m 1
 400 145 l 1
 256 -119 l 1
 246 -140 236 -145 224 -145 c 0
 208 -145 194 -132 194 -116 c 0
 194 -112 196 -108 196 -105 c 1
 268 145 l 1
328 418 m 2
 338 418 l 2
 376 418 406 388 406 351 c 0
 406 314 376 285 338 285 c 2
 328 285 l 2
 288 285 258 314 258 351 c 0
 258 388 288 418 328 418 c 2
EndSplineSet
EndChar
StartChar: less
Encoding: 60 60 29
Width: 600
Flags: W
DStem: 74 253 158 253 492 19 510 55 494 484 510 450 74 253 158 253
Fore
74 253 m 1
 494 484 l 2
 498 487 502 489 506 489 c 0
 510 489 516 486 522 480 c 1
 522 476 l 2
 522 473 526 470 526 467 c 0
 526 459 522 454 510 450 c 1
 158 253 l 1
 510 55 l 1
 522 50 526 44 526 38 c 0
 526 35 522 31 522 28 c 1
 520 25 l 2
 516 19 510 14 506 14 c 0
 502 14 496 17 492 19 c 2
 74 253 l 1
EndSplineSet
EndChar
StartChar: equal
Encoding: 61 61 30
Width: 600
Flags: W
HStem: 160 41<67.8477 531> 303 41<67.8897 531>
Fore
522 303 m 2
 78 303 l 2
 60 303 50 311 50 325 c 0
 50 338 60 344 78 344 c 2
 522 344 l 2
 540 344 550 338 550 325 c 0
 550 311 540 303 522 303 c 2
522 160 m 2
 78 160 l 2
 60 160 50 168 50 181 c 0
 50 193 60 201 78 201 c 2
 522 201 l 2
 540 201 550 193 550 181 c 0
 550 168 540 160 522 160 c 2
EndSplineSet
EndChar
StartChar: greater
Encoding: 62 62 31
Width: 600
Flags: W
DStem: 88 448 108 483 444 252 526 252 444 252 526 252 88 53 108 19
Fore
526 252 m 1
 108 19 l 2
 102 16 98 14 96 14 c 0
 90 14 84 19 80 24 c 1
 80 27 l 1
 76 30 74 33 74 36 c 0
 74 44 80 49 88 53 c 2
 444 252 l 1
 88 448 l 2
 80 453 74 459 74 465 c 0
 74 469 76 472 80 475 c 1
 80 478 l 1
 84 484 90 487 96 487 c 0
 98 487 102 486 108 483 c 2
 526 252 l 1
EndSplineSet
EndChar
StartChar: question
Encoding: 63 63 32
Width: 600
Flags: W
HStem: -14 99<276 317> 434 21G<139 152> 536 41<274 313>
VStem: 124 41<451 503> 270 41<196.284 247> 436 40<423 436>
Fore
311 247 m 1
 311 206 l 2
 311 189 306 178 292 178 c 0
 278 178 270 189 270 206 c 2
 270 274 l 1
 386 322 436 366 436 423 c 0
 436 489 376 536 292 536 c 0
 248 536 216 528 165 503 c 1
 165 461 l 2
 165 443 158 434 146 434 c 0
 132 434 124 443 124 461 c 2
 124 530 l 1
 132 531 146 538 152 541 c 0
 216 569 248 577 300 577 c 0
 404 577 476 514 476 423 c 0
 476 349 436 307 311 247 c 1
276 85 m 2
 304 85 l 2
 338 85 360 66 360 35 c 0
 360 6 338 -14 304 -14 c 2
 276 -14 l 2
 242 -14 220 5 220 35 c 0
 220 66 242 85 276 85 c 2
EndSplineSet
EndChar
StartChar: at
Encoding: 64 64 33
Width: 600
Flags: W
HStem: -61 41<292 321> 146 43<383 392> 582 42<303 321>
VStem: 112 41<198 378> 248 44<270 276> 426 40<191 468>
Fore
426 145 m 1
 426 151 l 1
 406 148 396 146 386 146 c 0
 306 146 248 201 248 272 c 0
 248 355 324 418 426 417 c 1
 426 464 l 2
 426 533 378 582 310 582 c 0
 218 582 153 491 153 358 c 2
 153 198 l 2
 153 138 172 82 200 36 c 1
 228 -3 264 -20 312 -20 c 0
 356 -20 396 -8 420 8 c 1
 430 19 430 19 436 19 c 0
 448 19 458 11 458 2 c 0
 458 -30 382 -61 306 -61 c 0
 248 -61 204 -38 168 13 c 0
 132 66 112 127 112 198 c 2
 112 360 l 2
 112 513 196 624 306 624 c 0
 400 624 466 555 466 464 c 2
 466 186 l 1
 480 184 488 178 488 167 c 0
 488 151 478 145 460 145 c 2
 426 145 l 1
426 192 m 1
 426 376 l 1
 348 376 292 332 292 274 c 0
 292 223 332 189 390 189 c 0
 400 189 414 189 426 192 c 1
EndSplineSet
EndChar
StartChar: A
Encoding: 65 65 34
Width: 600
Flags: W
HStem: 0 41<26.5731 66 108 190 398.029 484 527 569> 189 41<178 428> 522 41<126 248 126 300>
VStem: 8 206<20 22> 382 210<20 22>
DStem: 248 522 286 522 66 41 178 230 248 522 162 189 66 41 108 41 300 522 330 563 412 230 528 41 428 189 330 563 484 41 528 41
Fore
428 189 m 1
 162 189 l 1
 108 41 l 1
 188 41 l 2
 204 41 214 35 214 20 c 0
 214 8 204 0 188 0 c 2
 36 0 l 2
 20 0 8 8 8 20 c 0
 8 35 20 41 36 41 c 2
 66 41 l 1
 248 522 l 1
 126 522 l 2
 108 522 100 530 100 542 c 0
 100 557 108 563 126 563 c 2
 330 563 l 1
 528 41 l 1
 564 41 l 2
 582 41 592 35 592 20 c 0
 592 8 582 0 564 0 c 2
 408 0 l 2
 390 0 382 8 382 20 c 0
 382 35 390 41 408 41 c 2
 484 41 l 1
 428 189 l 1
412 230 m 1
 300 522 l 1
 286 522 l 1
 178 230 l 1
 412 230 l 1
EndSplineSet
KernsSLIF: 121 -145 0 0 119 -46 0 0 118 -134 0 0 117 -34 0 0 116 -59 0 0 39 -241 0 0 186 -187 0 0 113 -59 0 0 46 -162 0 0 111 -36 0 0 45 -73 0 0 172 -117 0 0 171 -117 0 0 103 -56 0 0 101 -34 0 0 100 -21 0 0 44 -91 0 0 332 -34 0 0 99 -46 0 0 98 113 0 0 97 18 0 0 89 -67 0 0 87 -28 0 0 86 -180 0 0 300 -74 0 0 298 -74 0 0 301 -74 0 0 299 -74 0 0 85 -74 0 0 84 -63 0 0 81 -67 0 0 286 -63 0 0 79 -63 0 0 71 -63 0 0 264 -73 0 0 67 -78 0 0
EndChar
StartChar: B
Encoding: 66 66 35
Width: 600
Flags: W
HStem: 0 41<68.8007 131 173 386> 272 41<173 340> 522 41<68.8007 131 80 355>
VStem: 132 41<41 272 41 522> 466 40<404.624 421> 508 41<153 161>
Fore
132 41 m 1
 132 522 l 1
 80 522 l 2
 60 522 50 530 50 542 c 0
 50 557 60 563 80 563 c 2
 336 563 l 2
 434 563 506 500 506 418 c 0
 506 366 482 330 422 299 c 1
 506 269 549 220 549 153 c 0
 549 69 476 0 384 0 c 2
 80 0 l 2
 60 0 50 8 50 20 c 0
 50 35 60 41 80 41 c 2
 132 41 l 1
173 313 m 1
 320 313 l 2
 404 313 466 357 466 418 c 0
 466 476 410 522 338 522 c 2
 173 522 l 1
 173 313 l 1
173 41 m 1
 382 41 l 2
 452 41 508 91 508 153 c 0
 508 189 486 225 448 247 c 0
 418 264 382 272 322 272 c 2
 173 272 l 1
 173 41 l 1
EndSplineSet
KernsSLIF: 89 -120 0 0 87 -28 0 0 86 -68 0 0 233 -18 0 0 288 -21 0 0 286 -21 0 0 289 -21 0 0 287 -21 0 0 234 21 0 0 79 -21 0 0 261 -18 0 0 262 -18 0 0 256 -18 0 0 259 -18 0 0 257 -18 0 0 225 -18 0 0 65 -18 0 0
EndChar
StartChar: C
Encoding: 67 67 36
Width: 600
Flags: W
HStem: -16 41<322 337> 396 167<495 502> 535 42<306 325>
VStem: 64 41<239 337> 480 40<415 423 508 545>
Fore
480 508 m 1xb8
 480 536 l 2
 480 553 488 563 500 563 c 0
 514 563 520 553 520 536 c 2
 520 423 l 2
 520 407 514 396 498 396 c 0xd8
 488 396 480 406 480 421 c 0
 476 481 396 535 306 535 c 0
 194 535 105 439 105 319 c 2
 105 247 l 2
 105 127 206 25 322 25 c 0
 394 25 442 50 498 115 c 0
 504 123 508 126 516 126 c 0
 526 126 536 116 536 105 c 0
 536 96 524 79 498 55 c 0
 448 8 386 -16 322 -16 c 0
 188 -16 64 107 64 242 c 2
 64 325 l 2
 64 385 92 456 136 503 c 0
 180 550 238 577 306 577 c 0
 372 577 432 552 480 508 c 1xb8
EndSplineSet
KernsSLIF: 286 -46 0 0 287 -46 0 0 79 -46 0 0 75 -24 0 0 72 -59 0 0 262 -18 0 0 256 -18 0 0 257 -18 0 0 225 -18 0 0 65 -18 0 0
EndChar
StartChar: D
Encoding: 68 68 37
Width: 600
Flags: W
HStem: 0 41<79.8057 124 165 318> 522 41<79.8057 124 90 318>
VStem: 124 41<41 522> 498 40<239 320>
Fore
124 41 m 1
 124 522 l 1
 90 522 l 2
 72 522 62 530 62 542 c 0
 62 557 72 563 90 563 c 2
 310 563 l 2
 438 563 538 451 538 310 c 2
 538 253 l 2
 538 112 438 0 310 0 c 2
 90 0 l 2
 72 0 62 8 62 20 c 0
 62 35 72 41 90 41 c 2
 124 41 l 1
165 41 m 1
 316 41 l 2
 412 41 498 140 498 245 c 2
 498 318 l 2
 498 371 474 431 434 472 c 0
 398 508 362 522 306 522 c 2
 165 522 l 1
 165 41 l 1
EndSplineSet
KernsSLIF: 89 -156 0 0 88 -134 0 0 87 -36 0 0 86 -101 0 0 84 -96 0 0 74 -74 0 0 261 -101 0 0 262 -101 0 0 258 -101 0 0 256 -101 0 0 259 -101 0 0 257 -101 0 0 65 -101 0 0
EndChar
StartChar: E
Encoding: 69 69 38
Width: 600
Flags: W
HStem: 0 41<79.8057 143 185 539> 0 187<516 539> 272 41<185 330> 522 41<79.8057 143 90 478>
VStem: 144 41<41 272 41 522> 330 41<226 272 313 360> 478 40<423 522> 500 39<41 162>
Fore
185 272 m 1xbe
 185 41 l 1
 500 41 l 1xbd
 500 160 l 2
 500 178 506 187 520 187 c 0x7d
 532 187 539 178 539 160 c 2
 539 0 l 1xbd
 90 0 l 2
 72 0 62 8 62 20 c 0
 62 35 72 41 90 41 c 2
 144 41 l 1
 144 522 l 1
 90 522 l 2
 72 522 62 530 62 542 c 0
 62 557 72 563 90 563 c 2
 518 563 l 1
 518 423 l 2
 518 407 512 396 498 396 c 0
 484 396 478 407 478 423 c 2
 478 522 l 1
 185 522 l 1
 185 313 l 1
 330 313 l 1
 330 358 l 2
 330 376 336 385 352 385 c 0
 362 385 371 376 371 358 c 2
 371 226 l 2
 371 209 362 200 352 200 c 0
 336 200 330 209 330 226 c 2
 330 272 l 1
 185 272 l 1xbe
EndSplineSet
EndChar
StartChar: F
Encoding: 70 70 39
Width: 600
Flags: W
HStem: 0 41<79.8057 143 185 332> 272 41<185 330> 522 41<79.8057 143 90 500>
VStem: 144 41<40 272 41 522> 330 41<226 272 313 360> 500 39<423 522>
Fore
185 272 m 1
 185 41 l 1
 322 41 l 2
 342 41 352 35 352 20 c 0
 352 8 342 0 322 0 c 2
 90 0 l 2
 72 0 62 8 62 20 c 0
 62 35 72 41 90 41 c 2
 144 41 l 1
 144 522 l 1
 90 522 l 2
 72 522 62 530 62 542 c 0
 62 557 72 563 90 563 c 2
 539 563 l 1
 539 423 l 2
 539 407 532 396 518 396 c 0
 506 396 500 407 500 423 c 2
 500 522 l 1
 185 522 l 1
 185 313 l 1
 330 313 l 1
 330 358 l 2
 330 376 336 385 350 385 c 0
 362 385 371 376 371 358 c 2
 371 226 l 2
 371 209 362 200 350 200 c 0
 336 200 330 209 330 226 c 2
 330 272 l 1
 185 272 l 1
EndSplineSet
KernsSLIF: 117 -2 0 0 114 -74 0 0 46 -470 0 0 249 -156 0 0 250 -46 0 0 351 -117 0 0 352 -156 0 0 111 -156 0 0 106 -130 0 0 105 -113 0 0 45 -162 0 0 335 -134 0 0 101 -134 0 0 44 -410 0 0 328 -113 0 0 241 -46 0 0 322 -101 0 0 323 -113 0 0 97 -113 0 0 286 -63 0 0 79 -63 0 0 74 -230 0 0 261 -91 0 0 262 -91 0 0 258 -91 0 0 256 -91 0 0 259 -91 0 0 257 -91 0 0 65 -91 0 0
EndChar
StartChar: G
Encoding: 71 71 40
Width: 600
Flags: W
HStem: -16 41<300 339> 209 41<328 467 328 531> 418 145<488 490> 535 42<289 328>
VStem: 50 41<244 320> 468 40<59 209 441 445 522 545>
Fore
508 209 m 1xdc
 508 36 l 1
 450 3 384 -16 320 -16 c 0
 156 -16 50 86 50 244 c 2
 50 318 l 2
 50 390 82 464 132 511 c 0
 178 553 236 577 302 577 c 0xdc
 368 577 422 558 468 522 c 1
 468 536 l 2
 468 553 474 563 488 563 c 0
 502 563 508 555 508 536 c 2
 508 445 l 2
 508 428 502 418 488 418 c 0xec
 474 418 470 426 470 443 c 1
 464 494 392 535 304 535 c 0
 246 535 202 519 164 481 c 1
 120 440 91 376 91 316 c 2
 91 244 l 2
 91 108 180 25 324 25 c 0
 376 25 412 33 468 60 c 1
 468 209 l 1
 328 209 l 2
 310 209 302 215 302 231 c 0
 302 242 310 250 328 250 c 2
 522 250 l 2
 542 250 550 242 550 231 c 0
 550 215 542 209 522 209 c 2
 508 209 l 1xdc
EndSplineSet
KernsSLIF: 89 -34 0 0 87 2 0 0 86 14 0 0 84 -59 0 0 261 14 0 0 262 14 0 0 258 14 0 0 256 14 0 0 259 14 0 0 257 14 0 0 225 7 0 0 65 14 0 0
EndChar
StartChar: H
Encoding: 72 72 41
Width: 600
Flags: W
HStem: 0 41<78 124 165 227 372.801 435 477 532> 272 41<165 436> 522 41<88.7963 124 98 227 372.801 435 384 504>
VStem: 124 41<40 272 41 522> 436 41<40 522>
Fore
436 272 m 1
 165 272 l 1
 165 41 l 1
 220 41 l 2
 236 41 246 35 246 20 c 0
 246 8 236 0 220 0 c 2
 78 0 l 2
 60 0 50 8 50 20 c 0
 50 35 60 41 78 41 c 2
 124 41 l 1
 124 522 l 1
 98 522 l 2
 82 522 72 530 72 542 c 0
 72 557 82 563 98 563 c 2
 220 563 l 2
 236 563 246 557 246 542 c 0
 246 530 236 522 220 522 c 2
 165 522 l 1
 165 313 l 1
 436 313 l 1
 436 522 l 1
 384 522 l 2
 364 522 354 530 354 542 c 0
 354 557 364 563 384 563 c 2
 502 563 l 2
 520 563 530 557 530 542 c 0
 530 530 520 522 502 522 c 2
 477 522 l 1
 477 41 l 1
 524 41 l 2
 542 41 550 35 550 20 c 0
 550 8 540 0 524 0 c 2
 384 0 l 2
 364 0 354 8 354 20 c 0
 354 35 364 41 384 41 c 2
 436 41 l 1
 436 272 l 1
EndSplineSet
EndChar
StartChar: I
Encoding: 73 73 42
Width: 600
Flags: W
HStem: 0 41<130.796 280 321 467> 522 41<130.796 280 140 467>
VStem: 280 41<40 522>
Fore
321 522 m 1
 321 41 l 1
 458 41 l 2
 478 41 486 35 486 20 c 0
 486 8 476 0 458 0 c 2
 140 0 l 2
 124 0 114 8 114 20 c 0
 114 35 124 41 140 41 c 2
 280 41 l 1
 280 522 l 1
 140 522 l 2
 124 522 114 530 114 542 c 0
 114 557 124 563 140 563 c 2
 458 563 l 2
 478 563 486 557 486 542 c 0
 486 530 478 522 458 522 c 2
 321 522 l 1
EndSplineSet
EndChar
StartChar: J
Encoding: 74 74 43
Width: 600
Flags: W
HStem: -16 41<224 242> 522 41<216.029 386 226 531>
VStem: 50 41<74 225> 386 41<165 522>
Fore
427 522 m 1
 427 165 l 2
 427 66 342 -16 238 -16 c 0
 172 -16 124 8 50 74 c 1
 50 223 l 2
 50 242 58 250 72 250 c 0
 84 250 91 242 91 223 c 2
 91 93 l 1
 141 47 190 25 240 25 c 0
 320 25 386 88 386 165 c 2
 386 522 l 1
 226 522 l 2
 208 522 200 530 200 542 c 0
 200 557 208 563 226 563 c 2
 522 563 l 2
 540 563 550 557 550 542 c 0
 550 530 540 522 522 522 c 2
 427 522 l 1
EndSplineSet
KernsSLIF: 262 -14 0 0 256 -14 0 0 225 -36 0 0 65 -14 0 0
EndChar
StartChar: K
Encoding: 75 75 44
Width: 600
Flags: W
HStem: 0 41<53.5824 118 159 242 481 547> 522 41<53.5824 118 64 242 394 438 394 514>
VStem: 118 41<40 220 41 522> 366 174<542 544>
DStem: 438 522 496 522 159 274 272 324 438 522 240 294 159 274 159 220
Fore
159 220 m 1
 159 41 l 1
 234 41 l 2
 252 41 260 35 260 20 c 0
 260 8 252 0 234 0 c 2
 64 0 l 2
 46 0 34 8 34 20 c 0
 34 35 46 41 64 41 c 2
 118 41 l 1
 118 522 l 1
 64 522 l 2
 46 522 34 530 34 542 c 0
 34 557 46 563 64 563 c 2
 234 563 l 2
 252 563 260 557 260 542 c 0
 260 530 252 522 234 522 c 2
 159 522 l 1
 159 274 l 1
 438 522 l 1
 394 522 l 2
 374 522 366 530 366 542 c 0
 366 557 374 563 394 563 c 2
 512 563 l 2
 530 563 540 557 540 542 c 0
 540 530 530 522 512 522 c 2
 496 522 l 1
 272 324 l 1
 370 285 406 233 482 41 c 1
 540 41 l 2
 556 41 566 35 566 20 c 0
 566 8 556 0 540 0 c 2
 452 0 l 1
 378 203 334 263 240 294 c 1
 159 220 l 1
EndSplineSet
KernsSLIF: 121 -162 0 0 362 -59 0 0 117 -59 0 0 351 -59 0 0 352 -59 0 0 111 -59 0 0 45 -145 0 0 101 -59 0 0 328 -2 0 0 241 59 0 0 322 -2 0 0 97 -2 0 0 84 -28 0 0 83 -18 0 0 286 -89 0 0 287 -89 0 0 234 -46 0 0 79 -89 0 0 71 -89 0 0 67 -101 0 0
EndChar
StartChar: L
Encoding: 76 76 45
Width: 600
Flags: W
HStem: 0 41<86.0292 172 213 530> 522 41<86.0292 172 96 295>
VStem: 172 41<41 522> 492 38<41 209>
Fore
213 522 m 1
 213 41 l 1
 492 41 l 1
 492 201 l 2
 492 219 498 228 512 228 c 0
 526 228 530 219 530 201 c 2
 530 0 l 1
 96 0 l 2
 78 0 70 8 70 20 c 0
 70 35 78 41 96 41 c 2
 172 41 l 1
 172 522 l 1
 96 522 l 2
 78 522 70 530 70 542 c 0
 70 557 78 563 96 563 c 2
 290 563 l 2
 306 563 316 557 316 542 c 0
 316 530 306 522 290 522 c 2
 213 522 l 1
EndSplineSet
KernsSLIF: 121 -107 0 0 362 -36 0 0 117 -36 0 0 39 -178 0 0 186 -158 0 0 45 6 0 0 89 -130 0 0 87 -63 0 0 86 -158 0 0 298 -68 0 0 85 -68 0 0 84 -125 0 0 83 -59 0 0 290 -14 0 0 288 -14 0 0 286 -14 0 0 289 -14 0 0 287 -14 0 0 79 -14 0 0 71 -21 0 0 264 -21 0 0 67 -24 0 0 262 36 0 0 256 36 0 0 257 36 0 0 225 36 0 0 65 36 0 0
EndChar
StartChar: M
Encoding: 77 77 46
Width: 600
Flags: W
HStem: 0 41<25.8057 70 111 186 416 489 529 569> 522 41<46 70 46 120 456 490 456 566>
VStem: 70 41<40 522> 490 39<40 522>
DStem: 120 522 144 563 278 168 302 215 456 563 480 522 302 215 326 168
Fore
326 168 m 1
 278 168 l 1
 120 522 l 1
 111 522 l 1
 111 41 l 1
 184 41 l 2
 204 41 212 35 212 20 c 0
 212 8 202 0 184 0 c 2
 36 0 l 2
 18 0 8 8 8 20 c 0
 8 35 18 41 36 41 c 2
 70 41 l 1
 70 522 l 1
 46 522 l 2
 28 522 18 530 18 542 c 0
 18 557 28 563 46 563 c 2
 144 563 l 1
 302 215 l 1
 456 563 l 1
 556 563 l 2
 574 563 580 557 580 542 c 0
 580 530 574 522 556 522 c 2
 529 522 l 1
 529 41 l 1
 564 41 l 2
 580 41 592 35 592 20 c 0
 592 8 580 0 564 0 c 2
 416 0 l 2
 398 0 388 8 388 20 c 0
 388 35 398 41 416 41 c 2
 490 41 l 1
 490 522 l 1
 480 522 l 1
 326 168 l 1
EndSplineSet
EndChar
StartChar: N
Encoding: 78 78 47
Width: 600
Flags: W
HStem: 0 41<67.0238 111 153 230> 522 41<58 111 383.024 470 394 546>
VStem: 112 41<40 503> 470 41<60 522>
DStem: 153 503 164 563 458 0 470 60
Fore
511 0 m 1
 458 0 l 1
 153 503 l 1
 153 41 l 1
 228 41 l 2
 246 41 256 35 256 20 c 0
 256 8 244 0 228 0 c 2
 78 0 l 2
 58 0 50 8 50 20 c 0
 50 35 58 41 78 41 c 2
 112 41 l 1
 112 522 l 1
 58 522 l 2
 40 522 30 530 30 542 c 0
 30 557 40 563 58 563 c 2
 164 563 l 1
 470 60 l 1
 470 522 l 1
 394 522 l 2
 374 522 366 530 366 542 c 0
 366 557 374 563 394 563 c 2
 544 563 l 2
 562 563 570 557 570 542 c 0
 570 530 562 522 544 522 c 2
 511 522 l 1
 511 0 l 1
EndSplineSet
KernsSLIF: 362 -18 0 0 117 -18 0 0 46 -201 0 0 249 -14 0 0 351 -21 0 0 352 -21 0 0 111 -21 0 0 335 -14 0 0 101 -14 0 0 44 -141 0 0 328 -46 0 0 241 24 0 0 322 -46 0 0 323 -46 0 0 97 -46 0 0 286 -18 0 0 287 -18 0 0 79 -18 0 0 71 -24 0 0 264 -28 0 0 67 -28 0 0 262 -6 0 0 256 -6 0 0 257 -6 0 0 225 -6 0 0 65 -6 0 0
EndChar
StartChar: O
Encoding: 79 79 48
Width: 600
Flags: W
HStem: -16 41<300 307> 535 42<300 307>
VStem: 50 43<280 305> 508 41<255 289>
Fore
300 577 m 0
 440 577 549 447 549 275 c 0
 549 115 438 -16 300 -16 c 0
 162 -16 50 115 50 280 c 0
 50 445 162 577 300 577 c 0
300 535 m 0
 184 535 93 420 93 280 c 0
 93 140 186 25 300 25 c 0
 412 25 508 140 508 277 c 0
 508 421 418 535 300 535 c 0
EndSplineSet
KernsSLIF: 89 -125 0 0 88 -101 0 0 87 -7 0 0 86 -74 0 0 84 -73 0 0 262 -63 0 0 256 -63 0 0 257 -63 0 0 225 -59 0 0 65 -63 0 0
EndChar
StartChar: P
Encoding: 80 80 49
Width: 600
Flags: W
HStem: 0 41<72.8007 135 177 316> 231 41<177 362> 522 41<72.8007 135 84 375>
VStem: 136 41<40 231 41 522> 506 41<398 400>
Fore
177 231 m 1
 177 41 l 1
 314 41 l 2
 334 41 344 35 344 20 c 0
 344 8 334 0 314 0 c 2
 84 0 l 2
 64 0 54 8 54 20 c 0
 54 35 64 41 84 41 c 2
 136 41 l 1
 136 522 l 1
 84 522 l 2
 64 522 54 530 54 542 c 0
 54 557 64 563 84 563 c 2
 358 563 l 2
 462 563 547 492 547 398 c 0
 547 305 458 231 344 231 c 2
 177 231 l 1
177 272 m 1
 346 272 l 2
 434 272 506 329 506 398 c 0
 506 465 440 522 360 522 c 2
 177 522 l 1
 177 272 l 1
EndSplineSet
KernsSLIF: 46 -442 0 0 249 -117 0 0 250 -30 0 0 351 -117 0 0 352 -117 0 0 111 -117 0 0 45 -113 0 0 335 -101 0 0 101 -101 0 0 44 -381 0 0 328 -125 0 0 241 -59 0 0 322 -125 0 0 323 -125 0 0 97 -125 0 0 74 -201 0 0 262 -190 0 0 256 -190 0 0 257 -190 0 0 225 -187 0 0 65 -190 0 0
EndChar
StartChar: Q
Encoding: 81 81 50
Width: 600
Flags: W
HStem: -115 41<433 451> -88 39<318 323> -16 41<300 318> 535 42<300 320>
VStem: 50 43<280 302> 508 41<252 302>
DStem: 248 -9 306 -16 160 -75 252 -57
Fore
306 -16 m 1xbc
 252 -57 l 1
 282 -50 298 -49 318 -49 c 0x7c
 348 -49 370 -52 402 -63 c 0
 424 -72 432 -74 446 -74 c 0
 466 -74 484 -66 514 -47 c 0
 520 -44 522 -42 526 -42 c 0
 536 -42 546 -52 546 -64 c 0
 546 -83 484 -115 442 -115 c 0xbc
 426 -115 416 -112 386 -102 c 0
 358 -93 344 -88 318 -88 c 0x7c
 288 -88 220 -99 178 -112 c 0
 174 -113 172 -115 168 -115 c 0
 158 -115 148 -105 148 -93 c 0
 148 -86 152 -80 160 -75 c 2
 248 -9 l 1
 136 14 50 140 50 280 c 0
 50 445 162 577 300 577 c 0
 440 577 549 445 549 280 c 0
 549 116 444 -13 306 -16 c 1xbc
300 535 m 0
 184 535 93 420 93 280 c 0
 93 140 186 25 300 25 c 0
 412 25 508 140 508 277 c 0
 508 421 418 535 300 535 c 0
EndSplineSet
MinimumDistance: x16,18 
EndChar
StartChar: R
Encoding: 82 82 51
Width: 600
Flags: W
HStem: 0 41<44.8007 107 150 235 515 555> 252 40<150 282> 522 41<44.8007 107 56 315>
VStem: 108 42<40 252 41 522> 442 39<407 417>
Fore
150 252 m 1
 150 41 l 1
 226 41 l 2
 244 41 252 35 252 20 c 0
 252 8 244 0 226 0 c 2
 56 0 l 2
 36 0 26 8 26 20 c 0
 26 35 36 41 56 41 c 2
 108 41 l 1
 108 522 l 1
 56 522 l 2
 36 522 26 530 26 542 c 0
 26 557 36 563 56 563 c 2
 302 563 l 2
 400 563 481 492 481 407 c 0
 481 343 436 294 344 263 c 1
 408 219 436 182 516 41 c 1
 546 41 l 2
 564 41 574 35 574 20 c 0
 574 8 564 0 546 0 c 2
 490 0 l 1
 402 162 358 215 282 252 c 1
 150 252 l 1
150 292 m 1
 264 292 l 2
 362 292 442 343 442 407 c 0
 442 469 374 522 302 522 c 2
 150 522 l 1
 150 292 l 1
EndSplineSet
KernsSLIF: 121 -34 0 0 362 -24 0 0 363 -24 0 0 117 -24 0 0 250 50 0 0 351 -36 0 0 352 -36 0 0 111 -36 0 0 45 -117 0 0 335 -34 0 0 101 -34 0 0 328 14 0 0 241 85 0 0 322 14 0 0 323 14 0 0 97 14 0 0 89 -68 0 0 87 -30 0 0 86 -78 0 0 298 -74 0 0 85 -74 0 0 84 -67 0 0 286 -59 0 0 287 -59 0 0 234 -6 0 0 79 -59 0 0 71 -59 0 0 264 -67 0 0 67 -63 0 0
EndChar
StartChar: S
Encoding: 83 83 52
Width: 600
Flags: W
HStem: -16 41<283 317> 0 167<112 116> 407 156<464 466> 535 42<283 317>
VStem: 92 41<27 57 27 142> 114 44<406 435> 464 44<138 167>
Fore
444 517 m 1x96
 444 536 l 2
 444 553 450 563 464 563 c 0
 480 563 486 553 486 536 c 2
 486 434 l 2
 486 415 480 407 464 407 c 0x26
 454 407 446 414 444 429 c 0
 440 491 380 535 302 535 c 0
 220 535 158 486 158 420 c 0
 158 390 172 360 198 343 c 0
 224 327 248 319 310 310 c 1
 388 296 416 288 446 269 c 0
 486 245 508 201 508 151 c 0
 508 53 422 -16 302 -16 c 0x96
 232 -16 172 8 133 57 c 1
 133 27 l 2
 133 8 126 0 112 0 c 0
 98 0 92 8 92 27 c 2
 92 140 l 2
 92 157 98 167 112 167 c 0
 126 167 131 157 133 142 c 1x4a
 134 77 210 25 300 25 c 0
 394 25 464 79 464 153 c 0
 464 189 446 220 418 237 c 0
 394 253 374 258 302 270 c 0
 232 283 196 296 168 316 c 0
 134 340 114 379 114 421 c 0
 114 508 192 577 298 577 c 0
 358 577 402 558 444 517 c 1x96
EndSplineSet
KernsSLIF: 116 -45 0 0 89 -74 0 0 87 -36 0 0 86 -21 0 0 84 -101 0 0 262 -50 0 0 256 -50 0 0 257 -50 0 0 225 -50 0 0 65 -50 0 0
EndChar
StartChar: T
Encoding: 84 84 53
Width: 600
Flags: W
HStem: 0 41<176 280 322 428> 423 21G<87 99 502 515> 522 41<72 280 72 486>
VStem: 72 41<450 522> 280 42<40 522> 486 41<450 522>
Fore
322 41 m 1
 426 41 l 2
 444 41 454 35 454 20 c 0
 454 8 444 0 426 0 c 2
 176 0 l 2
 158 0 148 8 148 20 c 0
 148 35 158 41 176 41 c 2
 280 41 l 1
 280 522 l 1
 113 522 l 1
 113 450 l 2
 113 431 104 423 94 423 c 0
 80 423 72 431 72 450 c 2
 72 563 l 1
 527 563 l 1
 527 450 l 2
 527 429 522 423 508 423 c 0
 496 423 486 434 486 450 c 2
 486 522 l 1
 322 522 l 1
 322 41 l 1
EndSplineSet
KernsSLIF: 121 -254 0 0 119 -215 0 0 118 -229 0 0 117 -202 0 0 59 -269 0 0 115 -156 0 0 114 -130 0 0 46 -330 0 0 249 -130 0 0 111 -206 0 0 106 -197 0 0 105 -141 0 0 45 -229 0 0 172 -298 0 0 171 -298 0 0 103 -225 0 0 101 -201 0 0 44 -263 0 0 58 -330 0 0 99 -215 0 0 241 -78 0 0 97 -145 0 0 89 -21 0 0 87 7 0 0 86 21 0 0 83 -101 0 0 290 -68 0 0 233 -68 0 0 288 -68 0 0 286 -68 0 0 289 -68 0 0 287 -68 0 0 234 -14 0 0 79 -68 0 0 74 -190 0 0 71 -73 0 0 67 -68 0 0 261 -63 0 0 262 -63 0 0 258 -63 0 0 256 -63 0 0 259 -63 0 0 257 -63 0 0 225 -63 0 0 65 -63 0 0
EndChar
StartChar: U
Encoding: 85 85 54
Width: 600
Flags: W
HStem: -16 41<281.442 313> 522 41<56.7963 102 66 218 384 457 384 536>
VStem: 102 41<184 522> 458 40<184 522>
Fore
498 522 m 1
 498 184 l 2
 498 72 412 -16 300 -16 c 0
 188 -16 102 72 102 184 c 2
 102 522 l 1
 66 522 l 2
 50 522 40 530 40 542 c 0
 40 557 50 563 66 563 c 2
 216 563 l 2
 234 563 242 557 242 542 c 0
 242 530 234 522 216 522 c 2
 143 522 l 1
 143 184 l 2
 143 94 212 25 300 25 c 0
 388 25 458 94 458 184 c 2
 458 522 l 1
 384 522 l 2
 366 522 358 530 358 542 c 0
 358 557 366 563 384 563 c 2
 534 563 l 2
 552 563 560 557 560 542 c 0
 560 530 550 522 534 522 c 2
 498 522 l 1
EndSplineSet
KernsSLIF: 114 -101 0 0 46 -245 0 0 110 -46 0 0 109 14 0 0 44 -187 0 0 261 -45 0 0 262 -45 0 0 256 -45 0 0 259 -45 0 0 257 -45 0 0 225 -63 0 0 65 -45 0 0
EndChar
StartChar: V
Encoding: 86 86 55
Width: 600
Flags: W
HStem: 0 21G<268 324> 522 41<26.5731 66 36 190 414 492 414 569>
VStem: 8 206<542 544> 388 204<542 544>
DStem: 66 522 110 522 268 0 296 41 492 522 534 522 300 41 324 0
Fore
268 0 m 1
 66 522 l 1
 36 522 l 2
 20 522 8 530 8 542 c 0
 8 557 20 563 36 563 c 2
 188 563 l 2
 204 563 214 557 214 542 c 0
 214 530 204 522 188 522 c 2
 110 522 l 1
 296 41 l 1
 300 41 l 1
 492 522 l 1
 414 522 l 2
 396 522 388 530 388 542 c 0
 388 557 396 563 414 563 c 2
 564 563 l 2
 582 563 592 557 592 542 c 0
 592 530 582 522 564 522 c 2
 534 522 l 1
 324 0 l 1
 268 0 l 1
EndSplineSet
KernsSLIF: 121 -46 0 0 117 -34 0 0 59 -280 0 0 114 -113 0 0 46 -379 0 0 249 -130 0 0 111 -134 0 0 105 -145 0 0 45 -101 0 0 172 -184 0 0 171 -184 0 0 103 -130 0 0 101 -125 0 0 44 -314 0 0 58 -301 0 0 241 -78 0 0 97 -145 0 0 84 21 0 0 83 -78 0 0 290 -74 0 0 233 -74 0 0 288 -74 0 0 286 -74 0 0 289 -74 0 0 287 -74 0 0 79 -74 0 0 71 -74 0 0 67 -68 0 0 261 -6 0 0 262 -6 0 0 258 -6 0 0 256 -6 0 0 259 -6 0 0 257 -6 0 0 225 -28 0 0 65 -6 0 0
EndChar
StartChar: W
Encoding: 87 87 56
Width: 600
Flags: W
HStem: 0 21G<124 184 412 476> 522 41<31.8057 62 42 191 402.796 498 412 560>
VStem: 14 200<542 544> 386 200<542 544>
DStem: 62 522 104 522 124 0 160 46 270 439 300 401 160 46 184 0 300 401 332 439 412 0 442 46 498 522 538 522 442 46 476 0
Fore
124 0 m 1
 62 522 l 1
 42 522 l 2
 24 522 14 530 14 542 c 0
 14 557 24 563 42 563 c 2
 186 563 l 2
 204 563 214 557 214 542 c 0
 214 530 204 522 186 522 c 2
 104 522 l 1
 160 46 l 1
 270 439 l 1
 332 439 l 1
 442 46 l 1
 498 522 l 1
 412 522 l 2
 396 522 386 530 386 542 c 0
 386 557 396 563 412 563 c 2
 558 563 l 2
 578 563 586 557 586 542 c 0
 586 530 578 522 558 522 c 2
 538 522 l 1
 476 0 l 1
 412 0 l 1
 300 401 l 1
 184 0 l 1
 124 0 l 1
EndSplineSet
KernsSLIF: 121 -6 0 0 117 6 0 0 59 -169 0 0 114 -68 0 0 46 -219 0 0 249 -14 0 0 111 -21 0 0 105 -101 0 0 45 -6 0 0 172 -74 0 0 171 -74 0 0 103 -14 0 0 101 -14 0 0 44 -158 0 0 58 -215 0 0 241 21 0 0 97 -46 0 0 84 7 0 0 83 -59 0 0 290 -7 0 0 233 -6 0 0 288 -7 0 0 286 -7 0 0 289 -7 0 0 287 -7 0 0 79 -7 0 0 71 -14 0 0 67 -18 0 0 261 -18 0 0 262 -18 0 0 258 -18 0 0 256 -18 0 0 259 -18 0 0 257 -18 0 0 225 -34 0 0 65 -18 0 0
EndChar
StartChar: X
Encoding: 88 88 57
Width: 600
Flags: W
HStem: 0 41<56.7963 84 134 200 402 464 515 536> 522 41<78 94 78 200 408 454 408 522>
VStem: 40 186<20 22> 50 165<542 544> 374 186<20 22> 382 165<542 544>
DStem: 94 522 146 522 272 288 300 322 272 288 300 255 84 41 134 41 300 255 326 288 464 41 516 41 454 522 504 522 300 322 326 288
Fore
326 288 m 1xd4
 516 41 l 1
 534 41 l 2
 550 41 560 35 560 20 c 0
 560 8 550 0 534 0 c 2
 402 0 l 2
 384 0 374 8 374 20 c 0
 374 35 384 41 402 41 c 2
 464 41 l 1
 300 255 l 1
 134 41 l 1
 198 41 l 2
 216 41 226 35 226 20 c 0
 226 8 216 0 198 0 c 2
 66 0 l 2
 50 0 40 8 40 20 c 0xe8
 40 35 50 41 66 41 c 2
 84 41 l 1
 272 288 l 1
 94 522 l 1
 78 522 l 2
 60 522 50 530 50 542 c 0
 50 557 60 563 78 563 c 2
 190 563 l 2
 206 563 215 557 215 542 c 0
 215 530 206 522 190 522 c 2
 146 522 l 1
 300 322 l 1
 454 522 l 1
 408 522 l 2
 390 522 382 530 382 542 c 0
 382 557 390 563 408 563 c 2
 520 563 l 2
 536 563 547 557 547 542 c 0
 547 530 536 522 520 522 c 2
 504 522 l 1
 326 288 l 1xd4
EndSplineSet
KernsSLIF: 121 -130 0 0 117 -74 0 0 111 -74 0 0 45 -184 0 0 101 -73 0 0 97 -14 0 0 81 -103 0 0 286 -101 0 0 79 -101 0 0 67 -113 0 0
EndChar
StartChar: Y
Encoding: 89 89 58
Width: 600
Flags: W
HStem: 0 41<176 280 320 430> 522 41<57.8058 102 68 190 412 450 412 537>
VStem: 40 173<542 544> 280 40<40 253> 382 177<542 544>
DStem: 102 522 150 522 280 253 302 296 450 522 496 522 302 296 320 253
Fore
320 253 m 1
 320 41 l 1
 428 41 l 2
 444 41 454 35 454 20 c 0
 454 8 444 0 428 0 c 2
 176 0 l 2
 156 0 148 8 148 20 c 0
 148 35 156 41 176 41 c 2
 280 41 l 1
 280 253 l 1
 102 522 l 1
 68 522 l 2
 50 522 40 530 40 542 c 0
 40 557 50 563 68 563 c 2
 188 563 l 2
 208 563 213 557 213 542 c 0
 213 530 208 522 188 522 c 2
 150 522 l 1
 302 296 l 1
 450 522 l 1
 412 522 l 2
 392 522 382 530 382 542 c 0
 382 557 392 563 412 563 c 2
 530 563 l 2
 548 563 559 555 559 542 c 0
 559 530 548 522 530 522 c 2
 496 522 l 1
 320 253 l 1
EndSplineSet
KernsSLIF: 118 -91 0 0 117 -113 0 0 59 -269 0 0 46 -326 0 0 112 -85 0 0 249 -130 0 0 111 -201 0 0 105 -139 0 0 45 -223 0 0 172 -282 0 0 171 -282 0 0 103 -201 0 0 101 -187 0 0 44 -259 0 0 58 -326 0 0 241 -74 0 0 97 -145 0 0 84 -21 0 0 83 -134 0 0 290 -130 0 0 233 -130 0 0 288 -130 0 0 286 -130 0 0 289 -130 0 0 287 -130 0 0 79 -130 0 0 71 -125 0 0 67 -123 0 0 261 -59 0 0 262 -59 0 0 258 -59 0 0 256 -59 0 0 259 -59 0 0 257 -59 0 0 225 -63 0 0 65 -59 0 0
EndChar
StartChar: Z
Encoding: 90 90 59
Width: 600
Flags: W
HStem: 0 41<142 497> 0 209<468 497> 522 41<110 430>
VStem: 110 41<404 521> 430 40<518 563> 456 41<41 193>
DStem: 430 519 470 505 104 60 142 46
Fore
497 0 m 1xb4
 104 0 l 1
 104 60 l 1
 430 519 l 1
 430 522 l 1
 151 522 l 1
 151 404 l 2
 151 385 144 376 132 376 c 0
 118 376 110 385 110 404 c 2
 110 563 l 1
 470 563 l 1
 470 505 l 1x78
 142 46 l 1
 142 41 l 1
 456 41 l 1xb4
 456 182 l 2
 456 200 462 209 476 209 c 0x74
 492 209 497 200 497 182 c 2
 497 0 l 1xb4
EndSplineSet
KernsSLIF: 121 -145 0 0 118 -120 0 0
EndChar
StartChar: bracketleft
Encoding: 91 91 60
Width: 600
Flags: W
HStem: -124 42<260 363> 563 41<218 363>
VStem: 218 42<-124 563>
Fore
260 563 m 1
 260 -82 l 1
 356 -82 l 2
 374 -82 382 -90 382 -104 c 0
 382 -116 374 -124 356 -124 c 2
 218 -124 l 1
 218 604 l 1
 356 604 l 2
 374 604 382 597 382 583 c 0
 382 571 374 563 356 563 c 2
 260 563 l 1
EndSplineSet
EndChar
StartChar: backslash
Encoding: 92 92 61
Width: 600
Flags: W
DStem: 118 634 156 651 444 -63 482 -46
Fore
156 651 m 1
 482 -46 l 1
 486 -53 486 -58 486 -61 c 0
 486 -72 476 -82 468 -82 c 0
 458 -82 452 -77 444 -63 c 1
 118 634 l 2
 114 642 114 645 114 649 c 0
 114 659 124 668 134 668 c 0
 144 668 148 664 156 651 c 1
EndSplineSet
EndChar
StartChar: bracketright
Encoding: 93 93 62
Width: 600
Flags: W
HStem: -124 42<234.109 342> 563 41<233.989 342>
VStem: 342 41<-83 604>
Fore
342 -82 m 1
 342 563 l 1
 244 563 l 2
 226 563 218 571 218 582 c 0
 218 597 226 604 244 604 c 2
 383 604 l 1
 383 -124 l 1
 244 -124 l 2
 226 -124 218 -116 218 -104 c 0
 218 -90 226 -82 244 -82 c 2
 342 -82 l 1
EndSplineSet
EndChar
StartChar: asciicircum
Encoding: 94 94 63
Width: 600
Flags: W
DStem: 300 552 300 615 448 366 478 392 300 615 300 552 124 392 152 366 300 552 300 615 448 366 478 392 300 615 300 552 124 392 152 366 300 552 300 615 448 366 478 392 300 615 300 552 124 392 152 366 300 552 300 615 448 366 478 392 300 615 300 552 124 392 152 366 300 552 300 615 448 366 478 392 300 615 300 552 124 392 152 366 300 552 300 615 448 366 478 392 300 615 300 552 124 392 152 366 300 552 300 615 448 366 478 392 300 615 300 552 124 392 152 366 300 552 300 615 448 366 478 392 300 615 300 552 124 392 152 366 300 552 300 615 448 366 478 392 300 615 300 552 124 392 152 366 300 552 300 615 448 366 478 392 300 615 300 552 124 392 152 366 300 552 300 615 448 366 478 392 300 615 300 552 124 392 152 366 300 552 300 615 448 366 478 392 300 615 300 552 124 392 152 366 300 552 300 615 448 366 478 392 300 615 300 552 124 392 152 366 300 552 300 615 448 366 478 392
Fore
300 615 m 1
 478 392 l 2
 484 385 486 379 486 374 c 0
 486 363 478 354 468 354 c 0
 458 354 454 357 448 366 c 1
 300 552 l 1
 152 366 l 1
 146 357 142 354 134 354 c 0
 124 354 114 363 114 374 c 0
 114 381 114 384 124 392 c 1
 300 615 l 1
EndSplineSet
EndChar
StartChar: underscore
Encoding: 95 95 64
Width: 600
Flags: W
HStem: -126 51<-12 612>
Fore
612 -75 m 1
 612 -126 l 1
 -12 -126 l 1
 -12 -75 l 1
 612 -75 l 1
EndSplineSet
EndChar
StartChar: quoteleft
Encoding: 96 8216 65
Width: 600
Flags: W
Fore
332 365 m 1
 198 365 l 1
 344 604 l 1
 354 619 360 626 374 626 c 0
 390 626 402 613 402 599 c 2
 402 588 l 1
 332 365 l 1
EndSplineSet
KernsSLIF: 89 -134 1 0 87 -59 1 0 86 -89 1 0 84 -145 1 0 262 -197 1 0 256 -197 1 0 257 -197 1 0 225 -178 1 0 65 -197 1 0
EndChar
StartChar: a
Encoding: 97 97 66
Width: 600
Flags: W
HStem: -16 41<209 243> 0 41<454 515> 217 41<257 307> 358 73<138 292> 390 41<273 307>
VStem: 66 41<97.0699 115> 412 43<0 310> 412 123<0 27>
Fore
412 0 m 1x76
 412 66 l 1
 352 9 292 -16 222 -16 c 0
 128 -16 66 36 66 112 c 0
 66 200 150 258 276 258 c 0
 322 258 354 253 412 237 c 1
 412 308 l 2
 412 357 362 390 290 390 c 0xae
 252 390 224 384 148 360 c 0
 144 358 140 358 138 358 c 0
 128 358 120 366 120 377 c 0
 120 388 124 395 136 399 c 0
 190 418 256 431 292 431 c 0
 386 431 455 379 455 308 c 2
 455 41 l 1x76
 508 41 l 2
 524 41 535 35 535 20 c 0x75
 535 8 524 0 508 0 c 2
 412 0 l 1x76
412 112 m 1
 412 201 l 1
 378 211 328 217 284 217 c 0
 178 217 107 173 107 110 c 0
 107 60 150 25 220 25 c 0
 292 25 346 49 412 112 c 1
EndSplineSet
KernsSLIF: 121 -91 0 0 119 -46 0 0 118 -67 0 0 39 -134 0 0 106 -212 0 0
EndChar
StartChar: b
Encoding: 98 98 67
Width: 600
Flags: W
HStem: -16 41<342 361> 0 41<57.0238 121> 390 41<342 361> 563 41<57.0238 121>
VStem: 122 41<40 88 41 225 41 604> 518 42<191 225>
Fore
163 604 m 1x7c
 163 327 l 1
 213 399 268 431 342 431 c 0
 464 431 560 333 560 211 c 0
 560 85 462 -16 342 -16 c 0xbc
 268 -16 210 19 163 88 c 1
 163 0 l 1
 68 0 l 2
 48 0 40 8 40 20 c 0
 40 35 48 41 68 41 c 2
 122 41 l 1
 122 563 l 1
 68 563 l 2
 48 563 40 571 40 583 c 0
 40 597 48 604 68 604 c 2
 163 604 l 1x7c
342 390 m 0
 240 390 163 310 163 208 c 0
 163 107 240 25 342 25 c 0
 438 25 518 107 518 204 c 0
 518 310 440 390 342 390 c 0
EndSplineSet
KernsSLIF: 121 -50 0 0 119 2 0 0 118 -28 0 0
EndChar
StartChar: c
Encoding: 99 99 68
Width: 600
Flags: W
HStem: -16 41<302 315> 270 148<484 490> 390 41<297 315>
VStem: 74 43<204 225>
Fore
460 376 m 1xb0
 460 390 l 2xb0
 460 407 468 418 484 418 c 0xd0
 494 418 502 407 502 390 c 2xb0
 502 299 l 2
 502 280 494 270 484 270 c 0xd0
 470 270 464 278 460 296 c 1
 456 349 386 390 302 390 c 0
 192 390 117 316 117 204 c 0
 117 99 192 25 302 25 c 0
 374 25 438 49 488 97 c 1
 498 105 498 107 508 107 c 0
 516 107 526 99 526 88 c 0
 526 77 510 58 484 39 c 0
 432 3 366 -16 302 -16 c 0
 170 -16 74 77 74 204 c 0
 74 336 170 431 306 431 c 0
 366 431 418 412 460 376 c 1xb0
EndSplineSet
KernsSLIF: 107 -18 0 0 104 -6 0 0
EndChar
StartChar: d
Encoding: 100 100 69
Width: 600
Flags: W
HStem: -16 41<247 265> 0 41<478 537> 390 41<247 265> 563 41<386 438>
VStem: 40 41<208 225> 438 41<0 604> 438 121<0 27>
Fore
479 604 m 1xbc
 479 41 l 1x7c
 532 41 l 2
 552 41 559 35 559 20 c 0x7a
 559 8 552 0 532 0 c 2
 438 0 l 1x7c
 438 88 l 1
 392 19 332 -16 256 -16 c 0
 138 -16 40 85 40 208 c 0
 40 332 138 431 256 431 c 0
 332 431 390 398 438 327 c 1
 438 563 l 1
 386 563 l 2
 366 563 358 571 358 583 c 0
 358 597 366 604 386 604 c 2
 479 604 l 1xbc
260 390 m 0
 162 390 81 310 81 208 c 0
 81 105 162 25 260 25 c 0xbc
 358 25 438 105 438 206 c 0
 438 310 360 390 260 390 c 0
EndSplineSet
EndChar
StartChar: e
Encoding: 101 101 70
Width: 600
Flags: W
HStem: -16 41<295 329> -16 102<314 506> 200 41<112 528> 390 41<300 319>
Fore
528 200 m 1xb0
 112 200 l 1
 126 93 206 25 316 25 c 0xb0
 378 25 450 47 490 79 c 0
 496 83 502 86 506 86 c 0x70
 516 86 526 77 526 66 c 0
 526 31 406 -16 314 -16 c 0
 178 -16 72 88 72 217 c 0
 72 338 170 431 300 431 c 0
 396 431 476 381 512 297 c 0
 526 264 528 245 528 200 c 1xb0
112 241 m 1
 488 241 l 1
 470 332 398 390 300 390 c 0
 202 390 132 332 112 241 c 1
EndSplineSet
KernsSLIF: 121 -78 0 0 120 -6 0 0 119 -46 0 0 118 -50 0 0 116 -68 0 0 39 -101 0 0
EndChar
StartChar: f
Encoding: 102 102 71
Width: 600
Flags: W
HStem: 0 41<99.0238 208 249 438> 376 42<120 208 249 450> 550 54<362 498> 563 41<353 387>
VStem: 208 41<40 376 417 480>
Fore
249 376 m 1xd8
 249 41 l 1
 436 41 l 2
 456 41 462 35 462 20 c 0
 462 8 454 0 436 0 c 2
 110 0 l 2
 90 0 82 8 82 20 c 0
 82 35 90 41 110 41 c 2
 208 41 l 1
 208 376 l 1
 120 376 l 2
 102 376 92 384 92 396 c 0
 92 410 102 418 120 418 c 2
 208 418 l 1
 208 478 l 2
 208 550 272 604 362 604 c 0
 398 604 468 597 500 591 c 0
 512 588 518 582 518 572 c 0
 518 560 510 550 498 550 c 0xe8
 494 550 494 550 448 557 c 0
 420 560 380 563 360 563 c 0
 294 563 249 528 249 478 c 2
 249 418 l 1
 448 418 l 2
 466 418 474 410 474 396 c 0
 474 384 466 376 448 376 c 2
 249 376 l 1xd8
EndSplineSet
KernsSLIF: 116 -14 0 0 115 -101 0 0 39 -134 0 0 249 -74 0 0 250 -46 0 0 351 -63 0 0 352 -148 0 0 111 -148 0 0 108 -59 0 0 106 -145 0 0 105 -89 0 0 102 -101 0 0 335 -134 0 0 101 -134 0 0 328 -91 0 0 241 -24 0 0 322 -50 0 0 323 -91 0 0 97 -91 0 0
EndChar
StartChar: g
Encoding: 103 103 72
Width: 600
Flags: W
HStem: -186 41<179.074 308> 9 41<241 275> 376 42<428 531> 390 41<241 275>
VStem: 50 41<220 231> 428 41<-30 107 213 376> 428 121<333 398>
Fore
428 333 m 1xdc
 428 418 l 1
 522 418 l 2
 542 418 549 410 549 396 c 0xea
 549 384 542 376 522 376 c 2
 469 376 l 1xec
 469 -28 l 2
 469 -69 456 -99 426 -132 c 0
 392 -168 354 -186 304 -186 c 2
 188 -186 l 2
 172 -186 164 -178 164 -165 c 0
 164 -151 172 -145 188 -145 c 2
 306 -145 l 2
 374 -145 428 -90 428 -22 c 2
 428 107 l 1
 384 41 330 9 256 9 c 0
 146 9 50 105 50 220 c 0
 50 338 146 431 256 431 c 0
 332 431 384 401 428 333 c 1xdc
260 390 m 0xdc
 166 390 91 316 91 220 c 0
 91 126 166 50 260 50 c 0
 354 50 428 126 428 219 c 0
 428 316 354 390 260 390 c 0xdc
EndSplineSet
KernsSLIF: 351 -18 0 0 352 -18 0 0 108 -78 0 0 335 -6 0 0 101 -6 0 0 328 -21 0 0 241 36 0 0 322 -21 0 0 97 -21 0 0
EndChar
StartChar: h
Encoding: 104 104 73
Width: 600
Flags: W
HStem: 0 41<80 127 170 223 385.806 442 482 530> 390 41<316 335> 563 41<64.8007 127>
VStem: 128 42<40 296 41 604> 442 41<40 298>
Fore
170 604 m 1
 170 347 l 1
 219 407 262 431 324 431 c 0
 416 431 483 373 483 291 c 2
 483 41 l 1
 528 41 l 2
 546 41 554 35 554 20 c 0
 554 8 546 0 528 0 c 2
 396 0 l 2
 378 0 368 8 368 20 c 0
 368 35 378 41 396 41 c 2
 442 41 l 1
 442 288 l 2
 442 318 428 343 404 365 c 1
 380 384 358 390 318 390 c 0
 262 390 234 373 180 310 c 1
 170 296 l 1
 170 41 l 1
 214 41 l 2
 234 41 242 35 242 20 c 0
 242 8 232 0 214 0 c 2
 80 0 l 2
 66 0 54 8 54 20 c 0
 54 35 64 41 80 41 c 2
 128 41 l 1
 128 563 l 1
 76 563 l 2
 56 563 46 571 46 583 c 0
 46 597 56 604 76 604 c 2
 170 604 l 1
EndSplineSet
KernsSLIF: 121 -74 0 0 39 -117 0 0
EndChar
StartChar: i
Encoding: 105 105 74
Width: 600
Flags: W
HStem: 0 41<109.024 280 320 482> 376 42<162 280> 517 110<274 302>
VStem: 280 41<40 418>
Fore
321 418 m 1
 321 41 l 1
 480 41 l 2
 498 41 508 35 508 20 c 0
 508 8 496 0 480 0 c 2
 120 0 l 2
 100 0 92 8 92 20 c 0
 92 35 100 41 120 41 c 2
 280 41 l 1
 280 376 l 1
 162 376 l 2
 144 376 134 384 134 396 c 0
 134 410 144 418 162 418 c 2
 321 418 l 1
274 627 m 2
 300 627 l 2
 312 627 321 619 321 601 c 2
 321 544 l 2
 321 525 312 517 300 517 c 2
 274 517 l 2
 262 517 256 525 256 544 c 2
 256 601 l 2
 256 619 262 627 274 627 c 2
EndSplineSet
KernsSLIF: 106 -347 0 0 84 -141 0 0
EndChar
StartChar: j
Encoding: 106 106 75
Width: 600
Flags: W
HStem: -186 41<161.068 305> 376 42<174 414> 517 110<412 437>
VStem: 414 42<-28 377>
Fore
414 376 m 1
 174 376 l 2
 156 376 146 384 146 396 c 0
 146 410 156 418 174 418 c 2
 456 418 l 1
 456 -28 l 2
 456 -121 392 -186 300 -186 c 2
 172 -186 l 2
 152 -186 144 -178 144 -165 c 0
 144 -151 152 -145 172 -145 c 2
 298 -145 l 2
 366 -145 414 -96 414 -28 c 2
 414 376 l 1
412 627 m 2
 434 627 l 2
 448 627 456 619 456 601 c 2
 456 544 l 2
 456 525 448 517 434 517 c 2
 412 517 l 2
 398 517 392 525 392 544 c 2
 392 601 l 2
 392 619 398 627 412 627 c 2
EndSplineSet
EndChar
StartChar: k
Encoding: 107 107 76
Width: 600
Flags: W
HStem: 0 41<77.8057 141 370.796 408 467 514> 376 42<336 356 336 470> 563 41<77.8057 141>
VStem: 142 41<40 179 41 604> 308 184<396 401> 354 186<20 22>
DStem: 228 219 260 245 408 41 468 41 356 376 418 376 183 230 260 245
Fore
183 179 m 1xf4
 183 0 l 1
 88 0 l 2
 70 0 60 8 60 20 c 0
 60 35 70 41 88 41 c 2
 142 41 l 1
 142 563 l 1
 88 563 l 2
 70 563 60 571 60 583 c 0
 60 597 70 604 88 604 c 2
 183 604 l 1
 183 230 l 1
 356 376 l 1
 336 376 l 2
 316 376 308 384 308 396 c 0
 308 410 316 418 336 418 c 2
 464 418 l 2
 484 418 492 410 492 396 c 0xf8
 492 384 484 376 464 376 c 2
 418 376 l 1
 260 245 l 1
 468 41 l 1
 512 41 l 2
 530 41 540 35 540 20 c 0
 540 8 530 0 512 0 c 2
 380 0 l 2
 364 0 354 8 354 20 c 0
 354 35 364 41 380 41 c 2
 408 41 l 1
 228 219 l 1
 183 179 l 1xf4
EndSplineSet
KernsSLIF: 362 -6 0 0 117 -6 0 0 115 -18 0 0 46 -201 0 0 351 -73 0 0 352 -73 0 0 111 -73 0 0 45 -241 0 0 103 -91 0 0 335 -68 0 0 101 -68 0 0 44 -130 0 0 328 -14 0 0 241 46 0 0 322 -14 0 0 323 -14 0 0 97 -14 0 0
EndChar
StartChar: l
Encoding: 108 108 77
Width: 600
Flags: W
HStem: 0 41<109.024 280 320 482> 563 41<162 280>
VStem: 280 41<40 604>
Fore
321 604 m 1
 321 41 l 1
 480 41 l 2
 498 41 508 35 508 20 c 0
 508 8 496 0 480 0 c 2
 120 0 l 2
 100 0 92 8 92 20 c 0
 92 35 100 41 120 41 c 2
 280 41 l 1
 280 563 l 1
 162 563 l 2
 144 563 134 571 134 583 c 0
 134 597 144 604 162 604 c 2
 321 604 l 1
EndSplineSet
KernsSLIF: 121 -229 0 0 118 -201 0 0
EndChar
StartChar: m
Encoding: 109 109 78
Width: 600
Flags: W
HStem: 0 41<32 70 110 153 320 361 528 569> 376 42<36 70> 390 41<203.736 219 411.608 429>
VStem: 70 40<40 308 41 418> 280 40<0 308> 280 102<0 22> 490 39<0 324> 490 101<0 22>
Fore
110 418 m 1xd4
 110 365 l 1
 143 412 174 431 216 431 c 0
 256 431 290 407 312 360 c 1
 352 410 384 431 426 431 c 0
 484 431 529 382 529 322 c 2
 529 41 l 1xb6
 564 41 l 2
 580 41 591 35 591 20 c 0xb1
 591 8 580 0 564 0 c 2
 490 0 l 1
 490 319 l 2
 490 357 460 390 424 390 c 0
 388 390 359 366 320 308 c 1
 320 41 l 1xba
 354 41 l 2
 372 41 382 35 382 20 c 0xb4
 382 8 372 0 354 0 c 2
 280 0 l 1xb8
 280 316 l 2
 280 355 250 390 216 390 c 0xb4
 180 390 149 365 110 308 c 1
 110 41 l 1
 144 41 l 2
 162 41 170 35 170 20 c 0
 170 8 160 0 144 0 c 2
 34 0 l 2
 18 0 8 8 8 20 c 0
 8 35 18 41 36 41 c 2
 70 41 l 1
 70 376 l 1
 36 376 l 2
 18 376 8 384 8 396 c 0
 8 410 18 418 36 418 c 2
 110 418 l 1xd4
EndSplineSet
KernsSLIF: 121 6 0 0 119 34 0 0 118 34 0 0 112 50 0 0
EndChar
StartChar: n
Encoding: 110 110 79
Width: 600
Flags: W
HStem: 0 41<74.0303 130 172 218 410 441 484 520> 376 42<96 130> 390 41<311 345>
VStem: 130 42<40 294 41 418> 442 43<40 298>
Fore
172 418 m 1xd8
 172 349 l 1
 228 412 264 431 324 431 c 0
 416 431 485 373 485 296 c 2
 485 41 l 1
 518 41 l 2
 534 41 544 35 544 20 c 0
 544 8 534 0 518 0 c 2
 410 0 l 2
 390 0 380 8 380 20 c 0
 380 35 390 41 410 41 c 2
 442 41 l 1
 442 288 l 2
 442 318 430 343 404 365 c 0
 380 384 362 390 322 390 c 0xb8
 284 390 256 381 228 357 c 1
 212 346 204 335 172 294 c 1
 172 41 l 1
 216 41 l 2
 234 41 242 35 242 20 c 0
 242 8 234 0 216 0 c 2
 86 0 l 2
 64 0 56 8 56 20 c 0
 56 35 64 41 86 41 c 2
 130 41 l 1
 130 376 l 1
 96 376 l 2
 76 376 70 384 70 396 c 0
 70 410 76 418 96 418 c 2
 172 418 l 1xd8
EndSplineSet
KernsSLIF: 121 -74 0 0 119 -28 0 0 118 -46 0 0 39 -113 0 0 112 -7 0 0 84 -101 0 0
EndChar
StartChar: o
Encoding: 111 111 80
Width: 600
Flags: W
HStem: -16 41<300 313> 390 41<300 313>
VStem: 72 41<208 225> 486 41<204 225>
Fore
300 431 m 0
 428 431 527 332 527 204 c 0
 527 82 426 -16 300 -16 c 0
 172 -16 72 82 72 208 c 0
 72 332 172 431 300 431 c 0
300 390 m 0
 196 390 113 310 113 208 c 0
 113 105 196 25 300 25 c 0
 404 25 486 105 486 204 c 0
 486 310 406 390 300 390 c 0
EndSplineSet
KernsSLIF: 121 -74 0 0 120 -59 0 0 119 -14 0 0 118 -46 0 0 116 -50 0 0 39 -91 0 0 84 -206 0 0
EndChar
StartChar: p
Encoding: 112 112 81
Width: 600
Flags: W
HStem: -186 41<57.8477 121 163 265> 9 41<340 345> 376 42<57.8897 121> 390 41<340 361>
VStem: 122 41<-146 105 -145 231 -145 418> 518 41<213 231>
Fore
163 418 m 1xec
 163 335 l 1
 215 404 266 431 340 431 c 0xdc
 466 431 559 340 559 220 c 0
 559 102 466 9 340 9 c 0
 266 9 208 39 163 105 c 1
 163 -145 l 1
 260 -145 l 2
 278 -145 288 -151 288 -165 c 0
 288 -178 278 -186 260 -186 c 2
 68 -186 l 2
 50 -186 40 -178 40 -165 c 0
 40 -151 50 -145 68 -145 c 2
 122 -145 l 1
 122 376 l 1
 68 376 l 2
 50 376 40 384 40 396 c 0
 40 410 50 418 68 418 c 2
 163 418 l 1xec
340 390 m 0
 242 390 163 316 163 220 c 0
 163 126 242 50 340 50 c 0
 438 50 518 126 518 219 c 0
 518 316 442 390 340 390 c 0
EndSplineSet
KernsSLIF: 121 -46 0 0 116 -34 0 0
EndChar
StartChar: q
Encoding: 113 113 82
Width: 600
Flags: W
HStem: -186 41<328.835 438 479 537> 9 41<258 265> 376 42<438 537> 390 41<258 265>
VStem: 40 41<220 231> 438 41<-146 376> 438 123<335 398>
Fore
438 335 m 1xdc
 438 418 l 1
 532 418 l 2
 550 418 561 410 561 396 c 0xea
 561 384 550 376 532 376 c 2
 479 376 l 1
 479 -145 l 1xec
 532 -145 l 2
 550 -145 561 -151 561 -165 c 0xea
 561 -178 550 -186 532 -186 c 2
 338 -186 l 2
 322 -186 312 -178 312 -165 c 0
 312 -151 322 -145 338 -145 c 2
 438 -145 l 1
 438 105 l 1
 390 39 336 9 258 9 c 0
 136 9 40 102 40 220 c 0
 40 340 136 431 258 431 c 0
 336 431 390 401 438 335 c 1xdc
258 390 m 0xdc
 158 390 81 316 81 220 c 0
 81 126 158 50 258 50 c 0
 358 50 438 126 438 219 c 0
 438 316 360 390 258 390 c 0xdc
EndSplineSet
KernsSLIF: 117 101 0 0 99 -6 0 0
EndChar
StartChar: r
Encoding: 114 114 83
Width: 600
Flags: W
HStem: 0 41<94 190 230 419> 343 85<432 512> 376 42<104.312 190> 385 43<432 440>
VStem: 190 40<40 263 41 418>
Fore
230 418 m 1xa8
 230 316 l 1
 325 399 382 428 432 428 c 0
 462 428 484 418 512 396 c 0
 528 382 534 374 534 365 c 0
 534 354 524 343 512 343 c 0xc8
 506 343 504 344 496 352 c 0
 472 374 454 385 432 385 c 0x98
 386 385 342 363 230 263 c 1
 230 41 l 1
 410 41 l 2
 426 41 438 33 438 19 c 0
 438 8 426 0 410 0 c 2
 94 0 l 2
 76 0 66 8 66 20 c 0
 66 33 76 41 94 41 c 2
 190 41 l 1
 190 376 l 1
 114 376 l 2
 96 376 86 384 86 396 c 0
 86 409 96 418 114 418 c 2
 230 418 l 1xa8
EndSplineSet
KernsSLIF: 122 -46 0 0 121 30 0 0 120 6 0 0 119 59 0 0 118 59 0 0 117 36 0 0 116 36 0 0 59 -169 0 0 115 -59 0 0 114 -30 0 0 39 -89 0 0 113 -24 0 0 46 -304 0 0 112 67 0 0 249 -46 0 0 353 -46 0 0 250 45 0 0 351 -46 0 0 354 -46 0 0 352 -46 0 0 111 -46 0 0 110 14 0 0 109 78 0 0 108 -113 0 0 107 -68 0 0 106 -85 0 0 105 -67 0 0 45 -296 0 0 104 -46 0 0 103 -24 0 0 102 -45 0 0 336 -28 0 0 337 -28 0 0 335 -28 0 0 101 -28 0 0 100 -34 0 0 44 -237 0 0 58 -201 0 0 332 -67 0 0 99 -59 0 0 328 -46 0 0 324 -46 0 0 241 14 0 0 322 -46 0 0 325 -46 0 0 323 -46 0 0 97 -46 0 0
EndChar
StartChar: s
Encoding: 115 115 84
Width: 600
Flags: W
HStem: -16 41<279 318> 0 137<124 126> 292 126<454 456> 390 41<279 318>
VStem: 104 41<27 119> 124 44<314 324> 450 46<116 118>
Fore
432 385 m 1x96
 432 390 l 2x96
 432 407 440 418 454 418 c 0x26
 464 418 472 407 472 390 c 2x16
 472 321 l 2
 472 302 464 292 454 292 c 0x26
 440 292 434 300 432 316 c 0
 428 360 374 390 298 390 c 0
 224 390 168 358 168 316 c 0x16
 168 299 178 281 200 269 c 0
 222 256 230 253 316 245 c 1
 376 237 414 226 446 206 c 1
 478 184 496 151 496 116 c 0
 496 39 414 -16 300 -16 c 0
 236 -16 186 2 145 38 c 1
 145 27 l 2x9a
 145 8 136 0 124 0 c 0x46
 110 0 104 8 104 27 c 2
 104 110 l 2x4a
 104 127 110 137 124 137 c 0x46
 134 137 145 127 145 115 c 2
 145 108 l 2x4a
 145 61 214 25 298 25 c 0
 384 25 450 64 450 116 c 0
 450 140 434 165 406 179 c 1
 382 193 354 201 300 208 c 1
 226 215 198 222 170 239 c 1
 142 258 124 286 124 318 c 0
 124 384 196 431 296 431 c 0
 352 431 396 417 432 385 c 1x96
EndSplineSet
KernsSLIF: 116 -30 0 0 39 -117 0 0
EndChar
StartChar: t
Encoding: 116 116 85
Width: 600
Flags: W
HStem: -16 41<311 345> 376 42<90.892 176 217 441> 543 20G<189 203>
VStem: 176 41<95 376 417 545>
Fore
217 418 m 1
 436 418 l 2
 454 418 464 410 464 396 c 0
 464 384 454 376 436 376 c 2
 217 376 l 1
 217 108 l 2
 217 58 258 25 328 25 c 0
 384 25 454 42 494 66 c 0
 502 71 506 72 512 72 c 0
 520 72 528 61 528 50 c 0
 528 22 416 -16 330 -16 c 0
 234 -16 176 31 176 107 c 2
 176 376 l 1
 102 376 l 2
 82 376 72 384 72 396 c 0
 72 410 82 418 102 418 c 2
 176 418 l 1
 176 536 l 2
 176 553 182 563 196 563 c 0
 210 563 217 555 217 536 c 2
 217 418 l 1
EndSplineSet
KernsSLIF: 59 -197 0 0 39 -229 0 0 351 -91 0 0 352 -91 0 0 111 -91 0 0 104 -14 0 0 335 -89 0 0 101 -89 0 0 58 -247 0 0 328 -46 0 0 241 18 0 0 322 -46 0 0 323 -46 0 0 97 -46 0 0 83 -85 0 0
EndChar
StartChar: u
Encoding: 117 117 86
Width: 600
Flags: W
HStem: -16 41<257 275> 0 41<489 531> 376 42<68.892 133 374 448>
VStem: 132 41<115 376> 448 42<0 418> 448 102<0 27>
Fore
448 0 m 1x78
 448 66 l 1
 392 13 330 -16 266 -16 c 0
 186 -16 132 36 132 115 c 2
 132 376 l 1
 80 376 l 2
 60 376 50 384 50 396 c 0
 50 410 60 418 80 418 c 2
 173 418 l 1
 173 115 l 2
 173 66 212 25 264 25 c 0xb8
 330 25 392 55 448 115 c 1
 448 376 l 1
 374 376 l 2
 354 376 346 384 346 396 c 0
 346 410 354 418 374 418 c 2
 490 418 l 1
 490 41 l 1x78
 522 41 l 2
 540 41 550 35 550 20 c 0x74
 550 8 540 0 522 0 c 2
 448 0 l 1x78
EndSplineSet
KernsSLIF: 39 -91 0 0
EndChar
StartChar: v
Encoding: 118 118 87
Width: 600
Flags: W
HStem: 0 41<291 336> 376 42<46.1093 98 56 210 392 458 392 544>
VStem: 30 206<396 401> 364 206<396 401>
DStem: 98 376 142 376 266 0 292 41 458 376 502 376 310 41 336 0
Fore
336 0 m 1
 266 0 l 1
 98 376 l 1
 56 376 l 2
 38 376 30 384 30 396 c 0
 30 410 38 418 56 418 c 2
 208 418 l 2
 226 418 236 410 236 396 c 0
 236 384 226 376 208 376 c 2
 142 376 l 1
 292 41 l 1
 310 41 l 1
 458 376 l 1
 392 376 l 2
 372 376 364 384 364 396 c 0
 364 410 372 418 392 418 c 2
 542 418 l 2
 560 418 570 410 570 396 c 0
 570 384 560 376 542 376 c 2
 502 376 l 1
 336 0 l 1
EndSplineSet
KernsSLIF: 59 -148 0 0 115 -46 0 0 46 -340 0 0 249 -46 0 0 353 -46 0 0 351 -46 0 0 352 -46 0 0 111 -46 0 0 108 -201 0 0 45 -59 0 0 103 -24 0 0 336 -30 0 0 337 -30 0 0 335 -30 0 0 101 -30 0 0 44 -273 0 0 58 -174 0 0 99 -59 0 0 327 -14 0 0 328 -14 0 0 324 -14 0 0 241 46 0 0 322 -14 0 0 325 -14 0 0 323 -14 0 0 97 -14 0 0
EndChar
StartChar: w
Encoding: 119 119 88
Width: 600
Flags: W
HStem: 0 21G<158 210 392 440> 376 42<46.1093 76 56 175 421.111 479 430 544>
VStem: 30 165<396 401> 406 165<396 401>
DStem: 76 376 114 376 158 0 186 57 274 311 300 258 186 57 210 0 300 258 324 311 392 0 412 57 480 376 524 376 412 57 440 0
Fore
440 0 m 1
 392 0 l 1
 300 258 l 1
 210 0 l 1
 158 0 l 1
 76 376 l 1
 56 376 l 2
 38 376 30 384 30 396 c 0
 30 410 38 418 56 418 c 2
 168 418 l 2
 186 418 195 410 195 396 c 0
 195 384 186 376 168 376 c 2
 114 376 l 1
 186 57 l 1
 274 311 l 1
 324 311 l 1
 412 57 l 1
 480 376 l 1
 430 376 l 2
 414 376 406 384 406 396 c 0
 406 410 414 418 430 418 c 2
 542 418 l 2
 560 418 571 410 571 396 c 0
 571 384 560 376 542 376 c 2
 524 376 l 1
 440 0 l 1
EndSplineSet
KernsSLIF: 59 -148 0 0 115 -45 0 0 46 -230 0 0 249 -6 0 0 353 -14 0 0 351 -14 0 0 352 -14 0 0 111 -14 0 0 108 -120 0 0 45 2 0 0 103 -6 0 0 336 -2 0 0 337 -2 0 0 335 -2 0 0 101 -2 0 0 44 -170 0 0 58 -174 0 0 99 -21 0 0 327 -14 0 0 328 -14 0 0 324 -14 0 0 241 46 0 0 322 -14 0 0 325 -14 0 0 323 -14 0 0 97 -14 0 0
EndChar
StartChar: x
Encoding: 120 120 89
Width: 600
Flags: W
HStem: 0 41<78 88 144 214 390 454 513 531> 376 42<102 108 102 214 390 438 390 500>
VStem: 50 187<20 22> 74 165<396 401> 362 163<396 401> 364 186<20 22>
DStem: 108 376 168 376 270 219 300 247 270 219 300 190 88 41 144 41 300 190 330 219 454 41 514 41 438 376 492 376 300 247 330 219
Fore
330 219 m 1xd8
 514 41 l 1
 522 41 l 2
 540 41 550 35 550 20 c 0
 550 8 540 0 522 0 c 2
 390 0 l 2
 374 0 364 8 364 20 c 0
 364 35 374 41 390 41 c 2
 454 41 l 1
 300 190 l 1
 144 41 l 1
 212 41 l 2
 230 41 237 35 237 20 c 0
 237 8 230 0 212 0 c 2
 78 0 l 2
 60 0 50 8 50 20 c 0xe4
 50 35 60 41 78 41 c 2
 88 41 l 1
 270 219 l 1
 108 376 l 1
 102 376 l 2
 82 376 74 384 74 396 c 0
 74 410 82 418 102 418 c 2
 212 418 l 2
 232 418 239 412 239 396 c 0
 239 384 232 376 212 376 c 2
 168 376 l 1
 300 247 l 1
 438 376 l 1
 390 376 l 2
 372 376 362 384 362 396 c 0
 362 410 372 418 390 418 c 2
 498 418 l 2
 518 418 525 410 525 396 c 0
 525 384 518 376 498 376 c 2
 492 376 l 1
 330 219 l 1xd8
EndSplineSet
KernsSLIF: 113 -73 0 0 111 -59 0 0 335 -59 0 0 101 -59 0 0 99 -68 0 0 97 -6 0 0
EndChar
StartChar: y
Encoding: 121 121 90
Width: 600
Flags: W
HStem: -186 41<84 213 254 323> 376 42<67.8897 94 78 196 402.873 466 412 531>
VStem: 50 170<396 398> 386 164<396 398>
DStem: 94 376 142 376 282 0 306 46 282 0 508 376 212 -145 254 -145 466 376 508 376 306 46 254 -145
Fore
282 0 m 1
 94 376 l 1
 78 376 l 2
 60 376 50 384 50 396 c 0
 50 410 60 418 78 418 c 2
 194 418 l 2
 212 418 220 410 220 396 c 0
 220 384 212 376 194 376 c 2
 142 376 l 1
 306 46 l 1
 466 376 l 1
 412 376 l 2
 396 376 386 384 386 396 c 0
 386 410 396 418 412 418 c 2
 522 418 l 2
 540 418 550 410 550 396 c 0
 550 384 540 376 522 376 c 2
 508 376 l 1
 254 -145 l 1
 316 -145 l 2
 336 -145 344 -151 344 -165 c 0
 344 -178 336 -186 316 -186 c 2
 84 -186 l 2
 66 -186 58 -178 58 -165 c 0
 58 -151 66 -145 84 -145 c 2
 212 -145 l 1
 282 0 l 1
EndSplineSet
KernsSLIF: 59 -174 0 0 115 -73 0 0 46 -353 0 0 249 -74 0 0 353 -74 0 0 351 -74 0 0 352 -74 0 0 111 -74 0 0 108 -229 0 0 45 -59 0 0 103 -46 0 0 336 -59 0 0 337 -59 0 0 335 -59 0 0 101 -59 0 0 44 -286 0 0 58 -201 0 0 99 -85 0 0 327 -36 0 0 328 -36 0 0 324 -36 0 0 241 21 0 0 322 -36 0 0 325 -36 0 0 323 -36 0 0 97 -36 0 0
EndChar
StartChar: z
Encoding: 122 122 91
Width: 600
Flags: W
HStem: 0 41<170 487> 0 124<463 487> 376 42<122 416>
VStem: 122 41<322 376> 446 41<41 99>
DStem: 416 376 474 381 112 36 170 41
Fore
474 418 m 1x78
 474 381 l 1
 170 41 l 1
 446 41 l 1xb8
 446 97 l 2
 446 115 452 124 468 124 c 0x78
 480 124 487 115 487 97 c 2
 487 0 l 1xb8
 112 0 l 1
 112 36 l 1
 416 376 l 1
 163 376 l 1
 163 322 l 2
 163 303 156 294 144 294 c 0
 130 294 122 303 122 322 c 2
 122 418 l 1
 474 418 l 1x78
EndSplineSet
EndChar
StartChar: braceleft
Encoding: 123 123 92
Width: 600
Flags: W
HStem: 584 20G<352 388>
VStem: 282 40<-19 165 327 500>
Fore
322 498 m 2
 322 327 l 2
 322 285 310 264 278 241 c 1
 310 215 322 195 322 154 c 2
 322 -19 l 2
 322 -53 344 -80 376 -82 c 1
 396 -85 404 -90 404 -104 c 0
 404 -116 396 -124 380 -124 c 0
 324 -124 282 -77 282 -19 c 2
 282 154 l 2
 282 190 258 215 220 219 c 0
 204 220 196 226 196 241 c 0
 196 253 204 259 220 261 c 0
 258 264 282 289 282 327 c 2
 282 498 l 2
 282 558 324 604 380 604 c 0
 396 604 404 596 404 583 c 0
 404 571 396 566 376 563 c 0
 344 560 322 533 322 498 c 2
EndSplineSet
EndChar
StartChar: bar
Encoding: 124 124 93
Width: 600
Flags: W
HStem: 584 20G<293 306>
VStem: 280 41<-106.608 581>
Fore
321 577 m 2
 321 -97 l 2
 321 -115 312 -124 300 -124 c 0
 286 -124 280 -115 280 -97 c 2
 280 577 l 2
 280 594 286 604 300 604 c 0
 312 604 321 594 321 577 c 2
EndSplineSet
EndChar
StartChar: braceright
Encoding: 125 125 94
Width: 600
Flags: W
HStem: 584 20G<213 248>
VStem: 278 41<-19 165 327 500>
Fore
278 -19 m 2
 278 154 l 2
 278 195 290 215 322 241 c 1
 290 264 278 285 278 327 c 2
 278 498 l 2
 278 533 256 560 224 563 c 0
 204 566 196 571 196 583 c 0
 196 596 206 604 220 604 c 0
 276 604 319 558 319 498 c 2
 319 327 l 2
 319 289 344 264 380 261 c 0
 396 259 404 253 404 241 c 0
 404 226 396 220 380 219 c 0
 344 215 319 190 319 154 c 2
 319 -19 l 2
 319 -77 276 -124 220 -124 c 0
 206 -124 196 -116 196 -104 c 0
 196 -90 204 -85 224 -82 c 1
 256 -80 278 -53 278 -19 c 2
EndSplineSet
EndChar
StartChar: asciitilde
Encoding: 126 126 95
Width: 600
Flags: W
HStem: 212 41<379 392> 307 42<212 221>
Fore
486 330 m 0
 498 330 508 322 508 311 c 0
 508 303 500 291 482 270 c 0
 450 231 420 212 390 212 c 0
 356 212 336 225 274 277 c 1
 246 297 230 307 212 307 c 0
 186 307 174 299 130 242 c 0
 124 233 120 231 110 231 c 0
 100 231 92 239 92 248 c 0
 92 258 98 270 120 294 c 0
 154 332 178 349 212 349 c 0
 244 349 258 340 312 297 c 0
 356 261 368 253 384 253 c 0
 410 253 434 269 458 305 c 0
 474 327 478 330 486 330 c 0
EndSplineSet
EndChar
StartChar: exclamdown
Encoding: 161 161 96
Width: 600
Flags: W
HStem: 316 102<294 309>
VStem: 280 40<165 176.667>
Fore
262 -162 m 1
 280 165 l 1
 280 184 286 193 300 193 c 0
 314 193 320 184 320 165 c 1
 338 -162 l 1
 340 -168 340 -173 340 -178 c 0
 340 -200 320 -215 300 -215 c 0
 278 -215 260 -200 260 -178 c 0
 260 -175 260 -168 262 -162 c 1
306 316 m 2
 294 316 l 2
 264 316 240 338 240 366 c 0
 240 395 264 418 294 418 c 2
 306 418 l 2
 338 418 360 395 360 366 c 0
 360 338 338 316 306 316 c 2
EndSplineSet
EndChar
StartChar: cent
Encoding: 162 162 97
Width: 600
Flags: W
HStem: -13 178<306 316> 365 113<452 462> 458 39<320 333> 458 173<306 320>
VStem: 122 41<292.562 324> 288 42<4.39295 127 496 612> 436 38<385 392>
Fore
288 497 m 1xae
 288 604 l 2
 288 621 294 631 308 631 c 0x9e
 322 631 330 621 330 604 c 2
 330 497 l 1xae
 367 497 410 483 434 461 c 1
 436 472 442 478 454 478 c 0
 468 478 474 469 474 453 c 2
 474 392 l 2
 474 373 468 365 456 365 c 0xce
 442 365 436 371 436 387 c 1
 430 429 384 458 320 458 c 0
 230 458 163 396 163 311 c 0
 163 226 228 165 316 165 c 0
 364 165 408 179 440 208 c 1
 450 214 452 215 460 215 c 0
 470 215 478 208 478 195 c 0
 478 168 397 131 330 127 c 1
 330 14 l 2
 330 -3 322 -13 308 -13 c 0
 294 -13 288 -3 288 14 c 2
 288 127 l 1
 192 138 122 215 122 311 c 0
 122 373 152 428 202 464 c 1
 226 478 246 487 288 497 c 1xae
EndSplineSet
EndChar
StartChar: sterling
Encoding: 163 163 98
Width: 600
Flags: W
HStem: 0 39<106 112 182 438> 0 115<436 500> 274 40<110 182 224 344> 536 41<298 307>
VStem: 156 40<417.11 449> 196 41<207 241>
Fore
182 41 m 1xbc
 434 41 l 2
 458 41 476 60 480 93 c 1
 480 108 486 115 500 115 c 0x7c
 512 115 518 105 518 93 c 0
 518 42 480 0 436 0 c 2
 112 0 l 2
 94 0 86 8 86 20 c 0
 86 31 92 39 108 39 c 0
 156 42 196 127 196 220 c 0
 196 237 196 259 192 274 c 1
 110 274 l 2
 92 274 82 280 82 294 c 0
 82 307 92 314 110 314 c 2
 182 314 l 1
 162 381 156 409 156 434 c 0
 156 514 220 577 298 577 c 0
 332 577 366 566 396 539 c 0
 414 522 428 505 428 495 c 0
 428 486 416 476 406 476 c 0
 400 476 396 480 390 487 c 0
 360 522 332 536 298 536 c 0
 244 536 196 491 196 434 c 0
 196 412 200 396 220 327 c 2
 220 327 222 322 224 314 c 1
 342 314 l 2
 362 314 370 307 370 292 c 0
 370 280 362 274 342 274 c 2
 234 274 l 1
 236 253 237 234 237 215 c 0
 237 148 218 88 182 41 c 1xbc
EndSplineSet
EndChar
StartChar: fraction
Encoding: 164 8260 99
Width: 600
Flags: W
DStem: 514 464 536 429 66 179 88 146
Fore
536 429 m 1
 88 146 l 1
 82 143 l 1
 80 140 74 138 72 138 c 0
 60 138 50 148 50 159 c 0
 50 168 54 173 66 179 c 1
 514 464 l 1
 520 469 526 470 530 470 c 0
 540 470 550 461 550 450 c 0
 550 442 546 437 536 429 c 1
EndSplineSet
EndChar
StartChar: yen
Encoding: 165 165 100
Width: 600
Flags: W
HStem: 0 41<194 280 322 414> 142 36<152 280 322 454> 237 38<152 266 334 454> 522 41<67.8057 102 78 196 412 451 412 531>
VStem: 50 165<542 544> 280 42<40 142 177 237> 386 164<542 544>
DStem: 102 522 150 522 266 275 300 296 452 522 498 522 300 296 334 275
Fore
322 237 m 1
 322 178 l 1
 452 178 l 2
 468 178 474 173 474 160 c 0
 474 146 468 142 452 142 c 2
 322 142 l 1
 322 41 l 1
 408 41 l 2
 426 41 434 35 434 20 c 0
 434 8 426 0 408 0 c 2
 194 0 l 2
 176 0 168 8 168 20 c 0
 168 35 176 41 194 41 c 2
 280 41 l 1
 280 142 l 1
 152 142 l 2
 134 142 128 146 128 160 c 0
 128 173 134 178 152 178 c 2
 280 178 l 1
 280 237 l 1
 152 237 l 2
 134 237 128 242 128 258 c 0
 128 269 134 275 152 275 c 2
 266 275 l 1
 102 522 l 1
 78 522 l 2
 60 522 50 530 50 542 c 0
 50 557 60 563 78 563 c 2
 190 563 l 2
 206 563 215 557 215 542 c 0
 215 530 206 522 190 522 c 2
 150 522 l 1
 300 296 l 1
 452 522 l 1
 412 522 l 2
 396 522 386 530 386 542 c 0
 386 557 396 563 412 563 c 2
 522 563 l 2
 540 563 550 557 550 542 c 0
 550 530 540 522 522 522 c 2
 498 522 l 1
 334 275 l 1
 452 275 l 2
 470 275 474 269 474 258 c 0
 474 242 470 237 452 237 c 2
 322 237 l 1
EndSplineSet
EndChar
StartChar: florin
Encoding: 166 402 101
Width: 600
Flags: W
HStem: -93 41<153 182> 333 41<180 276 318 421> 577 41<413 442>
VStem: 276 42<50 333 373 468>
Fore
318 374 m 1
 414 374 l 2
 430 374 440 368 440 355 c 0
 440 341 430 333 414 333 c 2
 318 333 l 1
 318 58 l 2
 318 -25 252 -93 170 -93 c 0
 146 -93 112 -86 96 -77 c 0
 86 -72 84 -66 84 -60 c 0
 84 -49 90 -39 100 -39 c 0
 106 -39 108 -39 134 -47 c 0
 142 -50 158 -52 172 -52 c 0
 232 -52 276 -3 276 64 c 2
 276 333 l 1
 180 333 l 2
 162 333 154 341 154 355 c 0
 154 368 162 374 180 374 c 2
 276 374 l 1
 276 462 l 2
 276 549 342 618 428 618 c 0
 452 618 482 613 500 604 c 0
 510 599 516 594 516 586 c 0
 516 575 504 566 494 566 c 0
 492 566 492 566 472 572 c 0
 462 575 442 577 430 577 c 0
 362 577 318 530 318 462 c 2
 318 374 l 1
EndSplineSet
EndChar
StartChar: section
Encoding: 167 167 102
Width: 600
Flags: W
HStem: -61 39<144 322> -61 133<124 310> 470 134<284 483> 563 41<272 454>
VStem: 66 42<354 360> 104 41<-61 55> 158 39<487 496> 404 41<47 55> 454 43<494 563> 492 43<184 186>
DStem: 208 211 234 242 274 175 296 208 320 327 344 358 384 289 400 327
Fore
497 604 m 1x1b80
 497 494 l 2
 497 480 488 470 476 470 c 0x2b80
 464 470 454 480 454 494 c 2
 454 563 l 1x1b80
 286 563 l 2
 236 563 197 528 197 487 c 0
 197 450 226 423 344 358 c 2
 400 327 l 2
 494 275 535 234 535 184 c 0x1340
 535 159 520 137 497 121 c 0
 481 110 464 105 432 101 c 1
 440 86 445 72 445 52 c 0
 445 -13 388 -61 310 -61 c 2x9380
 104 -61 l 1
 104 49 l 2
 104 64 112 72 126 72 c 0x4780
 140 72 145 64 145 49 c 2
 145 -22 l 1x8780
 310 -22 l 2
 364 -22 404 11 404 53 c 0
 404 88 368 121 274 175 c 1
 208 211 l 2
 110 266 66 311 66 358 c 0
 66 403 106 436 168 440 c 1
 160 456 158 469 158 487 c 0
 158 550 214 604 284 604 c 2xab
 497 604 l 1x1b80
384 289 m 1
 320 327 l 1
 256 360 228 379 200 403 c 1
 194 401 194 401 184 401 c 0
 142 401 108 384 108 357 c 0
 108 327 150 289 234 242 c 2
 296 208 l 2
 350 178 382 157 400 140 c 1
 404 142 404 142 418 142 c 0
 464 143 492 159 492 184 c 0x0b40
 492 214 450 255 384 289 c 1
EndSplineSet
EndChar
StartChar: currency
Encoding: 168 164 103
Width: 600
Flags: W
HStem: 127 41<300 313> 418 40<300 313>
VStem: 134 41<292 303> 422 42<285 303>
DStem: 114 450 142 478 168 395 198 423 170 190 200 162 114 135 142 105 400 162 430 190 458 105 486 135 458 478 486 450 400 423 432 395
Fore
200 162 m 1
 142 105 l 2
 134 97 130 94 124 94 c 0
 112 94 104 104 104 115 c 0
 104 123 104 127 114 135 c 1
 170 190 l 1
 146 223 134 256 134 292 c 0
 134 329 146 366 168 395 c 1
 114 450 l 1
 104 458 104 462 104 469 c 0
 104 481 112 489 122 489 c 0
 130 489 134 486 142 478 c 2
 198 423 l 1
 226 447 262 458 300 458 c 0
 338 458 374 445 400 423 c 1
 458 478 l 1
 464 487 470 489 476 489 c 0
 486 489 496 481 496 469 c 0
 496 461 496 459 486 450 c 1
 432 395 l 1
 454 362 464 329 464 292 c 0
 464 256 454 220 430 190 c 1
 486 135 l 2
 492 129 496 121 496 115 c 0
 496 104 486 94 476 94 c 0
 470 94 464 99 458 105 c 2
 400 162 l 1
 368 138 338 127 300 127 c 0
 262 127 230 140 200 162 c 1
300 418 m 0
 230 418 175 360 175 292 c 0
 175 225 230 168 300 168 c 0
 366 168 422 225 422 291 c 0
 422 360 368 418 300 418 c 0
EndSplineSet
EndChar
StartChar: quotesingle
Encoding: 169 39 104
Width: 600
Flags: W
HStem: 584 20G<236 364>
Fore
236 604 m 1
 364 604 l 1
 330 351 l 1
 326 327 318 316 300 316 c 0
 280 316 274 327 268 351 c 1
 236 604 l 1
EndSplineSet
EndChar
StartChar: quotedblleft
Encoding: 170 8220 105
Width: 600
Flags: W
Fore
218 368 m 1
 94 368 l 1
 230 607 l 1
 238 623 248 629 260 629 c 0
 276 629 290 616 290 604 c 0
 290 599 288 596 286 593 c 1
 218 368 l 1
434 368 m 1
 310 368 l 1
 448 607 l 1
 454 623 464 629 476 629 c 0
 492 629 506 616 506 604 c 0
 506 599 506 596 504 593 c 1
 434 368 l 1
EndSplineSet
KernsSLIF: 89 -85 1 0 87 -6 1 0 86 -34 1 0 84 -89 1 0 262 -145 1 0 256 -145 1 0 257 -145 1 0 225 -125 1 0 65 -145 1 0
EndChar
StartChar: guillemotleft
Encoding: 171 171 106
Width: 600
Flags: W
Fore
60 252 m 1
 268 448 l 1
 278 456 284 459 290 459 c 0
 302 459 308 450 308 439 c 0
 308 432 308 429 298 418 c 2
 156 252 l 1
 298 82 l 1
 308 72 308 69 308 61 c 0
 308 50 302 42 290 42 c 0
 284 42 278 46 268 53 c 1
 60 252 l 1
290 252 m 1
 498 448 l 2
 506 456 512 459 518 459 c 0
 530 459 540 450 540 439 c 0
 540 432 536 429 528 418 c 1
 384 252 l 1
 528 82 l 2
 536 72 540 69 540 61 c 0
 540 50 530 42 518 42 c 0
 512 42 506 46 498 53 c 2
 290 252 l 1
EndSplineSet
EndChar
StartChar: guilsinglleft
Encoding: 172 8249 107
Width: 600
Flags: W
Fore
174 252 m 1
 384 448 l 2
 392 456 398 459 406 459 c 0
 416 459 426 450 426 439 c 0
 426 432 426 429 414 418 c 1
 270 252 l 1
 414 82 l 1
 426 72 426 69 426 61 c 0
 426 50 416 42 406 42 c 0
 398 42 392 46 384 53 c 2
 174 252 l 1
EndSplineSet
EndChar
StartChar: guilsinglright
Encoding: 173 8250 108
Width: 600
Flags: W
Fore
424 252 m 1
 218 53 l 2
 210 46 204 42 198 42 c 0
 184 42 176 52 176 63 c 0
 176 71 176 72 188 82 c 1
 330 252 l 1
 188 420 l 1
 176 431 176 434 176 440 c 0
 176 451 184 461 198 461 c 0
 202 461 210 456 218 450 c 1
 424 252 l 1
EndSplineSet
KernsSLIF: 89 -280 1 0 87 -68 1 0 86 -174 1 0 84 -296 1 0 262 -101 1 0 256 -101 1 0 257 -101 1 0 225 -91 1 0 65 -101 1 0
EndChar
StartChar: fi
Encoding: 174 64257 109
Width: 600
Flags: W
HStem: 0 41<26.5731 120 162 234 368 442 482 569> 376 42<42 120 162 442> 517 110<438 466> 563 41<224 234>
VStem: 120 42<40 376 417 481> 442 41<40 418>
Fore
483 418 m 1xdc
 483 41 l 1
 562 41 l 2
 582 41 592 35 592 20 c 0
 592 8 582 0 562 0 c 2
 368 0 l 2
 352 0 344 8 344 20 c 0
 344 35 352 41 368 41 c 2
 442 41 l 1
 442 376 l 1
 162 376 l 1
 162 41 l 1
 232 41 l 2
 252 41 258 35 258 20 c 0
 258 8 252 0 232 0 c 2
 36 0 l 2
 20 0 8 8 8 20 c 0
 8 35 20 41 36 41 c 2
 120 41 l 1
 120 376 l 1
 42 376 l 2
 24 376 16 384 16 396 c 0
 16 410 24 418 42 418 c 2
 120 418 l 1
 120 476 l 2
 120 547 168 604 226 604 c 0
 246 604 282 597 302 588 c 0
 310 585 318 577 318 569 c 0
 318 558 310 549 298 549 c 0
 296 549 296 549 286 552 c 0
 258 560 242 563 228 563 c 0
 190 563 162 525 162 476 c 2
 162 418 l 1
 483 418 l 1xdc
438 627 m 2xec
 464 627 l 2
 476 627 483 619 483 601 c 2
 483 544 l 2
 483 525 476 517 464 517 c 2
 438 517 l 2
 426 517 418 525 418 544 c 2
 418 601 l 2
 418 619 426 627 438 627 c 2xec
EndSplineSet
Ligature: 0 0 'liga' f i
EndChar
StartChar: fl
Encoding: 175 64258 110
Width: 600
Flags: W
HStem: 0 41<26.7963 120 163 236 366 442 483 571> 376 42<44 120 163 236> 563 41<228 442>
VStem: 120 43<40 376 417 481> 442 42<40 604>
Fore
484 604 m 1
 484 41 l 1
 562 41 l 2
 578 41 590 35 590 20 c 0
 590 8 578 0 562 0 c 2
 366 0 l 2
 348 0 340 8 340 20 c 0
 340 35 348 41 366 41 c 2
 442 41 l 1
 442 563 l 1
 228 563 l 2
 192 563 163 525 163 476 c 2
 163 418 l 1
 234 418 l 2
 254 418 260 410 260 396 c 0
 260 384 254 376 234 376 c 2
 163 376 l 1
 163 41 l 1
 234 41 l 2
 254 41 260 35 260 20 c 0
 260 8 252 0 234 0 c 2
 36 0 l 2
 20 0 10 8 10 20 c 0
 10 35 20 41 36 41 c 2
 120 41 l 1
 120 376 l 1
 44 376 l 2
 26 376 18 384 18 396 c 0
 18 410 26 418 44 418 c 2
 120 418 l 1
 120 476 l 2
 120 547 170 604 228 604 c 2
 484 604 l 1
EndSplineSet
Ligature: 0 0 'liga' f l
EndChar
StartChar: endash
Encoding: 177 8211 111
Width: 600
Flags: W
HStem: 261 41<89.8057 504>
Fore
502 261 m 2
 100 261 l 2
 82 261 72 269 72 281 c 0
 72 296 82 302 100 302 c 2
 502 302 l 2
 520 302 528 296 528 281 c 0
 528 269 520 261 502 261 c 2
EndSplineSet
EndChar
StartChar: dagger
Encoding: 178 8224 112
Width: 600
Flags: W
HStem: 376 42<145 280 320 450> 584 20G<293 307>
VStem: 280 41<-46.1255 376 417 579>
Fore
321 376 m 1
 321 -36 l 2
 321 -53 314 -63 300 -63 c 0
 286 -63 280 -53 280 -36 c 2
 280 376 l 1
 152 376 l 2
 134 376 124 384 124 396 c 0
 124 403 128 410 134 414 c 1
 134 415 134 415 146 418 c 1
 152 418 l 1
 280 418 l 1
 280 577 l 2
 280 594 286 604 300 604 c 0
 314 604 321 594 321 577 c 2
 321 418 l 1
 448 418 l 2
 468 418 476 410 476 396 c 0
 476 384 468 376 448 376 c 2
 321 376 l 1
EndSplineSet
EndChar
StartChar: daggerdbl
Encoding: 179 8225 113
Width: 600
Flags: W
HStem: 124 41<152 280 321 450> 376 42<145 280 321 450> 584 20G<293 307>
VStem: 280 41<-35 124 164 376 417 579>
Fore
321 376 m 1
 321 165 l 1
 448 165 l 2
 468 165 476 157 476 145 c 0
 476 131 468 124 448 124 c 2
 321 124 l 1
 321 -35 l 2
 321 -53 314 -61 300 -61 c 0
 286 -61 280 -53 280 -35 c 2
 280 124 l 1
 152 124 l 2
 134 124 124 131 124 145 c 0
 124 157 134 165 152 165 c 2
 280 165 l 1
 280 376 l 1
 152 376 l 2
 134 376 124 384 124 396 c 0
 124 403 128 410 134 414 c 1
 134 415 134 415 146 418 c 1
 152 418 l 1
 280 418 l 1
 280 577 l 2
 280 594 286 604 300 604 c 0
 314 604 321 594 321 577 c 2
 321 418 l 1
 448 418 l 2
 468 418 476 410 476 396 c 0
 476 384 468 376 448 376 c 2
 321 376 l 1
EndSplineSet
EndChar
StartChar: periodcentered
Encoding: 180 183 114
Width: 600
Flags: W
Fore
296 349 m 2
 306 349 l 2
 344 349 374 321 374 283 c 0
 374 245 344 217 306 217 c 2
 296 217 l 2
 256 217 226 247 226 283 c 0
 226 321 256 349 296 349 c 2
EndSplineSet
EndChar
StartChar: paragraph
Encoding: 182 182 115
Width: 600
Flags: W
HStem: -61 41<170.573 276 439 507> 563 41<290 398 290 507>
VStem: 74 40<402 452> 276 41<-21 563> 378 149<-41 -39> 398 41<-21 563>
Fore
439 563 m 1xf4
 439 -20 l 1xf4
 500 -20 l 2
 518 -20 527 -28 527 -41 c 0
 527 -55 518 -61 500 -61 c 2
 402 -61 l 2
 386 -61 378 -53 378 -41 c 0xf8
 378 -30 386 -22 398 -20 c 1
 398 563 l 1
 317 563 l 1
 317 -20 l 1
 328 -22 338 -30 338 -41 c 0
 338 -55 328 -61 312 -61 c 2
 180 -61 l 2
 164 -61 152 -53 152 -41 c 0
 152 -28 162 -20 180 -20 c 2
 276 -20 l 1
 276 259 l 1
 230 263 194 270 164 285 c 1
 106 310 74 365 74 414 c 2
 74 443 l 2
 74 528 156 604 290 604 c 2
 498 604 l 2
 516 604 526 596 526 583 c 0
 526 572 516 563 498 563 c 2
 439 563 l 1xf4
276 300 m 1
 276 307 l 1
 276 563 l 1
 198 572 114 516 114 440 c 2
 114 415 l 2
 114 346 202 294 276 300 c 1
EndSplineSet
EndChar
StartChar: bullet
Encoding: 183 8226 116
Width: 600
Flags: W
Fore
302 401 m 0
 362 401 414 349 414 289 c 0
 414 226 362 176 300 176 c 0
 238 176 186 226 186 289 c 0
 186 352 238 401 302 401 c 0
EndSplineSet
EndChar
StartChar: quotesinglbase
Encoding: 184 8218 117
Width: 600
Flags: W
Fore
270 145 m 1
 404 145 l 1
 256 -119 l 1
 248 -140 240 -145 228 -145 c 0
 212 -145 196 -132 196 -116 c 0
 196 -112 200 -108 200 -105 c 1
 270 145 l 1
EndSplineSet
EndChar
StartChar: quotedblbase
Encoding: 185 8222 118
Width: 600
Flags: W
Fore
164 145 m 1
 288 145 l 1
 152 -93 l 1
 144 -110 134 -116 122 -116 c 0
 104 -116 92 -104 92 -90 c 0
 92 -88 92 -82 94 -80 c 1
 164 145 l 1
382 145 m 1
 508 145 l 1
 368 -93 l 1
 360 -110 352 -116 338 -116 c 0
 322 -116 310 -104 310 -90 c 2
 310 -80 l 1
 382 145 l 1
EndSplineSet
KernsSLIF: 89 -190 1 0 87 -56 1 0 86 -201 1 0 84 -187 1 0 225 -6 1 0 65 -6 1 0
EndChar
StartChar: quotedblright
Encoding: 186 8221 119
Width: 600
Flags: W
HStem: 584 20G<164 290 382 506>
Fore
164 604 m 1
 290 604 l 1
 154 365 l 1
 144 349 136 343 122 343 c 0
 106 343 94 355 94 369 c 2
 94 379 l 1
 164 604 l 1
382 604 m 1
 506 604 l 1
 370 365 l 1
 360 349 352 343 340 343 c 0
 324 343 310 355 310 369 c 0
 310 373 312 376 314 379 c 1
 382 604 l 1
EndSplineSet
KernsSLIF: 89 -85 1 0 87 -46 1 0 86 -34 1 0 84 -107 1 0 262 -145 1 0 256 -145 1 0 257 -145 1 0 225 -163 1 0 65 -145 1 0
EndChar
StartChar: guillemotright
Encoding: 187 187 120
Width: 600
Flags: W
Fore
308 252 m 1
 102 53 l 2
 94 46 88 42 80 42 c 0
 70 42 60 52 60 63 c 0
 60 71 62 72 72 82 c 1
 212 252 l 1
 72 420 l 2
 62 431 60 434 60 440 c 0
 60 451 70 461 80 461 c 0
 86 461 94 456 102 450 c 1
 308 252 l 1
540 252 m 1
 332 53 l 1
 326 46 318 42 312 42 c 0
 300 42 290 52 290 63 c 0
 290 71 292 72 302 82 c 1
 446 252 l 1
 302 420 l 2
 292 431 290 434 290 440 c 0
 290 451 300 461 312 461 c 0
 318 461 326 456 332 450 c 2
 540 252 l 1
EndSplineSet
KernsSLIF: 89 -280 1 0 87 -68 1 0 86 -174 1 0 84 -296 1 0 262 -101 1 0 256 -101 1 0 257 -101 1 0 225 -91 1 0 65 -101 1 0
EndChar
StartChar: ellipsis
Encoding: 188 8230 121
Width: 600
Flags: W
HStem: -14 21G<87 115 286 314 486 513>
VStem: 50 101<25.3103 38> 250 99<25.1259 38> 450 99<25.3103 38>
Fore
100 83 m 0
 128 83 151 61 151 35 c 0
 151 8 128 -14 102 -14 c 0
 72 -14 50 8 50 35 c 0
 50 61 72 83 100 83 c 0
300 83 m 0
 328 83 349 61 349 35 c 0
 349 8 328 -14 300 -14 c 0
 272 -14 250 8 250 35 c 0
 250 61 272 83 300 83 c 0
500 83 m 0
 528 83 549 61 549 35 c 0
 549 8 526 -14 500 -14 c 0
 472 -14 450 8 450 35 c 0
 450 61 474 83 500 83 c 0
EndSplineSet
Ligature: 0 1 'liga' period period period
EndChar
StartChar: perthousand
Encoding: 189 8240 122
Width: 600
Flags: W
HStem: -8 33<182 184 454 456> 179 35<182 184 454 456> 392 33<133.437 149> 580 35<133.135 149>
VStem: 36 33<490.259 506> 72 33<104 106> 220 33<500 505> 258 34<89.1149 106> 344 34<104 106> 530 34<89.1149 106>
DStem: 486 418 498 388 112 297 124 266
Fore
146 615 m 0
 204 615 253 564 253 502 c 0
 253 440 204 392 146 392 c 0
 84 392 36 440 36 503 c 0
 36 564 84 615 146 615 c 0
146 580 m 0
 102 580 69 546 69 503 c 0
 69 461 102 425 146 425 c 0
 186 425 220 461 220 503 c 0
 220 546 188 580 146 580 c 0
498 388 m 2
 124 266 l 2
 118 264 116 264 110 264 c 0
 104 264 96 272 96 280 c 0
 96 289 102 294 112 297 c 2
 486 418 l 2
 492 420 494 421 498 421 c 0
 506 421 514 412 514 406 c 0
 514 396 508 392 498 388 c 2
182 214 m 0
 242 214 292 164 292 101 c 0
 292 41 242 -8 182 -8 c 0
 124 -8 72 41 72 104 c 0
 72 164 124 214 182 214 c 0
182 179 m 0
 140 179 105 145 105 104 c 0
 105 60 140 25 182 25 c 0
 226 25 258 60 258 102 c 0
 258 146 226 179 182 179 c 0
454 214 m 0
 514 214 564 164 564 101 c 0
 564 41 514 -8 454 -8 c 0
 396 -8 344 41 344 104 c 0
 344 164 396 214 454 214 c 0
454 179 m 0
 412 179 378 145 378 104 c 0
 378 60 412 25 454 25 c 0
 498 25 530 60 530 102 c 0
 530 146 498 179 454 179 c 0
EndSplineSet
EndChar
StartChar: questiondown
Encoding: 191 191 123
Width: 600
Flags: W
HStem: -175 41<288 331> 316 102<296 333>
VStem: 124 41<-20 -14> 290 41<155 199> 436 40<-100 -58>
Fore
290 156 m 1
 290 197 l 2
 290 214 296 223 310 223 c 0
 322 223 331 214 331 197 c 2
 331 127 l 1
 214 80 165 36 165 -20 c 0
 165 -88 224 -134 306 -134 c 0
 352 -134 384 -126 436 -99 c 1
 436 -60 l 2
 436 -41 442 -31 456 -31 c 0
 470 -31 476 -41 476 -60 c 2
 476 -126 l 1
 467 -131 458 -134 448 -140 c 1
 386 -168 354 -175 302 -175 c 0
 194 -175 124 -113 124 -20 c 0
 124 53 164 96 290 156 c 1
324 316 m 2
 296 316 l 2
 264 316 242 338 242 366 c 0
 242 396 264 418 296 418 c 2
 324 418 l 2
 358 418 380 396 380 366 c 0
 380 338 358 316 324 316 c 2
EndSplineSet
EndChar
StartChar: grave
Encoding: 193 96 124
Width: 600
Flags: W
DStem: 230 626 254 657 344 525 370 557
Fore
254 657 m 2
 370 557 l 1
 378 549 l 2
 382 544 382 544 382 538 c 0
 382 525 372 517 360 517 c 0
 356 517 350 519 344 525 c 2
 230 626 l 2
 220 634 218 638 218 646 c 0
 218 657 226 667 236 667 c 0
 244 667 248 662 254 657 c 2
EndSplineSet
EndChar
StartChar: acute
Encoding: 194 180 125
Width: 600
Flags: W
DStem: 344 657 372 626 230 557 256 525
Fore
372 626 m 2
 256 525 l 2
 248 519 244 516 238 516 c 0
 226 516 218 525 218 536 c 0
 218 544 220 547 230 557 c 1
 344 657 l 1
 352 662 356 665 362 665 c 0
 374 665 382 657 382 645 c 0
 382 637 380 634 372 626 c 2
EndSplineSet
Ligature: 0 1 'liga' space acutecomb
EndChar
StartChar: circumflex
Encoding: 195 710 126
Width: 600
Flags: W
DStem: 300 613 300 667 406 525 432 558 300 667 300 613 168 557 192 525 300 613 300 667 406 525 432 558 300 667 300 613 168 557 192 525 300 613 300 667 406 525 432 558 300 667 300 613 168 557 192 525 300 613 300 667 406 525 432 558 300 667 300 613 168 557 192 525 300 613 300 667 406 525 432 558 300 667 300 613 168 557 192 525 300 613 300 667 406 525 432 558 300 667 300 613 168 557 192 525 300 613 300 667 406 525 432 558 300 667 300 613 168 557 192 525
Fore
300 667 m 1
 432 558 l 2
 442 549 444 546 444 536 c 0
 444 525 436 517 424 517 c 0
 420 517 414 519 406 525 c 2
 300 613 l 1
 192 525 l 1
 186 519 178 517 174 517 c 0
 164 517 156 525 156 536 c 0
 156 546 158 550 168 557 c 1
 300 667 l 1
EndSplineSet
EndChar
StartChar: tilde
Encoding: 196 732 127
Width: 600
Flags: W
HStem: 580 21G<356 371>
Fore
434 626 m 0
 446 626 454 616 454 605 c 0
 454 599 452 593 434 575 c 0
 408 549 388 539 366 539 c 0
 344 539 322 546 284 571 c 1
 264 582 254 588 242 588 c 0
 220 588 212 582 182 550 c 0
 178 546 172 542 166 542 c 0
 154 542 146 550 146 561 c 0
 146 569 152 577 164 591 c 1
 194 618 214 627 240 627 c 0
 258 627 270 624 304 605 c 0
 342 583 350 580 362 580 c 0
 380 580 390 588 418 618 c 1
 426 624 428 626 434 626 c 0
EndSplineSet
Ligature: 0 1 'liga' space tildecomb
EndChar
StartChar: macron
Encoding: 197 175 128
Width: 600
Flags: W
HStem: 555 39<182 429>
Fore
418 555 m 2
 182 555 l 2
 164 555 156 561 156 575 c 0
 156 588 164 594 182 594 c 2
 418 594 l 2
 436 594 444 588 444 575 c 0
 444 561 436 555 418 555 c 2
EndSplineSet
Ligature: 0 1 'liga' space uni0304
EndChar
StartChar: breve
Encoding: 198 728 129
Width: 600
Flags: W
HStem: 517 41<300 317>
Fore
176 646 m 0
 188 646 192 640 196 626 c 1
 200 588 244 558 300 558 c 0
 354 558 400 588 404 626 c 0
 406 640 412 646 424 646 c 0
 436 646 444 638 444 624 c 0
 444 564 382 517 300 517 c 0
 220 517 156 564 156 624 c 0
 156 638 162 646 176 646 c 0
EndSplineSet
Ligature: 0 1 'liga' space uni0306
EndChar
StartChar: dotaccent
Encoding: 199 729 130
Width: 600
Flags: W
VStem: 268 63<533.081 603>
Fore
288 627 m 2
 310 627 l 2
 324 627 331 619 331 601 c 2
 331 544 l 2
 331 525 324 517 310 517 c 2
 288 517 l 2
 274 517 268 525 268 544 c 2
 268 601 l 2
 268 619 274 627 288 627 c 2
EndSplineSet
Ligature: 0 1 'liga' space uni0307
EndChar
StartChar: dieresis
Encoding: 200 168 131
Width: 600
Flags: W
VStem: 180 65<533.539 603> 356 65<533.939 603>
Fore
200 627 m 2
 226 627 l 2
 238 627 245 619 245 601 c 2
 245 544 l 2
 245 525 238 517 226 517 c 2
 200 517 l 2
 188 517 180 525 180 544 c 2
 180 601 l 2
 180 619 188 627 200 627 c 2
376 627 m 2
 402 627 l 2
 412 627 421 619 421 601 c 2
 421 544 l 2
 421 525 412 517 402 517 c 2
 376 517 l 2
 364 517 356 525 356 544 c 2
 356 601 l 2
 356 619 364 627 376 627 c 2
EndSplineSet
Ligature: 0 1 'liga' space uni0308
EndChar
StartChar: ring
Encoding: 202 730 132
Width: 600
Flags: W
HStem: 484 33<288.988 305> 632 33<289.343 305>
VStem: 208 33<575 581> 360 32<563 581>
Fore
300 665 m 0
 352 665 392 626 392 572 c 0
 392 525 350 484 300 484 c 0
 248 484 208 525 208 575 c 0
 208 624 248 665 300 665 c 0
300 632 m 0
 268 632 241 605 241 575 c 0
 241 542 268 517 300 517 c 0
 332 517 360 542 360 574 c 0
 360 605 332 632 300 632 c 0
EndSplineSet
Ligature: 0 1 'liga' space uni030A
EndChar
StartChar: cedilla
Encoding: 203 184 133
Width: 600
Flags: W
HStem: -173 38<297 315> -20 20G<280 317>
VStem: 280 37<-82 0> 346 36<-110 -103>
Fore
280 0 m 1
 317 0 l 1
 317 -47 l 1
 360 -49 382 -71 382 -108 c 0
 382 -146 350 -173 306 -173 c 0
 284 -173 254 -165 234 -156 c 1
 220 -148 218 -143 218 -134 c 0
 218 -123 226 -115 238 -115 c 0
 240 -115 244 -115 252 -119 c 0
 274 -131 288 -135 302 -135 c 0
 328 -135 346 -123 346 -105 c 0
 346 -88 332 -82 300 -82 c 2
 280 -82 l 1
 280 0 l 1
EndSplineSet
Ligature: 0 1 'liga' space uni0327
EndChar
StartChar: hungarumlaut
Encoding: 205 733 134
Width: 600
Flags: W
DStem: 262 651 290 619 166 557 190 525 408 651 434 619 310 557 336 525
Fore
290 619 m 1
 190 525 l 1
 182 519 176 516 172 516 c 0
 162 516 152 525 152 536 c 0
 152 544 154 546 166 557 c 2
 262 651 l 1
 266 657 272 659 280 659 c 0
 290 659 300 651 300 638 c 0
 300 632 298 629 290 619 c 1
434 619 m 1
 336 525 l 2
 330 519 324 516 318 516 c 0
 308 516 298 525 298 536 c 0
 298 542 300 549 310 557 c 1
 408 651 l 1
 416 657 420 659 428 659 c 0
 438 659 448 651 448 638 c 0
 448 632 446 629 434 619 c 1
EndSplineSet
Ligature: 0 1 'liga' space uni030B
EndChar
StartChar: ogonek
Encoding: 206 731 135
Width: 600
Flags: W
HStem: -156 33<296 308> -20 20G<300 346>
VStem: 222 40<-95 -86> 356 22<-119 -107>
Fore
346 0 m 1
 320 -14 l 1
 284 -36 262 -61 262 -88 c 0
 262 -112 274 -123 306 -123 c 0
 326 -123 330 -121 356 -107 c 1
 356 -105 360 -104 360 -104 c 1
 370 -104 378 -110 378 -119 c 0
 378 -135 338 -156 298 -156 c 0
 250 -156 222 -132 222 -93 c 0
 222 -53 246 -25 300 0 c 1
 346 0 l 1
EndSplineSet
Ligature: 0 1 'liga' space uni0328
EndChar
StartChar: caron
Encoding: 207 711 136
Width: 600
Flags: W
DStem: 168 626 192 657 300 517 300 571 406 657 432 626 300 571 300 517
Fore
300 517 m 1
 168 626 l 2
 158 634 156 637 156 646 c 0
 156 657 164 667 174 667 c 0
 178 667 186 662 192 657 c 2
 300 571 l 1
 406 657 l 1
 414 662 420 667 424 667 c 0
 434 667 444 657 444 646 c 0
 444 638 442 634 432 626 c 2
 300 517 l 1
EndSplineSet
EndChar
StartChar: emdash
Encoding: 208 8212 137
Width: 600
Flags: W
HStem: 261 41<28 579>
Fore
572 261 m 2
 28 261 l 2
 8 261 2 269 2 281 c 0
 2 296 8 302 28 302 c 2
 572 302 l 2
 590 302 598 296 598 281 c 0
 598 269 590 261 572 261 c 2
EndSplineSet
EndChar
StartChar: AE
Encoding: 225 198 138
Width: 600
Flags: W
HStem: 0 41<26.7963 74 116 148 235.247 298 339 591> 0 160<568 591> 189 42<169 298> 274 40<339 418> 522 41<146 208 146 298 146 530>
VStem: 10 159<20 22> 298 41<41 274 231 522> 418 39<247 273 314 353> 530 41<400.96 522> 550 41<41 136>
DStem: 208 522 248 522 74 41 169 231 208 522 158 189 74 41 116 41
Fore
298 189 m 1xbf40
 158 189 l 1
 116 41 l 1
 142 41 l 2
 160 41 169 35 169 20 c 0
 169 8 160 0 142 0 c 2
 36 0 l 2
 20 0 10 8 10 20 c 0
 10 35 20 41 36 41 c 2
 74 41 l 1
 208 522 l 1
 146 522 l 2
 126 522 116 530 116 542 c 0
 116 557 126 563 146 563 c 2
 571 563 l 1
 571 412 l 2xbf80
 571 393 564 384 550 384 c 0xbf40
 536 384 530 393 530 412 c 2
 530 522 l 1xbf80
 339 522 l 1
 339 314 l 1
 418 314 l 1
 418 343 l 2
 418 360 424 369 436 369 c 0
 450 369 457 360 457 343 c 2
 457 247 l 2
 457 228 450 219 436 219 c 0
 424 219 418 230 418 247 c 2
 418 274 l 1
 339 274 l 1
 339 41 l 1
 550 41 l 1xbf40
 550 134 l 2
 550 153 556 160 570 160 c 0x7f40
 582 160 591 149 591 134 c 2
 591 0 l 1
 246 0 l 2
 226 0 220 8 220 20 c 0
 220 35 226 41 246 41 c 2
 298 41 l 1
 298 189 l 1xbf40
298 231 m 1
 298 522 l 1
 248 522 l 1
 169 231 l 1
 298 231 l 1
EndSplineSet
EndChar
StartChar: ordfeminine
Encoding: 227 170 139
Width: 600
Flags: W
HStem: 280 36<236.772 267> 420 34<281 300> 536 38<284 300>
VStem: 154 36<347 360> 358 38<348 493> 358 87<281 302>
Fore
358 281 m 1xf4
 358 308 l 1xf4
 320 286 290 280 252 280 c 0
 194 280 154 311 154 358 c 0
 154 415 210 454 286 454 c 0
 310 454 330 451 358 447 c 1
 358 491 l 2
 358 519 334 536 294 536 c 0
 276 536 248 530 218 519 c 1
 210 514 210 514 204 514 c 0
 196 514 188 524 188 533 c 0
 188 542 192 547 202 552 c 0
 232 564 272 574 298 574 c 0
 354 574 396 539 396 491 c 2
 396 319 l 1xf8
 422 319 l 2
 438 319 445 311 445 300 c 0
 445 289 438 281 422 281 c 2
 358 281 l 1xf4
358 349 m 1xf8
 358 409 l 1
 342 415 312 420 288 420 c 0
 232 420 190 393 190 355 c 0
 190 332 216 316 252 316 c 0
 290 316 326 327 358 349 c 1xf8
EndSplineSet
EndChar
StartChar: Lslash
Encoding: 232 321 140
Width: 600
Flags: W
HStem: 0 41<98 192 234 549> 522 41<98 192 98 294>
VStem: 192 42<41 263 292 522> 508 41<41 209>
DStem: 192 292 192 247 68 219 88 184 368 390 390 355 234 310 234 263
Fore
234 522 m 1
 234 310 l 1
 368 390 l 1
 374 392 382 395 386 395 c 0
 396 395 404 385 404 374 c 0
 404 366 402 362 390 355 c 2
 234 263 l 1
 234 41 l 1
 508 41 l 1
 508 201 l 2
 508 220 516 230 528 230 c 0
 544 230 549 220 549 201 c 2
 549 0 l 1
 98 0 l 2
 80 0 72 8 72 20 c 0
 72 35 80 41 98 41 c 2
 192 41 l 1
 192 247 l 1
 88 184 l 2
 80 179 74 178 70 178 c 0
 62 178 50 189 50 200 c 0
 50 208 56 212 68 219 c 2
 192 292 l 1
 192 522 l 1
 98 522 l 2
 80 522 72 530 72 542 c 0
 72 557 80 563 98 563 c 2
 292 563 l 2
 308 563 318 557 318 542 c 0
 318 530 308 522 292 522 c 2
 234 522 l 1
EndSplineSet
EndChar
StartChar: Oslash
Encoding: 233 216 141
Width: 600
Flags: W
HStem: -16 41<281.48 313> 535 42<280.948 313> 585 20G<539 547>
VStem: 50 43<280 295> 508 41<280 295>
DStem: 116 77 142 50 50 -8 78 -31 432 476 456 450 146 112 168 83 524 593 552 572 458 509 482 483
Fore
142 50 m 1
 78 -31 l 1
 70 -39 64 -42 58 -42 c 0
 50 -42 40 -35 40 -25 c 0
 40 -20 42 -19 50 -8 c 2
 116 77 l 1
 72 138 50 204 50 280 c 0
 50 447 162 577 300 577 c 0
 360 577 410 555 458 509 c 1
 524 593 l 1
 532 602 536 605 542 605 c 0
 552 605 560 597 560 588 c 0
 560 582 558 579 552 572 c 2
 482 483 l 1
 526 429 549 355 549 280 c 0
 549 115 440 -16 300 -16 c 0
 242 -16 186 8 142 50 c 1
146 112 m 1
 432 476 l 1
 392 516 350 535 300 535 c 0
 184 535 93 420 93 280 c 0
 93 219 108 164 146 112 c 1
456 450 m 1
 168 83 l 1
 206 46 252 25 300 25 c 0
 414 25 508 140 508 280 c 0
 508 343 492 401 456 450 c 1
EndSplineSet
KernsSLIF: 65 -59 0 0
EndChar
StartChar: OE
Encoding: 234 338 142
Width: 600
Flags: W
HStem: 0 41<264 298 339 591> 0 160<568 591> 272 41<339 418> 522 41<249 298 256 530>
VStem: 10 41<281 305> 298 41<41 272 41 522> 298 161<41 340> 418 41<244 272 313 342> 530 41<409 522> 550 41<41 136>
Fore
339 272 m 1xbd
 339 41 l 1
 550 41 l 1xbd40
 550 134 l 2
 550 153 556 160 570 160 c 0x7d40
 582 160 591 149 591 134 c 2
 591 0 l 1xbd40
 264 0 l 2
 110 0 10 112 10 281 c 0
 10 450 108 563 256 563 c 2
 571 563 l 1
 571 409 l 2xb880
 571 392 564 382 550 382 c 0xb840
 536 382 530 392 530 409 c 2
 530 522 l 1
 339 522 l 1
 339 313 l 1
 418 313 l 1
 418 340 l 2xbd80
 418 358 424 366 438 366 c 0
 450 366 459 358 459 340 c 2
 459 244 l 2xba
 459 226 450 217 438 217 c 0
 424 217 418 226 418 244 c 2
 418 272 l 1
 339 272 l 1xbd
298 522 m 1
 264 522 l 2
 192 522 142 500 104 451 c 0
 70 407 51 349 51 281 c 0
 51 214 70 156 104 110 c 1
 142 63 194 41 264 41 c 2
 298 41 l 1
 298 522 l 1
EndSplineSet
EndChar
StartChar: ordmasculine
Encoding: 235 186 143
Width: 600
Flags: W
HStem: 285 37<283.408 301> 539 38<283.408 301>
VStem: 154 35<431 446> 412 35<413.932 433>
Fore
298 577 m 0
 382 577 447 513 447 428 c 0
 447 349 380 285 298 285 c 0
 220 285 154 349 154 431 c 0
 154 511 220 577 298 577 c 0
298 539 m 0
 240 539 189 492 189 431 c 0
 189 369 240 322 298 322 c 0
 360 322 412 369 412 428 c 0
 412 492 362 539 298 539 c 0
EndSplineSet
EndChar
StartChar: ae
Encoding: 241 230 144
Width: 600
Flags: W
HStem: -16 41<161 179 446 454> 200 41<325 582> 215 43<193 211> 390 41<193 208 430 436>
VStem: 18 45<119 134> 284 41<27 52>
Fore
325 61 m 1xdc
 325 27 l 2
 325 8 318 0 304 0 c 0
 290 0 284 8 284 27 c 2
 284 52 l 1
 246 5 208 -16 164 -16 c 0
 80 -16 18 47 18 132 c 0
 18 167 32 193 63 217 c 0
 94 241 150 258 200 258 c 0xbc
 228 258 256 253 284 245 c 1
 284 305 l 2
 284 352 246 390 196 390 c 0
 170 390 138 381 112 365 c 1
 106 360 98 358 94 358 c 0
 86 358 76 369 76 377 c 0
 76 390 84 396 104 407 c 1
 142 423 172 431 204 431 c 0
 252 431 296 398 316 347 c 1
 342 399 386 431 434 431 c 0
 496 431 542 392 566 325 c 1
 576 288 582 253 582 200 c 1
 324 200 l 1
 332 97 384 25 452 25 c 0
 480 25 502 38 552 82 c 1
 554 85 558 88 562 88 c 0
 574 88 582 77 582 66 c 0
 582 57 576 49 552 30 c 0
 510 -3 480 -16 448 -16 c 0
 404 -16 356 13 325 61 c 1xdc
284 110 m 1
 284 203 l 1
 258 211 230 215 206 215 c 0
 162 215 104 197 82 176 c 1
 70 162 63 145 63 121 c 0
 63 66 106 25 166 25 c 0
 204 25 238 50 284 110 c 1
325 241 m 1xdc
 540 241 l 1
 534 288 528 313 518 335 c 1
 500 369 468 390 432 390 c 0
 374 390 336 340 325 241 c 1xdc
EndSplineSet
KernsSLIF: 121 21 0 0 119 46 0 0 118 46 0 0
EndChar
StartChar: dotlessi
Encoding: 245 305 145
Width: 600
Flags: W
HStem: 0 41<109.024 280 320 482> 376 42<162 280>
VStem: 280 41<40 418>
Fore
321 418 m 1
 321 41 l 1
 480 41 l 2
 498 41 508 35 508 20 c 0
 508 8 496 0 480 0 c 2
 120 0 l 2
 100 0 92 8 92 20 c 0
 92 35 100 41 120 41 c 2
 280 41 l 1
 280 376 l 1
 162 376 l 2
 144 376 134 384 134 396 c 0
 134 410 144 418 162 418 c 2
 321 418 l 1
EndSplineSet
EndChar
StartChar: lslash
Encoding: 248 322 146
Width: 600
Flags: W
HStem: 0 41<109.024 278 319 482> 563 41<162 278>
VStem: 278 41<40 297 327 604>
DStem: 278 327 278 280 170 266 190 231 406 395 428 358 319 343 319 297
Fore
319 604 m 1
 319 343 l 1
 406 395 l 1
 414 398 418 401 422 401 c 0
 434 401 442 392 442 381 c 0
 442 369 438 366 428 358 c 1
 319 297 l 1
 319 41 l 1
 480 41 l 2
 498 41 508 35 508 20 c 0
 508 8 498 0 480 0 c 2
 120 0 l 2
 100 0 92 8 92 20 c 0
 92 35 100 41 120 41 c 2
 278 41 l 1
 278 280 l 1
 190 231 l 1
 182 225 178 225 172 225 c 0
 164 225 156 234 156 245 c 0
 156 253 158 258 170 266 c 1
 278 327 l 1
 278 563 l 1
 162 563 l 2
 144 563 134 571 134 583 c 0
 134 597 144 604 162 604 c 2
 319 604 l 1
EndSplineSet
EndChar
StartChar: oslash
Encoding: 249 248 147
Width: 600
Flags: W
HStem: -16 41<302 313> 390 41<302 313>
VStem: 74 41<208 215> 490 41<208 215>
DStem: 132 60 158 35 66 -8 92 -33 418 352 442 329 160 88 186 66 510 448 536 423 446 382 472 358
Fore
158 35 m 1
 92 -33 l 1
 82 -41 80 -42 74 -42 c 0
 64 -42 56 -35 56 -25 c 0
 56 -19 58 -16 66 -8 c 2
 132 60 l 1
 96 102 74 153 74 208 c 0
 74 332 176 431 302 431 c 0
 356 431 404 415 446 382 c 1
 510 448 l 1
 520 456 522 458 528 458 c 0
 538 458 544 450 544 440 c 0
 544 434 544 431 536 423 c 2
 472 358 l 1
 510 316 531 264 531 208 c 0
 531 82 430 -16 302 -16 c 0
 248 -16 200 2 158 35 c 1
442 329 m 1
 186 66 l 1
 218 39 258 25 302 25 c 0
 406 25 490 105 490 208 c 0
 490 253 472 294 442 329 c 1
160 88 m 1
 418 352 l 1
 384 377 346 390 302 390 c 0
 200 390 115 310 115 208 c 0
 115 164 132 123 160 88 c 1
EndSplineSet
EndChar
StartChar: oe
Encoding: 250 339 148
Width: 600
Flags: W
HStem: -16 41<172 179 446 454> 200 41<326 582> 390 41<161 179 430 438>
VStem: 18 40<191 225>
Fore
582 200 m 1
 324 200 l 1
 332 99 386 25 452 25 c 0
 480 25 502 38 552 82 c 1
 554 85 558 88 562 88 c 0
 572 88 582 77 582 66 c 0
 582 57 576 49 552 30 c 0
 510 -3 480 -16 448 -16 c 0
 388 -16 334 30 304 104 c 1
 274 27 226 -16 172 -16 c 0
 86 -16 18 88 18 212 c 0
 18 330 86 431 170 431 c 0
 224 431 274 387 304 316 c 1
 320 360 332 376 350 395 c 1
 376 418 406 431 436 431 c 0
 496 431 542 392 566 325 c 1
 576 288 582 253 582 200 c 1
326 241 m 1
 542 241 l 1
 534 288 528 313 518 335 c 1
 500 369 470 390 432 390 c 0
 374 390 336 340 326 241 c 1
172 390 m 0
 110 390 58 305 58 208 c 0
 58 110 110 25 172 25 c 0
 232 25 284 110 284 206 c 0
 284 305 232 390 172 390 c 0
EndSplineSet
EndChar
StartChar: germandbls
Encoding: 251 223 149
Width: 600
Flags: W
HStem: -16 41<394 404> 0 41<90.8007 155 195 217> 333 41<294 312> 563 41<296 310>
VStem: 154 41<40 481> 288 42<99 104> 402 41<447 465> 488 41<162 177>
Fore
154 41 m 1x7f
 154 476 l 2
 154 547 220 604 296 604 c 0
 378 604 443 539 443 458 c 0
 443 418 426 385 384 358 c 1
 480 321 529 253 529 162 c 0
 529 60 470 -16 394 -16 c 0
 336 -16 288 35 288 101 c 0
 288 115 298 124 310 124 c 0
 322 124 330 116 330 99 c 0
 333 53 356 25 394 25 c 0xbf
 448 25 488 85 488 162 c 0
 488 212 466 258 426 289 c 1
 394 316 346 333 310 333 c 2
 304 333 l 2
 286 333 278 341 278 355 c 0
 278 366 286 374 298 374 c 2
 306 374 l 2
 356 374 402 415 402 459 c 0
 402 516 354 563 296 563 c 0
 240 563 195 525 195 476 c 2
 195 41 l 1
 208 41 l 2
 228 41 238 35 238 20 c 0
 238 8 228 0 208 0 c 2
 102 0 l 2
 82 0 72 8 72 20 c 0
 72 35 82 41 102 41 c 2
 154 41 l 1x7f
EndSplineSet
EndChar
StartChar: Adieresis
Encoding: 256 196 150
Width: 600
Flags: W
HStem: 0 41<26.5731 66 108 190 408 484 527 569> 189 41<178 428> 522 41<126 247 126 300> 642 138<200 228 376 408>
VStem: 8 206<20 22> 180 65<675 753> 356 65<675 753> 382 210<20 22>
DStem: 248 522 286 522 66 41 178 230 248 522 162 189 66 41 108 41 300 522 330 563 412 230 528 41 428 189 330 563 484 41 528 41
Fore
428 189 m 1xf9
 162 189 l 1
 108 41 l 1
 188 41 l 2
 204 41 214 35 214 20 c 0
 214 8 204 0 188 0 c 2
 36 0 l 2
 20 0 8 8 8 20 c 0
 8 35 20 41 36 41 c 2
 66 41 l 1
 248 522 l 1
 126 522 l 2
 108 522 100 530 100 542 c 0
 100 557 108 563 126 563 c 2
 330 563 l 1
 528 41 l 1
 564 41 l 2
 582 41 592 35 592 20 c 0
 592 8 582 0 564 0 c 2
 408 0 l 2
 390 0 382 8 382 20 c 0
 382 35 390 41 408 41 c 2
 484 41 l 1
 428 189 l 1xf9
412 230 m 1
 300 522 l 1
 286 522 l 1
 178 230 l 1
 412 230 l 1
200 780 m 2
 226 780 l 2
 238 780 245 769 245 745 c 2
 245 675 l 2
 245 651 238 642 226 642 c 2
 200 642 l 2
 188 642 180 651 180 675 c 2
 180 745 l 2xf4
 180 769 188 780 200 780 c 2
376 780 m 2
 402 780 l 2
 412 780 421 769 421 745 c 2
 421 675 l 2
 421 651 412 642 402 642 c 2
 376 642 l 2
 364 642 356 651 356 675 c 2
 356 745 l 2xf2
 356 769 364 780 376 780 c 2
EndSplineSet
KernsSLIF: 121 -145 0 0 119 -46 0 0 118 -134 0 0 117 -34 0 0 116 -59 0 0 39 -241 0 0 186 -187 0 0 113 -59 0 0 46 -162 0 0 111 -36 0 0 45 -73 0 0 172 -117 0 0 171 -117 0 0 103 -56 0 0 100 -21 0 0 44 -91 0 0 99 -46 0 0 98 113 0 0 97 18 0 0 89 -67 0 0 87 -28 0 0 86 -180 0 0 85 -74 0 0 84 -63 0 0 81 -67 0 0 79 -63 0 0 71 -63 0 0 67 -78 0 0
Ligature: 0 0 'liga' A uni0308
EndChar
StartChar: Aacute
Encoding: 257 193 151
Width: 600
Flags: W
HStem: 0 41<26.5731 66 108 190 398.029 484 527 569> 189 41<178 428> 522 41<126 248 126 300>
VStem: 8 206<20 22> 382 210<20 22>
DStem: 248 522 286 522 66 41 178 230 248 522 162 189 66 41 108 41 300 522 330 563 412 230 528 41 344 781 372 750 230 681 256 649 428 189 330 563 484 41 528 41
Fore
372 750 m 2
 256 649 l 2
 248 643 244 640 238 640 c 0
 226 640 218 649 218 660 c 0
 218 668 220 671 230 681 c 1
 344 781 l 1
 352 786 356 789 362 789 c 0
 374 789 382 781 382 769 c 0
 382 761 380 758 372 750 c 2
428 189 m 1
 162 189 l 1
 108 41 l 1
 188 41 l 2
 204 41 214 35 214 20 c 0
 214 8 204 0 188 0 c 2
 36 0 l 2
 20 0 8 8 8 20 c 0
 8 35 20 41 36 41 c 2
 66 41 l 1
 248 522 l 1
 126 522 l 2
 108 522 100 530 100 542 c 0
 100 557 108 563 126 563 c 2
 330 563 l 1
 528 41 l 1
 564 41 l 2
 582 41 592 35 592 20 c 0
 592 8 582 0 564 0 c 2
 408 0 l 2
 390 0 382 8 382 20 c 0
 382 35 390 41 408 41 c 2
 484 41 l 1
 428 189 l 1
412 230 m 1
 300 522 l 1
 286 522 l 1
 178 230 l 1
 412 230 l 1
EndSplineSet
KernsSLIF: 121 -145 0 0 119 -46 0 0 118 -134 0 0 117 -34 0 0 116 -59 0 0 39 -241 0 0 113 -59 0 0 46 -162 0 0 111 -36 0 0 45 -73 0 0 172 -117 0 0 171 -117 0 0 103 -56 0 0 101 -34 0 0 100 -21 0 0 44 -91 0 0 99 -46 0 0 98 113 0 0 97 18 0 0 89 -67 0 0 87 -28 0 0 86 -180 0 0 85 -74 0 0 84 -63 0 0 81 -67 0 0 79 -63 0 0 71 -63 0 0 67 -78 0 0
Ligature: 0 0 'liga' A acutecomb
EndChar
StartChar: Agrave
Encoding: 258 192 152
Width: 600
Flags: W
HStem: 0 41<26.5731 66 108 190 398.029 484 527 569> 189 41<178 428> 522 41<126 248 126 300>
VStem: 8 206<20 22> 382 210<20 22>
DStem: 230 750 254 781 344 649 370 681 248 522 286 522 66 41 178 230 248 522 162 189 66 41 108 41 300 522 330 563 412 230 528 41 428 189 330 563 484 41 528 41
Fore
254 781 m 2
 370 681 l 1
 378 673 l 2
 382 668 382 668 382 662 c 0
 382 649 372 641 360 641 c 0
 356 641 350 643 344 649 c 2
 230 750 l 2
 220 758 218 762 218 770 c 0
 218 781 226 791 236 791 c 0
 244 791 248 786 254 781 c 2
428 189 m 1
 162 189 l 1
 108 41 l 1
 188 41 l 2
 204 41 214 35 214 20 c 0
 214 8 204 0 188 0 c 2
 36 0 l 2
 20 0 8 8 8 20 c 0
 8 35 20 41 36 41 c 2
 66 41 l 1
 248 522 l 1
 126 522 l 2
 108 522 100 530 100 542 c 0
 100 557 108 563 126 563 c 2
 330 563 l 1
 528 41 l 1
 564 41 l 2
 582 41 592 35 592 20 c 0
 592 8 582 0 564 0 c 2
 408 0 l 2
 390 0 382 8 382 20 c 0
 382 35 390 41 408 41 c 2
 484 41 l 1
 428 189 l 1
412 230 m 1
 300 522 l 1
 286 522 l 1
 178 230 l 1
 412 230 l 1
EndSplineSet
KernsSLIF: 46 -162 0 0 44 -91 0 0 89 -67 0 0 87 -28 0 0 86 -180 0 0 85 -74 0 0 84 -63 0 0 81 -67 0 0 79 -63 0 0 71 -63 0 0 67 -78 0 0
Ligature: 0 0 'liga' A gravecomb
EndChar
StartChar: Acircumflex
Encoding: 259 194 153
Width: 600
Flags: W
HStem: 0 41<26.5731 66 108 194 408 484 527 569> 189 41<178 428> 522 41<126 248 126 300>
VStem: 8 206<20 22> 382 210<20 22>
DStem: 248 522 286 522 66 41 178 230 248 522 162 189 66 41 108 41 300 737 300 791 406 649 432 682 300 791 300 737 168 681 192 649 300 737 300 791 406 649 432 682 300 791 300 737 168 681 192 649 300 737 300 791 406 649 432 682 300 791 300 737 168 681 192 649 300 737 300 791 406 649 432 682 300 791 300 737 168 681 192 649 300 737 300 791 406 649 432 682 300 791 300 737 168 681 192 649 300 737 300 791 406 649 432 682 300 791 300 737 168 681 192 649 300 737 300 791 406 649 432 682 300 791 300 737 168 681 192 649 300 522 330 563 412 230 528 41 428 189 330 563 484 41 528 41
Fore
300 791 m 1
 432 682 l 2
 442 673 444 670 444 660 c 0
 444 649 436 641 424 641 c 0
 420 641 414 643 406 649 c 2
 300 737 l 1
 192 649 l 1
 186 643 178 641 174 641 c 0
 164 641 156 649 156 660 c 0
 156 670 158 674 168 681 c 1
 300 791 l 1
428 189 m 1
 162 189 l 1
 108 41 l 1
 188 41 l 2
 204 41 214 35 214 20 c 0
 214 8 204 0 188 0 c 2
 36 0 l 2
 20 0 8 8 8 20 c 0
 8 35 20 41 36 41 c 2
 66 41 l 1
 248 522 l 1
 126 522 l 2
 108 522 100 530 100 542 c 0
 100 557 108 563 126 563 c 2
 330 563 l 1
 528 41 l 1
 564 41 l 2
 582 41 592 35 592 20 c 0
 592 8 582 0 564 0 c 2
 408 0 l 2
 390 0 382 8 382 20 c 0
 382 35 390 41 408 41 c 2
 484 41 l 1
 428 189 l 1
412 230 m 1
 300 522 l 1
 286 522 l 1
 178 230 l 1
 412 230 l 1
EndSplineSet
KernsSLIF: 46 -162 0 0 44 -91 0 0 89 -67 0 0 87 -28 0 0 86 -180 0 0 85 -74 0 0 84 -63 0 0 81 -67 0 0 79 -63 0 0 71 -63 0 0 67 -78 0 0
Ligature: 0 0 'liga' A uni0302
EndChar
StartChar: Abreve
Encoding: 260 258 154
Width: 600
Flags: W
HStem: 0 41<26.5731 66 108 198 408 484 527 569> 189 41<178 428> 522 41<126 248 126 300> 641 41<300 313>
VStem: 8 206<20 22> 382 210<20 22>
DStem: 248 522 286 522 66 41 178 230 248 522 162 189 66 41 108 41 300 522 330 563 412 230 528 41 428 189 330 563 484 41 528 41
Fore
176 770 m 0
 188 770 192 764 196 750 c 1
 200 712 244 682 300 682 c 0
 354 682 400 712 404 750 c 0
 406 764 412 770 424 770 c 0
 436 770 444 762 444 748 c 0
 444 688 382 641 300 641 c 0
 220 641 156 688 156 748 c 0
 156 762 162 770 176 770 c 0
428 189 m 1
 162 189 l 1
 108 41 l 1
 188 41 l 2
 204 41 214 35 214 20 c 0
 214 8 204 0 188 0 c 2
 36 0 l 2
 20 0 8 8 8 20 c 0
 8 35 20 41 36 41 c 2
 66 41 l 1
 248 522 l 1
 126 522 l 2
 108 522 100 530 100 542 c 0
 100 557 108 563 126 563 c 2
 330 563 l 1
 528 41 l 1
 564 41 l 2
 582 41 592 35 592 20 c 0
 592 8 582 0 564 0 c 2
 408 0 l 2
 390 0 382 8 382 20 c 0
 382 35 390 41 408 41 c 2
 484 41 l 1
 428 189 l 1
412 230 m 1
 300 522 l 1
 286 522 l 1
 178 230 l 1
 412 230 l 1
EndSplineSet
Ligature: 0 0 'liga' A uni0306
EndChar
StartChar: Atilde
Encoding: 261 195 155
Width: 600
Flags: W
HStem: 0 41<26.5731 66 108 190 398.029 484 527 569> 189 41<178 428> 522 41<126 248 126 300> 663 41<359 368> 712 39<231 250>
VStem: 8 206<20 22> 382 210<20 22>
DStem: 248 522 286 522 66 41 178 230 248 522 162 189 66 41 108 41 300 522 330 563 412 230 528 41 428 189 330 563 484 41 528 41
Fore
434 750 m 0
 446 750 454 740 454 729 c 0
 454 723 452 717 434 699 c 0
 408 673 388 663 366 663 c 0
 344 663 322 670 284 695 c 1
 264 706 254 712 242 712 c 0
 220 712 212 706 182 674 c 0
 178 670 172 666 166 666 c 0
 154 666 146 674 146 685 c 0
 146 693 152 701 164 715 c 1
 194 742 214 751 240 751 c 0
 258 751 270 748 304 729 c 0
 342 707 350 704 362 704 c 0
 380 704 390 712 418 742 c 1
 426 748 428 750 434 750 c 0
428 189 m 1
 162 189 l 1
 108 41 l 1
 188 41 l 2
 204 41 214 35 214 20 c 0
 214 8 204 0 188 0 c 2
 36 0 l 2
 20 0 8 8 8 20 c 0
 8 35 20 41 36 41 c 2
 66 41 l 1
 248 522 l 1
 126 522 l 2
 108 522 100 530 100 542 c 0
 100 557 108 563 126 563 c 2
 330 563 l 1
 528 41 l 1
 564 41 l 2
 582 41 592 35 592 20 c 0
 592 8 582 0 564 0 c 2
 408 0 l 2
 390 0 382 8 382 20 c 0
 382 35 390 41 408 41 c 2
 484 41 l 1
 428 189 l 1
412 230 m 1
 300 522 l 1
 286 522 l 1
 178 230 l 1
 412 230 l 1
EndSplineSet
KernsSLIF: 46 -162 0 0 44 -91 0 0 89 -67 0 0 87 -28 0 0 86 -180 0 0 85 -74 0 0 84 -63 0 0 81 -67 0 0 79 -63 0 0 71 -63 0 0 67 -78 0 0
Ligature: 0 0 'liga' A tildecomb
EndChar
StartChar: Aring
Encoding: 262 197 156
Width: 600
Flags: W
HStem: 0 41<26.5731 66 108 190 398.029 484 527 569> 189 41<178 428> 522 41<126 248 126 300> 608 33<300 302> 756 33<300 302>
VStem: 8 206<20 22> 208 33<699 705> 360 32<687 705> 382 210<20 22>
DStem: 248 522 286 522 66 41 178 230 248 522 162 189 66 41 108 41 300 522 330 563 412 230 528 41 428 189 330 563 484 41 528 41
Fore
300 789 m 0xfb
 352 789 392 750 392 696 c 0
 392 649 350 608 300 608 c 0
 248 608 208 649 208 699 c 0
 208 748 248 789 300 789 c 0xfb
300 756 m 0
 268 756 241 729 241 699 c 0
 241 666 268 641 300 641 c 0
 332 641 360 666 360 698 c 0
 360 729 332 756 300 756 c 0
428 189 m 1
 162 189 l 1
 108 41 l 1
 188 41 l 2
 204 41 214 35 214 20 c 0
 214 8 204 0 188 0 c 2
 36 0 l 2
 20 0 8 8 8 20 c 0
 8 35 20 41 36 41 c 2
 66 41 l 1
 248 522 l 1
 126 522 l 2
 108 522 100 530 100 542 c 0
 100 557 108 563 126 563 c 2
 330 563 l 1
 528 41 l 1
 564 41 l 2
 582 41 592 35 592 20 c 0
 592 8 582 0 564 0 c 2
 408 0 l 2
 390 0 382 8 382 20 c 0xfc80
 382 35 390 41 408 41 c 2
 484 41 l 1
 428 189 l 1
412 230 m 1
 300 522 l 1
 286 522 l 1
 178 230 l 1
 412 230 l 1
EndSplineSet
KernsSLIF: 121 -145 0 0 119 -46 0 0 118 -134 0 0 117 -34 0 0 116 -59 0 0 39 -241 0 0 186 -187 0 0 113 -59 0 0 46 -162 0 0 111 -36 0 0 45 -73 0 0 172 -117 0 0 171 -117 0 0 103 -56 0 0 101 -34 0 0 100 -21 0 0 44 -91 0 0 99 -46 0 0 98 113 0 0 97 18 0 0 89 -67 0 0 87 -28 0 0 86 -180 0 0 85 -74 0 0 84 -63 0 0 81 -67 0 0 79 -63 0 0 71 -63 0 0 67 -78 0 0
Ligature: 0 0 'liga' A uni030A
EndChar
StartChar: Aogonek
Encoding: 263 260 157
Width: 600
Flags: W
HStem: -156 33<515 533> -156 52<520 582> 0 41<22.5731 62 104 186 394.029 480> 189 41<174 424> 522 41<122 244 122 296>
VStem: 4 206<20 22> 444 39<-95 -86>
DStem: 244 522 282 522 62 41 174 230 244 522 158 189 62 41 104 41 296 522 326 563 408 230 524 41 424 189 326 563 480 41 524 41
Fore
326 563 m 1xbe
 524 41 l 1
 560 41 l 2
 578 41 588 35 588 20 c 0
 588 8 584 6 562 -3 c 0
 516 -24 483 -58 483 -88 c 0
 483 -112 496 -123 526 -123 c 0xbe
 546 -123 550 -121 574 -107 c 0
 578 -105 580 -104 582 -104 c 0x7e
 590 -104 596 -110 596 -119 c 0
 596 -135 558 -156 520 -156 c 0
 472 -156 444 -132 444 -93 c 0
 444 -52 466 -27 520 0 c 1
 404 0 l 2
 386 0 378 8 378 20 c 0
 378 35 386 41 404 41 c 2
 480 41 l 1
 424 189 l 1
 158 189 l 1
 104 41 l 1
 184 41 l 2
 200 41 210 35 210 20 c 0
 210 8 200 0 184 0 c 2
 32 0 l 2
 16 0 4 8 4 20 c 0
 4 35 16 41 32 41 c 2
 62 41 l 1
 244 522 l 1
 122 522 l 2
 104 522 96 530 96 542 c 0
 96 557 104 563 122 563 c 2
 326 563 l 1xbe
408 230 m 1
 296 522 l 1
 282 522 l 1
 174 230 l 1
 408 230 l 1
EndSplineSet
Ligature: 0 0 'liga' A uni0328
EndChar
StartChar: Ccedilla
Encoding: 264 199 158
Width: 600
Flags: W
HStem: -173 38<298 308> -16 41<318 346> 396 167<495 502> 535 42<306 324>
VStem: 64 41<226 340> 282 36<-82 -16> 346 38<-110 -103> 480 40<418 423 508 538>
Fore
318 -16 m 1xdf
 318 -47 l 1
 360 -49 384 -71 384 -108 c 0
 384 -146 350 -173 304 -173 c 0
 284 -173 254 -165 234 -156 c 1
 220 -148 216 -143 216 -134 c 0
 216 -123 226 -115 238 -115 c 1
 238 -115 244 -115 252 -119 c 0
 276 -131 288 -135 302 -135 c 0
 328 -135 346 -123 346 -105 c 0
 346 -88 332 -82 300 -82 c 2
 282 -82 l 1
 282 -13 l 1
 238 -2 212 8 184 28 c 0
 112 77 64 162 64 242 c 2
 64 325 l 2
 64 385 92 456 136 503 c 0
 180 550 238 577 306 577 c 0xdf
 372 577 432 552 480 508 c 1
 480 536 l 2
 480 553 488 563 500 563 c 0
 514 563 520 553 520 536 c 2
 520 423 l 2
 520 407 514 396 498 396 c 0xef
 488 396 480 406 480 421 c 0
 476 481 396 535 306 535 c 0
 194 535 105 439 105 319 c 2
 105 247 l 2
 105 127 206 25 322 25 c 0
 394 25 442 50 498 115 c 0
 504 123 508 126 516 126 c 0
 526 126 536 116 536 105 c 0
 536 96 524 79 498 55 c 0
 452 13 386 -16 332 -16 c 2
 318 -16 l 1xdf
EndSplineSet
KernsSLIF: 65 -7 0 0
Ligature: 0 0 'liga' C uni0327
EndChar
StartChar: Cacute
Encoding: 265 262 159
Width: 600
Flags: W
HStem: -16 41<322 337> 396 167<495 502> 535 42<306 324>
VStem: 64 41<239 337> 480 40<415 423 508 545>
DStem: 408 780 436 748 294 679 320 649
Fore
480 508 m 1xb8
 480 536 l 2
 480 553 488 563 500 563 c 0
 514 563 520 553 520 536 c 2
 520 423 l 2
 520 407 514 396 498 396 c 0xd8
 488 396 480 406 480 421 c 0
 476 481 396 535 306 535 c 0
 194 535 105 439 105 319 c 2
 105 247 l 2
 105 127 206 25 322 25 c 0
 394 25 442 50 498 115 c 0
 504 123 508 126 516 126 c 0
 526 126 536 116 536 105 c 0
 536 96 524 79 498 55 c 0
 448 8 386 -16 322 -16 c 0
 188 -16 64 107 64 242 c 2
 64 325 l 2
 64 385 92 456 136 503 c 0
 180 550 238 577 306 577 c 0
 372 577 432 552 480 508 c 1xb8
436 748 m 1
 320 649 l 2
 312 642 308 640 302 640 c 0
 290 640 282 649 282 662 c 0
 282 668 282 671 294 679 c 1
 408 780 l 1
 416 786 418 789 426 789 c 0
 438 789 446 780 446 769 c 0
 446 761 442 758 436 748 c 1
EndSplineSet
Ligature: 0 0 'liga' C acutecomb
EndChar
StartChar: Ccaron
Encoding: 266 268 160
Width: 600
Flags: W
HStem: -16 41<322 337> 396 167<495 502> 535 42<306 325>
VStem: 64 41<239 337> 480 40<415 423 508 545>
DStem: 170 748 194 781 302 640 302 693 408 781 432 747 302 693 302 640
Fore
480 508 m 1xb8
 480 536 l 2
 480 553 488 563 500 563 c 0
 514 563 520 553 520 536 c 2
 520 423 l 2
 520 407 514 396 498 396 c 0xd8
 488 396 480 406 480 421 c 0
 476 481 396 535 306 535 c 0
 194 535 105 439 105 319 c 2
 105 247 l 2
 105 127 206 25 322 25 c 0
 394 25 442 50 498 115 c 0
 504 123 508 126 516 126 c 0
 526 126 536 116 536 105 c 0
 536 96 524 79 498 55 c 0
 448 8 386 -16 322 -16 c 0
 188 -16 64 107 64 242 c 2
 64 325 l 2
 64 385 92 456 136 503 c 0
 180 550 238 577 306 577 c 0
 372 577 432 552 480 508 c 1xb8
302 640 m 1
 170 748 l 1
 158 756 158 759 158 769 c 0
 158 780 166 789 176 789 c 0
 180 789 188 786 194 781 c 2
 302 693 l 1
 408 781 l 1
 416 786 422 789 426 789 c 0
 436 789 446 780 446 769 c 0
 446 761 444 758 432 747 c 1
 302 640 l 1
EndSplineSet
Ligature: 0 0 'liga' C uni030C
EndChar
StartChar: Dcaron
Encoding: 267 270 161
Width: 600
Flags: W
HStem: 0 41<79.8057 124 165 322> 522 41<79.8057 124 90 322>
VStem: 124 41<41 522> 500 39<239 320>
DStem: 188 748 212 781 320 640 320 693 426 781 452 747 320 693 320 640
Fore
124 41 m 1
 124 522 l 1
 90 522 l 2
 72 522 62 530 62 542 c 0
 62 557 72 563 90 563 c 2
 308 563 l 2
 438 563 539 451 539 310 c 2
 539 253 l 2
 539 112 438 0 308 0 c 2
 90 0 l 2
 72 0 62 8 62 20 c 0
 62 35 72 41 90 41 c 2
 124 41 l 1
165 41 m 1
 316 41 l 2
 412 41 500 140 500 245 c 2
 500 318 l 2
 500 371 474 431 434 472 c 0
 398 508 362 522 308 522 c 2
 165 522 l 1
 165 41 l 1
320 640 m 1
 188 748 l 1
 176 756 176 759 176 769 c 0
 176 780 184 789 194 789 c 0
 198 789 206 786 212 781 c 2
 320 693 l 1
 426 781 l 1
 434 786 440 789 444 789 c 0
 454 789 464 780 464 769 c 0
 464 761 462 758 452 747 c 1
 320 640 l 1
EndSplineSet
Ligature: 0 0 'liga' D uni030C
EndChar
StartChar: Edieresis
Encoding: 268 203 162
Width: 600
Flags: W
HStem: 0 41<79.8057 143 185 539> 0 187<516 539> 272 41<185 330> 522 41<79.8057 143 90 478> 662 99<190.74 207 420 422>
VStem: 144 41<41 272 41 522> 150 100<711 721> 330 41<226 272 313 360> 372 99<711 721> 478 40<423 522> 500 39<41 162>
Fore
185 272 m 1xbdc0
 185 41 l 1
 500 41 l 1xbda0
 500 160 l 2
 500 178 506 187 520 187 c 0x7da0
 532 187 539 178 539 160 c 2
 539 0 l 1xbda0
 90 0 l 2
 72 0 62 8 62 20 c 0
 62 35 72 41 90 41 c 2
 144 41 l 1
 144 522 l 1
 90 522 l 2
 72 522 62 530 62 542 c 0
 62 557 72 563 90 563 c 2
 518 563 l 1
 518 423 l 2
 518 407 512 396 498 396 c 0
 484 396 478 407 478 423 c 2
 478 522 l 1
 185 522 l 1
 185 313 l 1
 330 313 l 1
 330 358 l 2
 330 376 336 385 352 385 c 0
 362 385 371 376 371 358 c 2
 371 226 l 2
 371 209 362 200 352 200 c 0
 336 200 330 209 330 226 c 2
 330 272 l 1
 185 272 l 1xbdc0
200 761 m 0
 228 761 250 737 250 711 c 0
 250 684 228 662 200 662 c 0
 174 662 150 684 150 711 c 0x3b80
 150 737 174 761 200 761 c 0
420 761 m 0
 448 761 471 737 471 711 c 0
 471 684 448 662 420 662 c 0
 394 662 372 684 372 711 c 0
 372 737 394 761 420 761 c 0
EndSplineSet
Ligature: 0 0 'liga' E uni0308
EndChar
StartChar: Eacute
Encoding: 269 201 163
Width: 600
Flags: W
HStem: 0 41<79.8057 143 185 539> 0 187<516 539> 272 41<185 330> 522 41<79.8057 143 90 478>
VStem: 144 41<41 272 41 522> 330 41<226 272 313 360> 478 40<423 522> 500 39<41 162>
DStem: 382 780 410 748 266 679 294 649
Fore
185 272 m 1xbe
 185 41 l 1
 500 41 l 1xbd
 500 160 l 2
 500 178 506 187 520 187 c 0x7d
 532 187 539 178 539 160 c 2
 539 0 l 1xbd
 90 0 l 2
 72 0 62 8 62 20 c 0
 62 35 72 41 90 41 c 2
 144 41 l 1
 144 522 l 1
 90 522 l 2
 72 522 62 530 62 542 c 0
 62 557 72 563 90 563 c 2
 518 563 l 1
 518 423 l 2
 518 407 512 396 498 396 c 0
 484 396 478 407 478 423 c 2
 478 522 l 1
 185 522 l 1
 185 313 l 1
 330 313 l 1
 330 358 l 2
 330 376 336 385 352 385 c 0
 362 385 371 376 371 358 c 2
 371 226 l 2
 371 209 362 200 352 200 c 0
 336 200 330 209 330 226 c 2
 330 272 l 1
 185 272 l 1xbe
410 748 m 1
 294 649 l 2
 286 642 282 640 276 640 c 0
 264 640 256 649 256 662 c 0
 256 668 256 671 266 679 c 2
 382 780 l 2
 390 786 394 789 400 789 c 0
 412 789 420 780 420 769 c 0
 420 761 418 758 410 748 c 1
EndSplineSet
Ligature: 0 0 'liga' E acutecomb
EndChar
StartChar: Egrave
Encoding: 270 200 164
Width: 600
Flags: W
HStem: 0 41<79.8057 143 185 539> 0 187<516 539> 272 41<185 330> 522 41<79.8057 143 90 478>
VStem: 144 41<41 272 41 522> 330 41<226 272 313 360> 478 40<423 522> 500 39<41 162>
DStem: 208 748 234 780 322 649 348 679
Fore
185 272 m 1xbe
 185 41 l 1
 500 41 l 1xbd
 500 160 l 2
 500 178 506 187 520 187 c 0x7d
 532 187 539 178 539 160 c 2
 539 0 l 1xbd
 90 0 l 2
 72 0 62 8 62 20 c 0
 62 35 72 41 90 41 c 2
 144 41 l 1
 144 522 l 1
 90 522 l 2
 72 522 62 530 62 542 c 0
 62 557 72 563 90 563 c 2
 518 563 l 1
 518 423 l 2
 518 407 512 396 498 396 c 0
 484 396 478 407 478 423 c 2
 478 522 l 1
 185 522 l 1
 185 313 l 1
 330 313 l 1
 330 358 l 2
 330 376 336 385 352 385 c 0
 362 385 371 376 371 358 c 2
 371 226 l 2
 371 209 362 200 352 200 c 0
 336 200 330 209 330 226 c 2
 330 272 l 1
 185 272 l 1xbe
234 780 m 2
 348 679 l 1
 356 673 l 1
 360 668 360 668 360 662 c 0
 360 649 352 640 340 640 c 0
 336 640 330 643 322 649 c 2
 208 748 l 1
 198 758 196 761 196 769 c 0
 196 780 204 789 216 789 c 0
 220 789 228 786 234 780 c 2
EndSplineSet
Ligature: 0 0 'liga' E gravecomb
EndChar
StartChar: Ecircumflex
Encoding: 271 202 165
Width: 600
Flags: W
HStem: 0 41<79.8057 143 185 539> 0 187<516 539> 272 41<185 330> 522 41<79.8057 143 90 478>
VStem: 144 41<41 272 41 522> 330 41<226 272 313 360> 478 40<423 522> 500 39<41 162>
DStem: 310 736 310 789 418 648 442 681 310 789 310 736 178 679 204 648 310 736 310 789 418 648 442 681 310 789 310 736 178 679 204 648 310 736 310 789 418 648 442 681 310 789 310 736 178 679 204 648 310 736 310 789 418 648 442 681 310 789 310 736 178 679 204 648 310 736 310 789 418 648 442 681 310 789 310 736 178 679 204 648 310 736 310 789 418 648 442 681 310 789 310 736 178 679 204 648 310 736 310 789 418 648 442 681 310 789 310 736 178 679 204 648
Fore
185 272 m 1xbe
 185 41 l 1
 500 41 l 1xbd
 500 160 l 2
 500 178 506 187 520 187 c 0x7d
 532 187 539 178 539 160 c 2
 539 0 l 1xbd
 90 0 l 2
 72 0 62 8 62 20 c 0
 62 35 72 41 90 41 c 2
 144 41 l 1
 144 522 l 1
 90 522 l 2
 72 522 62 530 62 542 c 0
 62 557 72 563 90 563 c 2
 518 563 l 1
 518 423 l 2
 518 407 512 396 498 396 c 0
 484 396 478 407 478 423 c 2
 478 522 l 1
 185 522 l 1
 185 313 l 1
 330 313 l 1
 330 358 l 2
 330 376 336 385 352 385 c 0
 362 385 371 376 371 358 c 2
 371 226 l 2
 371 209 362 200 352 200 c 0
 336 200 330 209 330 226 c 2
 330 272 l 1
 185 272 l 1xbe
310 789 m 1
 442 681 l 1
 454 673 456 668 456 660 c 0
 456 649 448 640 436 640 c 0
 432 640 426 643 418 648 c 1
 310 736 l 1
 204 648 l 2
 198 643 190 640 186 640 c 0
 176 640 166 649 166 660 c 0
 166 668 168 673 178 679 c 1
 310 789 l 1
EndSplineSet
Ligature: 0 0 'liga' E uni0302
EndChar
StartChar: Ecaron
Encoding: 272 282 166
Width: 600
Flags: W
HStem: 0 41<79.8057 143 185 539> 0 187<516 539> 272 41<185 330> 522 41<79.8057 143 90 478>
VStem: 144 41<41 272 41 522> 330 41<226 272 313 360> 478 40<423 522> 500 39<41 162>
DStem: 188 750 212 781 320 641 320 695 426 781 452 750 320 695 320 641
Fore
320 641 m 1x3c
 188 750 l 2
 178 758 176 761 176 770 c 0
 176 781 184 791 194 791 c 0
 198 791 206 786 212 781 c 2
 320 695 l 1
 426 781 l 1
 434 786 440 791 444 791 c 0
 454 791 464 781 464 770 c 0
 464 762 462 758 452 750 c 2
 320 641 l 1x3c
185 272 m 1
 185 41 l 1
 500 41 l 1xbd
 500 160 l 2
 500 178 506 187 520 187 c 0x7d
 532 187 539 178 539 160 c 2
 539 0 l 1xbd
 90 0 l 2
 72 0 62 8 62 20 c 0
 62 35 72 41 90 41 c 2
 144 41 l 1
 144 522 l 1
 90 522 l 2
 72 522 62 530 62 542 c 0
 62 557 72 563 90 563 c 2
 518 563 l 1
 518 423 l 2
 518 407 512 396 498 396 c 0
 484 396 478 407 478 423 c 2
 478 522 l 1xbe
 185 522 l 1
 185 313 l 1
 330 313 l 1
 330 358 l 2
 330 376 336 385 352 385 c 0
 362 385 371 376 371 358 c 2
 371 226 l 2
 371 209 362 200 352 200 c 0
 336 200 330 209 330 226 c 2
 330 272 l 1
 185 272 l 1
EndSplineSet
Ligature: 0 0 'liga' E uni030C
EndChar
StartChar: Edotaccent
Encoding: 273 278 167
Width: 600
Flags: W
HStem: 0 41<79.8057 143 185 539> 0 187<516 539> 272 41<185 330> 522 41<79.8057 143 90 478> 641 110<308 335>
VStem: 144 41<41 272 41 522> 288 63<657.081 727> 330 41<226 272 313 360> 478 40<423 522> 500 39<41 162>
Fore
308 751 m 2x3e
 330 751 l 2x3d
 344 751 351 743 351 725 c 2
 351 668 l 2x3e
 351 649 344 641 330 641 c 2x3d
 308 641 l 2
 294 641 288 649 288 668 c 2
 288 725 l 2
 288 743 294 751 308 751 c 2x3e
185 272 m 1
 185 41 l 1
 500 41 l 1xbd40
 500 160 l 2
 500 178 506 187 520 187 c 0x7d40
 532 187 539 178 539 160 c 2
 539 0 l 1xbd40
 90 0 l 2
 72 0 62 8 62 20 c 0
 62 35 72 41 90 41 c 2
 144 41 l 1
 144 522 l 1
 90 522 l 2
 72 522 62 530 62 542 c 0
 62 557 72 563 90 563 c 2
 518 563 l 1
 518 423 l 2
 518 407 512 396 498 396 c 0
 484 396 478 407 478 423 c 2
 478 522 l 1xbc80
 185 522 l 1
 185 313 l 1
 330 313 l 1
 330 358 l 2
 330 376 336 385 352 385 c 0
 362 385 371 376 371 358 c 2
 371 226 l 2
 371 209 362 200 352 200 c 0
 336 200 330 209 330 226 c 2
 330 272 l 1
 185 272 l 1
EndSplineSet
Ligature: 0 0 'liga' E uni0307
EndChar
StartChar: Eogonek
Encoding: 274 280 168
Width: 600
Flags: W
HStem: -156 33<474 486> 0 41<64.8007 127 169 478> 272 41<169 314> 522 41<64.8007 127 76 462>
VStem: 128 41<41 272 41 522> 314 41<215.901 272 313 360> 400 39<-95 -86> 462 41<423 522> 484 39<41 165>
Fore
169 272 m 1xff
 169 41 l 1
 484 41 l 1
 484 160 l 2
 484 178 490 187 504 187 c 0
 518 187 523 178 523 160 c 2
 523 0 l 1xfe80
 496 -14 l 2
 458 -36 439 -61 439 -88 c 0
 439 -112 456 -123 482 -123 c 0
 502 -123 508 -121 530 -107 c 0
 534 -105 538 -104 540 -104 c 0
 546 -104 554 -110 554 -119 c 0
 554 -135 512 -156 476 -156 c 0
 428 -156 400 -132 400 -93 c 0
 400 -53 422 -27 478 0 c 1
 76 0 l 2
 56 0 46 8 46 20 c 0
 46 35 56 41 76 41 c 2
 128 41 l 1
 128 522 l 1
 76 522 l 2
 56 522 46 530 46 542 c 0
 46 557 56 563 76 563 c 2
 503 563 l 1
 503 423 l 2
 503 407 496 396 482 396 c 0
 470 396 462 407 462 423 c 2
 462 522 l 1
 169 522 l 1
 169 313 l 1
 314 313 l 1
 314 358 l 2
 314 376 320 385 336 385 c 0
 348 385 355 376 355 358 c 2
 355 226 l 2
 355 209 348 200 336 200 c 0
 320 200 314 209 314 226 c 2
 314 272 l 1
 169 272 l 1xff
EndSplineSet
Ligature: 0 0 'liga' E uni0328
EndChar
StartChar: Gbreve
Encoding: 275 286 169
Width: 600
Flags: W
HStem: -16 41<300 339> 209 41<328 468 328 531> 418 145<488 490> 535 42<289 328> 640 41<318 330>
VStem: 50 41<244 320> 468 40<59 209 441 445 522 545>
Fore
508 209 m 1xde
 508 36 l 1
 450 3 384 -16 320 -16 c 0
 156 -16 50 86 50 244 c 2
 50 318 l 2
 50 390 82 464 132 511 c 0
 178 553 236 577 302 577 c 0xde
 368 577 422 558 468 522 c 1
 468 536 l 2
 468 553 474 563 488 563 c 0
 502 563 508 555 508 536 c 2
 508 445 l 2
 508 428 502 418 488 418 c 0xee
 474 418 470 426 470 443 c 1
 464 494 392 535 304 535 c 0
 246 535 202 519 164 481 c 1
 120 440 91 376 91 316 c 2
 91 244 l 2
 91 108 180 25 324 25 c 0
 376 25 412 33 468 60 c 1
 468 209 l 1
 328 209 l 2
 310 209 302 215 302 231 c 0
 302 242 310 250 328 250 c 2
 522 250 l 2
 542 250 550 242 550 231 c 0
 550 215 542 209 522 209 c 2
 508 209 l 1xde
194 769 m 0
 208 769 212 763 214 747 c 0
 218 711 262 681 318 681 c 0
 374 681 418 711 422 747 c 0
 424 763 430 769 442 769 c 0
 454 769 464 761 464 747 c 0
 464 687 400 640 318 640 c 0
 236 640 172 687 172 747 c 0
 172 761 182 769 194 769 c 0
EndSplineSet
Ligature: 0 0 'liga' G uni0306
EndChar
StartChar: Idieresis
Encoding: 276 207 170
Width: 600
Flags: W
HStem: 0 41<130.796 280 321 467> 522 41<130.796 280 140 467> 662 99<180.169 195 402.088 419>
VStem: 140 98<711 721> 280 41<40 522> 360 101<711 721>
Fore
321 522 m 1
 321 41 l 1
 458 41 l 2
 478 41 486 35 486 20 c 0
 486 8 476 0 458 0 c 2
 140 0 l 2
 124 0 114 8 114 20 c 0
 114 35 124 41 140 41 c 2
 280 41 l 1
 280 522 l 1
 140 522 l 2
 124 522 114 530 114 542 c 0
 114 557 124 563 140 563 c 2
 458 563 l 2
 478 563 486 557 486 542 c 0
 486 530 478 522 458 522 c 2
 321 522 l 1
190 761 m 0
 218 761 238 737 238 711 c 0
 238 684 214 662 190 662 c 0
 162 662 140 684 140 711 c 0
 140 737 162 761 190 761 c 0
412 761 m 0
 438 761 461 737 461 711 c 0
 461 684 438 662 412 662 c 0
 384 662 360 684 360 711 c 0
 360 737 384 761 412 761 c 0
EndSplineSet
Ligature: 0 0 'liga' I uni0308
EndChar
StartChar: Iacute
Encoding: 277 205 171
Width: 600
Flags: W
HStem: 0 41<130.796 280 321 467> 522 41<130.796 280 140 467>
VStem: 280 41<40 522>
DStem: 406 780 434 748 292 679 320 649
Fore
321 522 m 1
 321 41 l 1
 458 41 l 2
 478 41 486 35 486 20 c 0
 486 8 476 0 458 0 c 2
 140 0 l 2
 124 0 114 8 114 20 c 0
 114 35 124 41 140 41 c 2
 280 41 l 1
 280 522 l 1
 140 522 l 2
 124 522 114 530 114 542 c 0
 114 557 124 563 140 563 c 2
 458 563 l 2
 478 563 486 557 486 542 c 0
 486 530 478 522 458 522 c 2
 321 522 l 1
434 748 m 1
 320 649 l 1
 310 642 306 640 300 640 c 0
 290 640 280 649 280 662 c 0
 280 668 282 671 292 679 c 2
 406 780 l 1
 414 786 418 789 424 789 c 0
 436 789 444 780 444 769 c 0
 444 761 442 758 434 748 c 1
EndSplineSet
Ligature: 0 0 'liga' I acutecomb
EndChar
StartChar: Igrave
Encoding: 278 204 172
Width: 600
Flags: W
HStem: 0 41<130.796 280 321 467> 522 41<130.796 280 140 467>
VStem: 280 41<40 522>
DStem: 204 748 232 780 316 649 344 679
Fore
321 522 m 1
 321 41 l 1
 458 41 l 2
 478 41 486 35 486 20 c 0
 486 8 476 0 458 0 c 2
 140 0 l 2
 124 0 114 8 114 20 c 0
 114 35 124 41 140 41 c 2
 280 41 l 1
 280 522 l 1
 140 522 l 2
 124 522 114 530 114 542 c 0
 114 557 124 563 140 563 c 2
 458 563 l 2
 478 563 486 557 486 542 c 0
 486 530 478 522 458 522 c 2
 321 522 l 1
232 780 m 1
 344 679 l 1
 352 673 l 1
 356 668 356 668 356 662 c 0
 356 649 348 640 334 640 c 0
 330 640 324 643 316 649 c 1
 204 748 l 1
 194 758 190 761 190 769 c 0
 190 780 200 789 210 789 c 0
 218 789 222 786 232 780 c 1
EndSplineSet
Ligature: 0 0 'liga' I gravecomb
EndChar
StartChar: Icircumflex
Encoding: 279 206 173
Width: 600
Flags: W
HStem: 0 41<130.796 280 321 467> 522 41<130.796 280 140 467>
VStem: 280 41<40 522>
DStem: 300 736 300 789 406 648 432 681 300 789 300 736 168 679 194 648 300 736 300 789 406 648 432 681 300 789 300 736 168 679 194 648 300 736 300 789 406 648 432 681 300 789 300 736 168 679 194 648 300 736 300 789 406 648 432 681 300 789 300 736 168 679 194 648 300 736 300 789 406 648 432 681 300 789 300 736 168 679 194 648 300 736 300 789 406 648 432 681 300 789 300 736 168 679 194 648 300 736 300 789 406 648 432 681 300 789 300 736 168 679 194 648
Fore
321 522 m 1
 321 41 l 1
 458 41 l 2
 478 41 486 35 486 20 c 0
 486 8 476 0 458 0 c 2
 140 0 l 2
 124 0 114 8 114 20 c 0
 114 35 124 41 140 41 c 2
 280 41 l 1
 280 522 l 1
 140 522 l 2
 124 522 114 530 114 542 c 0
 114 557 124 563 140 563 c 2
 458 563 l 2
 478 563 486 557 486 542 c 0
 486 530 478 522 458 522 c 2
 321 522 l 1
300 789 m 1
 432 681 l 1
 444 673 444 668 444 660 c 0
 444 649 436 640 424 640 c 0
 420 640 414 643 406 648 c 1
 300 736 l 1
 194 648 l 1
 186 643 180 640 176 640 c 0
 164 640 156 649 156 660 c 0
 156 668 158 673 168 679 c 1
 300 789 l 1
EndSplineSet
Ligature: 0 0 'liga' I uni0302
EndChar
StartChar: Idotaccent
Encoding: 280 304 174
Width: 600
Flags: W
HStem: 0 41<130.796 280 321 467> 522 41<130.796 280 140 467> 662 99<290.74 307>
VStem: 280 41<40 522>
Fore
321 522 m 1
 321 41 l 1
 458 41 l 2
 478 41 486 35 486 20 c 0
 486 8 476 0 458 0 c 2
 140 0 l 2
 124 0 114 8 114 20 c 0
 114 35 124 41 140 41 c 2
 280 41 l 1
 280 522 l 1
 140 522 l 2
 124 522 114 530 114 542 c 0
 114 557 124 563 140 563 c 2
 458 563 l 2
 478 563 486 557 486 542 c 0
 486 530 478 522 458 522 c 2
 321 522 l 1
300 761 m 0
 328 761 348 737 348 711 c 0
 348 684 328 662 300 662 c 0
 274 662 250 684 250 711 c 0
 250 737 274 761 300 761 c 0
EndSplineSet
Ligature: 0 0 'liga' I uni0307
EndChar
StartChar: Lacute
Encoding: 281 313 175
Width: 600
Flags: W
HStem: 0 41<77.8057 184 224 539> 0 228<516 539> 522 41<77.8057 184 88 328>
VStem: 184 40<41 522> 498 41<41 209>
DStem: 326 780 352 748 210 679 236 649
Fore
224 522 m 1xb8
 224 41 l 1
 498 41 l 1xb8
 498 201 l 2
 498 219 506 228 518 228 c 0x78
 532 228 539 219 539 201 c 2
 539 0 l 1
 88 0 l 2
 70 0 60 8 60 20 c 0
 60 35 70 41 88 41 c 2
 184 41 l 1
 184 522 l 1
 88 522 l 2
 70 522 60 530 60 542 c 0
 60 557 70 563 88 563 c 2
 320 563 l 2
 340 563 346 557 346 542 c 0
 346 530 340 522 320 522 c 2
 224 522 l 1xb8
352 748 m 1
 236 649 l 1
 230 642 224 640 218 640 c 0
 208 640 198 649 198 662 c 0
 198 668 198 671 210 679 c 1
 326 780 l 2
 332 786 336 789 342 789 c 0
 354 789 364 780 364 769 c 0
 364 761 360 758 352 748 c 1
EndSplineSet
Ligature: 0 0 'liga' L acutecomb
EndChar
StartChar: Lcaron
Encoding: 282 317 176
Width: 600
Flags: W
HStem: 0 41<77.8057 184 224 539> 522 41<77.8057 184 88 322>
VStem: 184 40<41 522> 498 41<41 209>
DStem: 466 552 500 530 382 426 416 403
Fore
224 522 m 1
 224 41 l 1
 498 41 l 1
 498 201 l 2
 498 219 506 228 518 228 c 0
 532 228 539 219 539 201 c 2
 539 0 l 1
 88 0 l 2
 70 0 60 8 60 20 c 0
 60 35 70 41 88 41 c 2
 184 41 l 1
 184 522 l 1
 88 522 l 2
 70 522 60 530 60 542 c 0
 60 557 70 563 88 563 c 2
 320 563 l 2
 340 563 346 557 346 542 c 0
 346 530 340 522 320 522 c 2
 224 522 l 1
500 530 m 1
 416 403 l 1
 408 392 404 390 394 390 c 0
 384 390 374 398 374 410 c 0
 374 414 374 418 382 426 c 1
 466 552 l 1
 474 561 480 566 484 566 c 0
 498 566 506 557 506 546 c 0
 506 542 506 538 502 533 c 2
 500 530 l 1
EndSplineSet
Ligature: 0 0 'liga' L uni030C
EndChar
StartChar: Nacute
Encoding: 283 323 177
Width: 600
Flags: W
HStem: 0 41<67.0238 111 153 230> 522 41<58 111 383.024 470 394 546>
VStem: 112 41<40 503> 470 41<60 522>
DStem: 153 503 164 563 458 0 470 60 416 780 442 748 300 679 328 649
Fore
511 0 m 1
 458 0 l 1
 153 503 l 1
 153 41 l 1
 228 41 l 2
 246 41 256 35 256 20 c 0
 256 8 244 0 228 0 c 2
 78 0 l 2
 58 0 50 8 50 20 c 0
 50 35 58 41 78 41 c 2
 112 41 l 1
 112 522 l 1
 58 522 l 2
 40 522 30 530 30 542 c 0
 30 557 40 563 58 563 c 2
 164 563 l 1
 470 60 l 1
 470 522 l 1
 394 522 l 2
 374 522 366 530 366 542 c 0
 366 557 374 563 394 563 c 2
 544 563 l 2
 562 563 570 557 570 542 c 0
 570 530 562 522 544 522 c 2
 511 522 l 1
 511 0 l 1
442 748 m 1
 328 649 l 1
 318 642 316 640 308 640 c 0
 298 640 288 649 288 662 c 0
 288 668 290 671 300 679 c 2
 416 780 l 2
 424 786 426 789 434 789 c 0
 444 789 454 780 454 769 c 0
 454 761 450 758 442 748 c 1
EndSplineSet
Ligature: 0 0 'liga' N acutecomb
EndChar
StartChar: Ncaron
Encoding: 284 327 178
Width: 600
Flags: W
HStem: 0 41<67.0238 111 153 230> 522 41<58 111 383.024 470 394 546>
VStem: 112 41<40 503> 470 41<60 522>
DStem: 153 503 164 563 458 0 470 60 176 748 202 781 308 640 308 693 416 781 440 747 308 693 308 640
Fore
511 0 m 1
 458 0 l 1
 153 503 l 1
 153 41 l 1
 228 41 l 2
 246 41 256 35 256 20 c 0
 256 8 244 0 228 0 c 2
 78 0 l 2
 58 0 50 8 50 20 c 0
 50 35 58 41 78 41 c 2
 112 41 l 1
 112 522 l 1
 58 522 l 2
 40 522 30 530 30 542 c 0
 30 557 40 563 58 563 c 2
 164 563 l 1
 470 60 l 1
 470 522 l 1
 394 522 l 2
 374 522 366 530 366 542 c 0
 366 557 374 563 394 563 c 2
 544 563 l 2
 562 563 570 557 570 542 c 0
 570 530 562 522 544 522 c 2
 511 522 l 1
 511 0 l 1
308 640 m 1
 176 748 l 2
 166 756 164 759 164 769 c 0
 164 780 172 789 184 789 c 0
 188 789 194 786 202 781 c 1
 308 693 l 1
 416 781 l 2
 422 786 428 789 434 789 c 0
 442 789 454 780 454 769 c 0
 454 761 452 758 440 747 c 1
 308 640 l 1
EndSplineSet
Ligature: 0 0 'liga' N uni030C
EndChar
StartChar: Ntilde
Encoding: 285 209 179
Width: 600
Flags: W
HStem: 0 41<67.0238 111 153 230> 522 41<58 111 383.024 470 394 546> 667 41<364 372> 714 41<246 257>
VStem: 112 41<40 503> 470 41<60 522>
DStem: 153 503 164 563 458 0 470 60
Fore
511 0 m 1
 458 0 l 1
 153 503 l 1
 153 41 l 1
 228 41 l 2
 246 41 256 35 256 20 c 0
 256 8 244 0 228 0 c 2
 78 0 l 2
 58 0 50 8 50 20 c 0
 50 35 58 41 78 41 c 2
 112 41 l 1
 112 522 l 1
 58 522 l 2
 40 522 30 530 30 542 c 0
 30 557 40 563 58 563 c 2
 164 563 l 1
 470 60 l 1
 470 522 l 1
 394 522 l 2
 374 522 366 530 366 542 c 0
 366 557 374 563 394 563 c 2
 544 563 l 2
 562 563 570 557 570 542 c 0
 570 530 562 522 544 522 c 2
 511 522 l 1
 511 0 l 1
442 753 m 0
 452 753 462 744 462 733 c 0
 462 725 458 719 440 701 c 0
 414 676 394 667 370 667 c 0
 348 667 330 673 290 697 c 1
 270 711 258 714 246 714 c 0
 228 714 218 708 188 678 c 0
 184 673 176 668 170 668 c 0
 160 668 152 678 152 689 c 0
 152 697 158 704 170 719 c 1
 198 745 220 755 246 755 c 0
 266 755 278 752 308 731 c 1
 346 711 356 708 368 708 c 0
 386 708 396 714 426 745 c 0
 432 752 436 753 442 753 c 0
EndSplineSet
Ligature: 0 0 'liga' N tildecomb
EndChar
StartChar: Odieresis
Encoding: 286 214 180
Width: 600
Flags: W
HStem: -16 41<300 307> 535 42<300 307> 636 110<200 228 376 404>
VStem: 50 43<280 305> 180 65<663 722> 356 65<663 722> 508 41<255 289>
Fore
200 746 m 2
 226 746 l 2
 238 746 245 738 245 720 c 2
 245 663 l 2
 245 644 238 636 226 636 c 2
 200 636 l 2
 188 636 180 644 180 663 c 2
 180 720 l 2
 180 738 188 746 200 746 c 2
376 746 m 2
 402 746 l 2
 412 746 421 738 421 720 c 2
 421 663 l 2
 421 644 412 636 402 636 c 2
 376 636 l 2
 364 636 356 644 356 663 c 2
 356 720 l 2
 356 738 364 746 376 746 c 2
300 577 m 0
 440 577 549 447 549 275 c 0
 549 115 438 -16 300 -16 c 0
 162 -16 50 115 50 280 c 0
 50 445 162 577 300 577 c 0
300 535 m 0
 184 535 93 420 93 280 c 0
 93 140 186 25 300 25 c 0
 412 25 508 140 508 277 c 0
 508 421 418 535 300 535 c 0
EndSplineSet
KernsSLIF: 89 -125 0 0 88 -101 0 0 87 -7 0 0 86 -74 0 0 84 -73 0 0 65 -63 0 0
Ligature: 0 0 'liga' O uni0308
EndChar
StartChar: Oacute
Encoding: 287 211 181
Width: 600
Flags: W
HStem: -16 41<300 307> 535 42<300 307>
VStem: 50 43<280 305> 508 41<255 289>
DStem: 378 780 404 748 264 679 290 649
Fore
300 577 m 0
 440 577 549 447 549 275 c 0
 549 115 438 -16 300 -16 c 0
 162 -16 50 115 50 280 c 0
 50 445 162 577 300 577 c 0
300 535 m 0
 184 535 93 420 93 280 c 0
 93 140 186 25 300 25 c 0
 412 25 508 140 508 277 c 0
 508 421 418 535 300 535 c 0
404 748 m 1
 290 649 l 2
 282 642 278 640 270 640 c 0
 260 640 252 649 252 662 c 0
 252 668 254 671 264 679 c 2
 378 780 l 1
 386 786 390 789 396 789 c 0
 408 789 418 780 418 769 c 0
 418 761 412 758 404 748 c 1
EndSplineSet
KernsSLIF: 89 -125 0 0 87 -7 0 0 86 -74 0 0 84 -73 0 0 65 -63 0 0
Ligature: 0 0 'liga' O acutecomb
EndChar
StartChar: Ograve
Encoding: 288 210 182
Width: 600
Flags: W
HStem: -16 41<300 314> 535 42<300 314>
VStem: 50 43<280 305> 508 41<255 289>
DStem: 198 748 226 780 312 649 338 679
Fore
300 577 m 0
 440 577 549 447 549 275 c 0
 549 115 438 -16 300 -16 c 0
 162 -16 50 115 50 280 c 0
 50 445 162 577 300 577 c 0
300 535 m 0
 184 535 93 420 93 280 c 0
 93 140 186 25 300 25 c 0
 412 25 508 140 508 277 c 0
 508 421 418 535 300 535 c 0
226 780 m 1
 338 679 l 1
 344 673 l 2
 350 668 350 668 350 662 c 0
 350 649 342 640 330 640 c 0
 324 640 318 643 312 649 c 2
 198 748 l 1
 190 758 184 761 184 769 c 0
 184 780 194 789 204 789 c 0
 212 789 216 786 226 780 c 1
EndSplineSet
KernsSLIF: 89 -125 0 0 86 -74 0 0 84 -73 0 0
Ligature: 0 0 'liga' O gravecomb
EndChar
StartChar: Ocircumflex
Encoding: 289 212 183
Width: 600
Flags: W
HStem: -16 41<300 307> 535 42<300 307>
VStem: 50 43<280 305> 508 41<255 289>
DStem: 300 736 300 789 408 648 432 681 300 789 300 736 168 679 194 648 300 736 300 789 408 648 432 681 300 789 300 736 168 679 194 648 300 736 300 789 408 648 432 681 300 789 300 736 168 679 194 648 300 736 300 789 408 648 432 681 300 789 300 736 168 679 194 648 300 736 300 789 408 648 432 681 300 789 300 736 168 679 194 648 300 736 300 789 408 648 432 681 300 789 300 736 168 679 194 648 300 736 300 789 408 648 432 681 300 789 300 736 168 679 194 648
Fore
300 577 m 0
 440 577 549 447 549 275 c 0
 549 115 438 -16 300 -16 c 0
 162 -16 50 115 50 280 c 0
 50 445 162 577 300 577 c 0
300 535 m 0
 184 535 93 420 93 280 c 0
 93 140 186 25 300 25 c 0
 412 25 508 140 508 277 c 0
 508 421 418 535 300 535 c 0
300 789 m 1
 432 681 l 1
 444 673 446 668 446 660 c 0
 446 649 436 640 426 640 c 0
 420 640 414 643 408 648 c 2
 300 736 l 1
 194 648 l 1
 186 643 180 640 176 640 c 0
 164 640 156 649 156 660 c 0
 156 668 158 673 168 679 c 1
 300 789 l 1
EndSplineSet
KernsSLIF: 89 -125 0 0 86 -74 0 0 84 -73 0 0
Ligature: 0 0 'liga' O uni0302
EndChar
StartChar: Otilde
Encoding: 290 213 184
Width: 600
Flags: W
HStem: -16 41<300 312> 535 42<300 312> 667 41<366 372> 714 41<241 250>
VStem: 50 43<280 305> 508 41<255 289>
Fore
300 577 m 0
 440 577 549 447 549 275 c 0
 549 115 438 -16 300 -16 c 0
 162 -16 50 115 50 280 c 0
 50 445 162 577 300 577 c 0
300 535 m 0
 184 535 93 420 93 280 c 0
 93 140 186 25 300 25 c 0
 412 25 508 140 508 277 c 0
 508 421 418 535 300 535 c 0
440 753 m 0
 452 753 462 744 462 733 c 0
 462 725 458 719 440 701 c 1
 412 676 394 667 370 667 c 0
 350 667 330 673 290 697 c 1
 270 711 258 714 248 714 c 0
 226 714 218 708 190 678 c 1
 184 673 178 668 172 668 c 0
 160 668 152 678 152 689 c 0
 152 697 158 704 170 719 c 1
 200 745 220 755 246 755 c 0
 264 755 278 752 310 731 c 1
 348 711 356 708 368 708 c 0
 386 708 396 714 426 745 c 0
 432 752 434 753 440 753 c 0
EndSplineSet
KernsSLIF: 89 -125 0 0 86 -74 0 0 84 -73 0 0
Ligature: 0 0 'liga' O tildecomb
EndChar
StartChar: Ohungarumlaut
Encoding: 291 336 185
Width: 600
Flags: W
HStem: -16 41<300 318> 535 42<300 320>
VStem: 50 43<280 305> 508 41<255 289>
DStem: 262 775 290 743 166 681 190 649 408 775 434 743 310 681 336 649
Fore
290 743 m 1
 190 649 l 1
 182 643 176 640 172 640 c 0
 162 640 152 649 152 660 c 0
 152 668 154 670 166 681 c 2
 262 775 l 1
 266 781 272 783 280 783 c 0
 290 783 300 775 300 762 c 0
 300 756 298 753 290 743 c 1
434 743 m 1
 336 649 l 2
 330 643 324 640 318 640 c 0
 308 640 298 649 298 660 c 0
 298 666 300 673 310 681 c 1
 408 775 l 1
 416 781 420 783 428 783 c 0
 438 783 448 775 448 762 c 0
 448 756 446 753 434 743 c 1
300 577 m 0
 440 577 549 447 549 275 c 0
 549 115 438 -16 300 -16 c 0
 162 -16 50 115 50 280 c 0
 50 445 162 577 300 577 c 0
300 535 m 0
 184 535 93 420 93 280 c 0
 93 140 186 25 300 25 c 0
 412 25 508 140 508 277 c 0
 508 421 418 535 300 535 c 0
EndSplineSet
Ligature: 0 0 'liga' O uni030B
EndChar
StartChar: Racute
Encoding: 292 340 186
Width: 600
Flags: W
HStem: 0 41<44.8007 107 150 235 515 555> 252 40<150 282> 522 41<44.8007 107 56 315>
VStem: 108 42<40 252 41 522> 442 39<407 417>
DStem: 392 780 418 748 278 679 304 649
Fore
150 252 m 1
 150 41 l 1
 226 41 l 2
 244 41 252 35 252 20 c 0
 252 8 244 0 226 0 c 2
 56 0 l 2
 36 0 26 8 26 20 c 0
 26 35 36 41 56 41 c 2
 108 41 l 1
 108 522 l 1
 56 522 l 2
 36 522 26 530 26 542 c 0
 26 557 36 563 56 563 c 2
 302 563 l 2
 400 563 481 492 481 407 c 0
 481 343 436 294 344 263 c 1
 408 219 436 182 516 41 c 1
 546 41 l 2
 564 41 574 35 574 20 c 0
 574 8 564 0 546 0 c 2
 490 0 l 1
 402 162 358 215 282 252 c 1
 150 252 l 1
150 292 m 1
 264 292 l 2
 362 292 442 343 442 407 c 0
 442 469 374 522 302 522 c 2
 150 522 l 1
 150 292 l 1
418 748 m 1
 304 649 l 1
 294 642 292 640 284 640 c 0
 274 640 264 649 264 662 c 0
 264 668 266 671 278 679 c 1
 392 780 l 1
 400 786 402 789 410 789 c 0
 422 789 430 780 430 769 c 0
 430 761 426 758 418 748 c 1
EndSplineSet
Ligature: 0 0 'liga' R acutecomb
EndChar
StartChar: Rcaron
Encoding: 293 344 187
Width: 600
Flags: W
HStem: 0 41<44.8007 107 150 235 515 555> 252 40<150 282> 522 41<44.8007 107 56 315>
VStem: 108 42<40 252 41 522> 442 39<407 417>
DStem: 154 748 178 781 284 640 284 693 392 781 416 747 284 693 284 640
Fore
150 252 m 1
 150 41 l 1
 226 41 l 2
 244 41 252 35 252 20 c 0
 252 8 244 0 226 0 c 2
 56 0 l 2
 36 0 26 8 26 20 c 0
 26 35 36 41 56 41 c 2
 108 41 l 1
 108 522 l 1
 56 522 l 2
 36 522 26 530 26 542 c 0
 26 557 36 563 56 563 c 2
 302 563 l 2
 400 563 481 492 481 407 c 0
 481 343 436 294 344 263 c 1
 408 219 436 182 516 41 c 1
 546 41 l 2
 564 41 574 35 574 20 c 0
 574 8 564 0 546 0 c 2
 490 0 l 1
 402 162 358 215 282 252 c 1
 150 252 l 1
150 292 m 1
 264 292 l 2
 362 292 442 343 442 407 c 0
 442 469 374 522 302 522 c 2
 150 522 l 1
 150 292 l 1
284 640 m 1
 154 748 l 1
 142 756 140 759 140 769 c 0
 140 780 150 789 160 789 c 0
 164 789 170 786 178 781 c 1
 284 693 l 1
 392 781 l 2
 398 786 406 789 410 789 c 0
 418 789 430 780 430 769 c 0
 430 761 428 758 416 747 c 1
 284 640 l 1
EndSplineSet
Ligature: 0 0 'liga' R uni030C
EndChar
StartChar: Sacute
Encoding: 294 346 188
Width: 600
Flags: W
HStem: -16 41<278 321> 0 167<112 116> 407 156<464 466> 535 42<281 321>
VStem: 92 41<27 57 27 142> 114 44<406 435> 464 44<138 167>
DStem: 406 780 434 748 292 679 318 649
Fore
444 517 m 1x96
 444 536 l 2
 444 553 450 563 464 563 c 0
 480 563 486 553 486 536 c 2
 486 434 l 2
 486 415 480 407 464 407 c 0x26
 454 407 446 414 444 429 c 0
 440 491 380 535 302 535 c 0
 220 535 158 486 158 420 c 0
 158 390 172 360 198 343 c 0
 224 327 248 319 310 310 c 1
 388 296 416 288 446 269 c 0
 486 245 508 201 508 151 c 0
 508 53 422 -16 302 -16 c 0x96
 232 -16 172 8 133 57 c 1
 133 27 l 2
 133 8 126 0 112 0 c 0
 98 0 92 8 92 27 c 2
 92 140 l 2
 92 157 98 167 112 167 c 0
 126 167 131 157 133 142 c 1x4a
 134 77 210 25 300 25 c 0
 394 25 464 79 464 153 c 0
 464 189 446 220 418 237 c 0
 394 253 374 258 302 270 c 0
 232 283 196 296 168 316 c 0
 134 340 114 379 114 421 c 0
 114 508 192 577 298 577 c 0
 358 577 402 558 444 517 c 1x96
434 748 m 1
 318 649 l 2
 310 642 306 640 300 640 c 0
 288 640 280 649 280 662 c 0
 280 668 282 671 292 679 c 2
 406 780 l 1
 414 786 418 789 424 789 c 0
 436 789 444 780 444 769 c 0
 444 761 442 758 434 748 c 1
EndSplineSet
Ligature: 0 0 'liga' S acutecomb
EndChar
StartChar: Scaron
Encoding: 295 352 189
Width: 600
Flags: W
HStem: -16 41<283 317> 0 167<112 116> 407 156<464 466> 535 42<283 317>
VStem: 92 41<27 57 27 142> 114 44<406 435> 464 44<138 167>
DStem: 178 748 202 781 310 640 310 693 418 781 442 747 310 693 310 640
Fore
444 517 m 1x96
 444 536 l 2
 444 553 450 563 464 563 c 0
 480 563 486 553 486 536 c 2
 486 434 l 2
 486 415 480 407 464 407 c 0x26
 454 407 446 414 444 429 c 0
 440 491 380 535 302 535 c 0
 220 535 158 486 158 420 c 0
 158 390 172 360 198 343 c 0
 224 327 248 319 310 310 c 1
 388 296 416 288 446 269 c 0
 486 245 508 201 508 151 c 0
 508 53 422 -16 302 -16 c 0x96
 232 -16 172 8 133 57 c 1
 133 27 l 2
 133 8 126 0 112 0 c 0
 98 0 92 8 92 27 c 2
 92 140 l 2
 92 157 98 167 112 167 c 0
 126 167 131 157 133 142 c 1x4a
 134 77 210 25 300 25 c 0
 394 25 464 79 464 153 c 0
 464 189 446 220 418 237 c 0
 394 253 374 258 302 270 c 0
 232 283 196 296 168 316 c 0
 134 340 114 379 114 421 c 0
 114 508 192 577 298 577 c 0
 358 577 402 558 444 517 c 1x96
310 640 m 1
 178 748 l 2
 168 756 164 759 164 769 c 0
 164 780 172 789 184 789 c 0
 190 789 196 786 202 781 c 2
 310 693 l 1
 418 781 l 1
 422 786 430 789 434 789 c 0
 444 789 454 780 454 769 c 0
 454 761 454 758 442 747 c 1
 310 640 l 1
EndSplineSet
Ligature: 0 0 'liga' S uni030C
EndChar
StartChar: Scedilla
Encoding: 296 350 190
Width: 600
Flags: W
HStem: -173 38<292 304> -82 107<283 310> 0 167<112 116> 407 156<464 466> 535 42<283 317>
VStem: 92 41<27 57 27 142> 114 44<406 434> 274 36<-82 -16> 340 36<-110 -103> 464 44<138 167>
Fore
310 -16 m 1x8bc0
 310 -47 l 1
 354 -49 376 -71 376 -108 c 0
 376 -146 344 -173 298 -173 c 0
 278 -173 246 -165 228 -156 c 0
 214 -148 210 -143 210 -134 c 0
 210 -123 220 -115 230 -115 c 0
 234 -115 236 -115 244 -119 c 0
 268 -131 282 -135 296 -135 c 0
 322 -135 340 -123 340 -105 c 0
 340 -88 326 -82 294 -82 c 2
 274 -82 l 1xcbc0
 274 -14 l 1
 214 -8 163 19 133 57 c 1
 133 27 l 2
 133 8 126 0 112 0 c 0
 98 0 92 8 92 27 c 2
 92 140 l 2
 92 157 98 167 112 167 c 0
 126 167 131 157 133 142 c 1xa5c0
 134 77 210 25 300 25 c 0
 394 25 464 79 464 153 c 0
 464 189 446 220 418 237 c 0
 394 253 374 258 302 270 c 0
 232 283 196 296 168 316 c 0
 134 340 114 379 114 421 c 0
 114 508 192 577 298 577 c 0xcbc0
 358 577 404 557 444 517 c 1
 444 536 l 2
 444 553 450 563 464 563 c 0
 480 563 486 553 486 536 c 2
 486 434 l 2
 486 415 480 407 464 407 c 0x93c0
 454 407 446 414 444 429 c 0
 440 491 380 535 302 535 c 0
 220 535 158 486 158 420 c 0
 158 390 172 360 198 343 c 0
 224 327 248 319 310 310 c 1
 388 296 416 288 446 269 c 0
 486 245 508 201 508 151 c 0
 508 57 428 -9 310 -16 c 1x8bc0
EndSplineSet
Ligature: 0 0 'liga' S uni0327
EndChar
StartChar: Tcaron
Encoding: 297 356 191
Width: 600
Flags: W
HStem: 0 41<176 280 322 434> 423 21G<87 99 502 515> 522 41<72 280 72 486>
VStem: 72 41<450 522> 280 42<40 522> 486 41<450 522>
DStem: 168 748 194 781 300 640 300 693 406 781 432 747 300 693 300 640
Fore
322 41 m 1
 426 41 l 2
 444 41 454 35 454 20 c 0
 454 8 444 0 426 0 c 2
 176 0 l 2
 158 0 148 8 148 20 c 0
 148 35 158 41 176 41 c 2
 280 41 l 1
 280 522 l 1
 113 522 l 1
 113 450 l 2
 113 431 104 423 94 423 c 0
 80 423 72 431 72 450 c 2
 72 563 l 1
 527 563 l 1
 527 450 l 2
 527 429 522 423 508 423 c 0
 496 423 486 434 486 450 c 2
 486 522 l 1
 322 522 l 1
 322 41 l 1
300 640 m 1
 168 748 l 2
 158 756 156 759 156 769 c 0
 156 780 164 789 176 789 c 0
 180 789 186 786 194 781 c 1
 300 693 l 1
 406 781 l 1
 414 786 420 789 424 789 c 0
 434 789 444 780 444 769 c 0
 444 761 444 758 432 747 c 1
 300 640 l 1
EndSplineSet
Ligature: 0 0 'liga' T uni030C
EndChar
StartChar: Udieresis
Encoding: 298 220 192
Width: 600
Flags: W
HStem: -16 41<281.442 313> 522 41<56.7963 102 66 218 384 457 384 536> 662 99<190 192 410 412>
VStem: 102 41<184 522> 140 99<711 721> 360 101<711 721> 458 40<184 522>
Fore
498 522 m 1xf2
 498 184 l 2
 498 72 412 -16 300 -16 c 0
 188 -16 102 72 102 184 c 2
 102 522 l 1
 66 522 l 2
 50 522 40 530 40 542 c 0
 40 557 50 563 66 563 c 2
 216 563 l 2
 234 563 242 557 242 542 c 0
 242 530 234 522 216 522 c 2
 143 522 l 1
 143 184 l 2
 143 94 212 25 300 25 c 0
 388 25 458 94 458 184 c 2
 458 522 l 1
 384 522 l 2
 366 522 358 530 358 542 c 0
 358 557 366 563 384 563 c 2
 534 563 l 2
 552 563 560 557 560 542 c 0
 560 530 550 522 534 522 c 2
 498 522 l 1xf2
190 761 m 0
 218 761 239 737 239 711 c 0
 239 684 216 662 190 662 c 0
 162 662 140 684 140 711 c 0xe8
 140 737 162 761 190 761 c 0
410 761 m 0
 440 761 461 737 461 711 c 0
 461 684 438 662 410 662 c 0
 384 662 360 684 360 711 c 0xe4
 360 737 384 761 410 761 c 0
EndSplineSet
KernsSLIF: 114 -101 0 0 46 -245 0 0 110 -46 0 0 109 14 0 0 44 -187 0 0 98 59 0 0 65 -45 0 0
Ligature: 0 0 'liga' U uni0308
EndChar
StartChar: Uacute
Encoding: 299 218 193
Width: 600
Flags: W
HStem: -16 41<300 313> 522 41<56.7963 102 66 218 384 457 384 536>
VStem: 102 41<184 522> 458 40<184 522>
DStem: 374 780 402 748 260 679 286 649
Fore
498 522 m 1
 498 184 l 2
 498 72 412 -16 300 -16 c 0
 188 -16 102 72 102 184 c 2
 102 522 l 1
 66 522 l 2
 50 522 40 530 40 542 c 0
 40 557 50 563 66 563 c 2
 216 563 l 2
 234 563 242 557 242 542 c 0
 242 530 234 522 216 522 c 2
 143 522 l 1
 143 184 l 2
 143 94 212 25 300 25 c 0
 388 25 458 94 458 184 c 2
 458 522 l 1
 384 522 l 2
 366 522 358 530 358 542 c 0
 358 557 366 563 384 563 c 2
 534 563 l 2
 552 563 560 557 560 542 c 0
 560 530 550 522 534 522 c 2
 498 522 l 1
402 748 m 1
 286 649 l 2
 278 642 274 640 270 640 c 0
 258 640 248 649 248 662 c 0
 248 668 250 671 260 679 c 2
 374 780 l 1
 384 786 388 789 394 789 c 0
 404 789 412 780 412 769 c 0
 412 761 410 758 402 748 c 1
EndSplineSet
KernsSLIF: 114 -101 0 0 46 -245 0 0 110 -46 0 0 109 14 0 0 44 -187 0 0 65 -45 0 0
Ligature: 0 0 'liga' U acutecomb
EndChar
StartChar: Ugrave
Encoding: 300 217 194
Width: 600
Flags: W
HStem: -16 41<281.442 317> 522 41<56.7963 102 66 226 384 457 384 536>
VStem: 102 41<184 522> 458 40<184 522>
DStem: 200 748 226 780 314 649 342 679
Fore
498 522 m 1
 498 184 l 2
 498 72 412 -16 300 -16 c 0
 188 -16 102 72 102 184 c 2
 102 522 l 1
 66 522 l 2
 50 522 40 530 40 542 c 0
 40 557 50 563 66 563 c 2
 216 563 l 2
 234 563 242 557 242 542 c 0
 242 530 234 522 216 522 c 2
 143 522 l 1
 143 184 l 2
 143 94 212 25 300 25 c 0
 388 25 458 94 458 184 c 2
 458 522 l 1
 384 522 l 2
 366 522 358 530 358 542 c 0
 358 557 366 563 384 563 c 2
 534 563 l 2
 552 563 560 557 560 542 c 0
 560 530 550 522 534 522 c 2
 498 522 l 1
226 780 m 2
 342 679 l 1
 350 673 l 1
 354 668 354 668 354 662 c 0
 354 649 344 640 332 640 c 0
 328 640 322 643 314 649 c 2
 200 748 l 1
 190 758 190 761 190 769 c 0
 190 780 198 789 208 789 c 0
 214 789 220 786 226 780 c 2
EndSplineSet
KernsSLIF: 65 -45 0 0
Ligature: 0 0 'liga' U gravecomb
EndChar
StartChar: Ucircumflex
Encoding: 301 219 195
Width: 600
Flags: W
HStem: -16 41<281.442 313> 522 41<56.7963 102 66 218 384 457 384 536>
VStem: 102 41<184 522> 458 40<184 522>
DStem: 300 736 300 789 408 648 432 681 300 789 300 736 168 679 194 648 300 736 300 789 408 648 432 681 300 789 300 736 168 679 194 648 300 736 300 789 408 648 432 681 300 789 300 736 168 679 194 648 300 736 300 789 408 648 432 681 300 789 300 736 168 679 194 648 300 736 300 789 408 648 432 681 300 789 300 736 168 679 194 648 300 736 300 789 408 648 432 681 300 789 300 736 168 679 194 648 300 736 300 789 408 648 432 681 300 789 300 736 168 679 194 648
Fore
498 522 m 1
 498 184 l 2
 498 72 412 -16 300 -16 c 0
 188 -16 102 72 102 184 c 2
 102 522 l 1
 66 522 l 2
 50 522 40 530 40 542 c 0
 40 557 50 563 66 563 c 2
 216 563 l 2
 234 563 242 557 242 542 c 0
 242 530 234 522 216 522 c 2
 143 522 l 1
 143 184 l 2
 143 94 212 25 300 25 c 0
 388 25 458 94 458 184 c 2
 458 522 l 1
 384 522 l 2
 366 522 358 530 358 542 c 0
 358 557 366 563 384 563 c 2
 534 563 l 2
 552 563 560 557 560 542 c 0
 560 530 550 522 534 522 c 2
 498 522 l 1
300 789 m 1
 432 681 l 1
 444 673 446 668 446 660 c 0
 446 649 436 640 426 640 c 0
 420 640 414 643 408 648 c 2
 300 736 l 1
 194 648 l 1
 186 643 180 640 176 640 c 0
 164 640 156 649 156 660 c 0
 156 668 158 673 168 679 c 1
 300 789 l 1
EndSplineSet
KernsSLIF: 65 -45 0 0
Ligature: 0 0 'liga' U uni0302
EndChar
StartChar: Uring
Encoding: 302 366 196
Width: 600
Flags: W
HStem: -16 41<281.442 313> 522 41<56.7963 102 66 218 384 457 384 536> 631 31<300 302> 778 33<300 302>
VStem: 102 41<184 522> 208 33<720 722> 360 33<717 722> 458 40<184 522>
Fore
498 522 m 1
 498 184 l 2
 498 72 412 -16 300 -16 c 0
 188 -16 102 72 102 184 c 2
 102 522 l 1
 66 522 l 2
 50 522 40 530 40 542 c 0
 40 557 50 563 66 563 c 2
 216 563 l 2
 234 563 242 557 242 542 c 0
 242 530 234 522 216 522 c 2
 143 522 l 1
 143 184 l 2
 143 94 212 25 300 25 c 0
 388 25 458 94 458 184 c 2
 458 522 l 1
 384 522 l 2
 366 522 358 530 358 542 c 0
 358 557 366 563 384 563 c 2
 534 563 l 2
 552 563 560 557 560 542 c 0
 560 530 550 522 534 522 c 2
 498 522 l 1
300 811 m 0
 352 811 393 770 393 719 c 0
 393 671 352 631 300 631 c 0
 248 631 208 671 208 720 c 0
 208 769 248 811 300 811 c 0
300 778 m 0
 268 778 241 753 241 720 c 0
 241 689 268 662 300 662 c 0
 332 662 360 689 360 720 c 0
 360 753 332 778 300 778 c 0
EndSplineSet
Ligature: 0 0 'liga' U uni030A
EndChar
StartChar: Uhungarumlaut
Encoding: 303 368 197
Width: 600
Flags: W
HStem: -16 41<300 318> 522 41<56.7963 102 66 218 384 457 384 536>
VStem: 102 41<184 522> 458 40<184 522>
DStem: 262 775 290 743 166 681 190 649 408 775 434 743 310 681 336 649
Fore
290 743 m 1
 190 649 l 1
 182 643 176 640 172 640 c 0
 162 640 152 649 152 660 c 0
 152 668 154 670 166 681 c 2
 262 775 l 1
 266 781 272 783 280 783 c 0
 290 783 300 775 300 762 c 0
 300 756 298 753 290 743 c 1
434 743 m 1
 336 649 l 2
 330 643 324 640 318 640 c 0
 308 640 298 649 298 660 c 0
 298 666 300 673 310 681 c 1
 408 775 l 1
 416 781 420 783 428 783 c 0
 438 783 448 775 448 762 c 0
 448 756 446 753 434 743 c 1
498 522 m 1
 498 184 l 2
 498 72 412 -16 300 -16 c 0
 188 -16 102 72 102 184 c 2
 102 522 l 1
 66 522 l 2
 50 522 40 530 40 542 c 0
 40 557 50 563 66 563 c 2
 216 563 l 2
 234 563 242 557 242 542 c 0
 242 530 234 522 216 522 c 2
 143 522 l 1
 143 184 l 2
 143 94 212 25 300 25 c 0
 388 25 458 94 458 184 c 2
 458 522 l 1
 384 522 l 2
 366 522 358 530 358 542 c 0
 358 557 366 563 384 563 c 2
 534 563 l 2
 552 563 560 557 560 542 c 0
 560 530 550 522 534 522 c 2
 498 522 l 1
EndSplineSet
Ligature: 0 0 'liga' U uni030B
EndChar
StartChar: Yacute
Encoding: 304 221 198
Width: 600
Flags: W
HStem: 0 41<166.029 282 323 435> 522 41<67.8057 102 78 195 412 451 412 531>
VStem: 50 165<542 544> 282 41<40 253> 384 165<542 544>
DStem: 102 522 152 522 282 253 304 296 374 780 402 748 260 679 286 649 452 522 498 522 304 296 323 253
Fore
323 253 m 1
 323 41 l 1
 428 41 l 2
 446 41 454 35 454 20 c 0
 454 8 446 0 428 0 c 2
 176 0 l 2
 158 0 150 8 150 20 c 0
 150 35 158 41 176 41 c 2
 282 41 l 1
 282 253 l 1
 102 522 l 1
 78 522 l 2
 60 522 50 530 50 542 c 0
 50 557 60 563 78 563 c 2
 190 563 l 2
 208 563 215 557 215 542 c 0
 215 530 208 522 190 522 c 2
 152 522 l 1
 304 296 l 1
 452 522 l 1
 412 522 l 2
 394 522 384 530 384 542 c 0
 384 557 394 563 412 563 c 2
 522 563 l 2
 540 563 549 555 549 542 c 0
 549 530 538 522 522 522 c 2
 498 522 l 1
 323 253 l 1
402 748 m 1
 286 649 l 2
 278 642 274 640 270 640 c 0
 258 640 248 649 248 662 c 0
 248 668 250 671 260 679 c 2
 374 780 l 1
 384 786 388 789 394 789 c 0
 404 789 412 780 412 769 c 0
 412 761 410 758 402 748 c 1
EndSplineSet
Ligature: 0 0 'liga' Y acutecomb
EndChar
StartChar: Zacute
Encoding: 305 377 199
Width: 600
Flags: W
HStem: 0 41<142 497> 0 209<468 497> 522 41<120 430>
VStem: 104 38<0 46> 120 41<404 521> 430 40<518 563> 456 41<41 193>
DStem: 406 780 434 748 292 679 318 649 430 519 470 505 104 60 142 46
Fore
497 0 m 1xb2
 104 0 l 1
 104 60 l 1x72
 430 519 l 1
 430 522 l 1
 161 522 l 1
 161 404 l 2x6c
 161 385 156 376 142 376 c 0x70
 126 376 120 385 120 404 c 2
 120 563 l 1
 470 563 l 1
 470 505 l 1x6c
 142 46 l 1
 142 41 l 1
 456 41 l 1xb2
 456 182 l 2
 456 200 462 209 476 209 c 0x72
 492 209 497 200 497 182 c 2
 497 0 l 1xb2
434 748 m 1
 318 649 l 2
 310 642 306 640 300 640 c 0
 288 640 280 649 280 662 c 0
 280 668 282 671 292 679 c 2
 406 780 l 1
 414 786 418 789 424 789 c 0
 436 789 444 780 444 769 c 0
 444 761 442 758 434 748 c 1
EndSplineSet
Ligature: 0 0 'liga' Z acutecomb
EndChar
StartChar: Zcaron
Encoding: 306 381 200
Width: 600
Flags: W
HStem: 0 41<142 497> 0 209<468 497> 522 41<120 430>
VStem: 104 38<0 46> 120 41<404 521> 430 40<518 563> 456 41<41 193>
DStem: 164 748 188 781 296 640 296 693 402 781 428 747 296 693 296 640 430 519 470 505 104 60 142 46
Fore
497 0 m 1xb2
 104 0 l 1
 104 60 l 1x72
 430 519 l 1
 430 522 l 1
 161 522 l 1
 161 404 l 2x6c
 161 385 156 376 142 376 c 0x70
 126 376 120 385 120 404 c 2
 120 563 l 1
 470 563 l 1
 470 505 l 1x6c
 142 46 l 1
 142 41 l 1
 456 41 l 1xb2
 456 182 l 2
 456 200 462 209 476 209 c 0x72
 492 209 497 200 497 182 c 2
 497 0 l 1xb2
296 640 m 1
 164 748 l 2
 154 756 150 759 150 769 c 0
 150 780 160 789 170 789 c 0
 176 789 182 786 188 781 c 2
 296 693 l 1
 402 781 l 1
 410 786 416 789 420 789 c 0
 430 789 440 780 440 769 c 0
 440 761 438 758 428 747 c 1
 296 640 l 1
EndSplineSet
Ligature: 0 0 'liga' Z uni030C
EndChar
StartChar: Zdotaccent
Encoding: 307 379 201
Width: 600
Flags: W
HStem: 0 41<142 497> 0 209<468 497> 522 41<120 430> 662 99<300 302>
VStem: 104 38<0 46> 120 41<404 521> 250 98<711 721> 430 40<518 563> 456 41<41 193>
DStem: 430 519 470 505 104 60 142 46
Fore
497 0 m 1xba80
 104 0 l 1
 104 60 l 1x7a80
 430 519 l 1
 430 522 l 1
 161 522 l 1
 161 404 l 2x77
 161 385 156 376 142 376 c 0x7a
 126 376 120 385 120 404 c 2
 120 563 l 1
 470 563 l 1
 470 505 l 1x77
 142 46 l 1
 142 41 l 1
 456 41 l 1xba80
 456 182 l 2
 456 200 462 209 476 209 c 0x7a80
 492 209 497 200 497 182 c 2
 497 0 l 1xba80
300 761 m 0
 326 761 348 737 348 711 c 0
 348 684 326 662 300 662 c 0
 274 662 250 684 250 711 c 0
 250 737 274 761 300 761 c 0
EndSplineSet
Ligature: 0 0 'liga' Z uni0307
EndChar
StartChar: Amacron
Encoding: 308 256 202
Width: 600
Flags: W
HStem: 0 41<26.5731 66 108 190 398.029 484 527 569> 189 41<178 428> 522 41<126 248 126 300> 679 39<182 428>
VStem: 8 206<20 22> 382 210<20 22>
DStem: 248 522 286 522 66 41 178 230 248 522 162 189 66 41 108 41 300 522 330 563 412 230 528 41 428 189 330 563 484 41 528 41
Fore
418 679 m 2
 182 679 l 2
 164 679 156 685 156 699 c 0
 156 712 164 718 182 718 c 2
 418 718 l 2
 436 718 444 712 444 699 c 0
 444 685 436 679 418 679 c 2
428 189 m 1
 162 189 l 1
 108 41 l 1
 188 41 l 2
 204 41 214 35 214 20 c 0
 214 8 204 0 188 0 c 2
 36 0 l 2
 20 0 8 8 8 20 c 0
 8 35 20 41 36 41 c 2
 66 41 l 1
 248 522 l 1
 126 522 l 2
 108 522 100 530 100 542 c 0
 100 557 108 563 126 563 c 2
 330 563 l 1
 528 41 l 1
 564 41 l 2
 582 41 592 35 592 20 c 0
 592 8 582 0 564 0 c 2
 408 0 l 2
 390 0 382 8 382 20 c 0
 382 35 390 41 408 41 c 2
 484 41 l 1
 428 189 l 1
412 230 m 1
 300 522 l 1
 286 522 l 1
 178 230 l 1
 412 230 l 1
EndSplineSet
Ligature: 0 0 'liga' A uni0304
EndChar
StartChar: Tcommaaccent
Encoding: 309 354 203
Width: 600
Flags: W
HStem: 0 41<176 280 322 428> 423 21G<87 99 502 515> 522 41<72 280 72 486>
VStem: 72 41<439.939 522> 280 42<40 522> 486 41<450 522>
DStem: 286 -74 318 -97 200 -200 234 -223
Fore
322 41 m 1
 426 41 l 2
 444 41 454 35 454 20 c 0
 454 8 444 0 426 0 c 2
 176 0 l 2
 158 0 148 8 148 20 c 0
 148 35 158 41 176 41 c 2
 280 41 l 1
 280 522 l 1
 113 522 l 1
 113 450 l 2
 113 431 104 423 94 423 c 0
 80 423 72 431 72 450 c 2
 72 563 l 1
 527 563 l 1
 527 450 l 2
 527 429 522 423 508 423 c 0
 496 423 486 434 486 450 c 2
 486 522 l 1
 322 522 l 1
 322 41 l 1
318 -97 m 1
 234 -223 l 2
 226 -234 222 -237 214 -237 c 0
 200 -237 194 -228 194 -215 c 0
 194 -212 196 -208 200 -200 c 1
 286 -74 l 1
 290 -64 296 -60 306 -60 c 0
 316 -60 328 -69 328 -82 c 0
 328 -83 325 -88 322 -93 c 1
 318 -97 l 1
EndSplineSet
Ligature: 0 0 'liga' T uni0327
EndChar
StartChar: Ydieresis
Encoding: 310 376 204
Width: 600
Flags: W
HStem: 0 41<166.029 282 323 435> 522 41<67.8057 102 78 195 412 451 412 531> 662 99<180.169 195 410 419>
VStem: 50 165<542 544> 140 99<711 721> 282 41<40 253> 360 101<711 721> 384 165<542 544>
DStem: 102 522 152 522 282 253 304 296 452 522 498 522 304 296 323 253
Fore
323 253 m 1xf5
 323 41 l 1
 428 41 l 2
 446 41 454 35 454 20 c 0
 454 8 446 0 428 0 c 2
 176 0 l 2
 158 0 150 8 150 20 c 0
 150 35 158 41 176 41 c 2
 282 41 l 1
 282 253 l 1
 102 522 l 1
 78 522 l 2
 60 522 50 530 50 542 c 0
 50 557 60 563 78 563 c 2
 190 563 l 2
 208 563 215 557 215 542 c 0
 215 530 208 522 190 522 c 2
 152 522 l 1
 304 296 l 1
 452 522 l 1
 412 522 l 2
 394 522 384 530 384 542 c 0
 384 557 394 563 412 563 c 2
 522 563 l 2
 540 563 549 555 549 542 c 0
 549 530 538 522 522 522 c 2
 498 522 l 1
 323 253 l 1xf5
190 761 m 0
 218 761 239 737 239 711 c 0
 239 684 216 662 190 662 c 0
 162 662 140 684 140 711 c 0xec
 140 737 162 761 190 761 c 0
410 761 m 0
 440 761 461 737 461 711 c 0
 461 684 438 662 410 662 c 0
 384 662 360 684 360 711 c 0xe6
 360 737 384 761 410 761 c 0
EndSplineSet
Ligature: 0 0 'liga' Y uni0308
EndChar
StartChar: Emacron
Encoding: 311 274 205
Width: 600
Flags: W
HStem: 0 41<79.8057 143 185 539> 0 187<516 539> 272 41<185 330> 522 41<79.8057 143 90 478> 686 40<191.553 447>
VStem: 144 41<41 272 41 522> 330 41<226 272 313 360> 478 40<423 522> 500 39<41 162>
Fore
185 272 m 1xbf
 185 41 l 1
 500 41 l 1xbe80
 500 160 l 2
 500 178 506 187 520 187 c 0x7e80
 532 187 539 178 539 160 c 2
 539 0 l 1xbe80
 90 0 l 2
 72 0 62 8 62 20 c 0
 62 35 72 41 90 41 c 2
 144 41 l 1
 144 522 l 1
 90 522 l 2
 72 522 62 530 62 542 c 0
 62 557 72 563 90 563 c 2
 518 563 l 1
 518 423 l 2
 518 407 512 396 498 396 c 0
 484 396 478 407 478 423 c 2
 478 522 l 1
 185 522 l 1
 185 313 l 1
 330 313 l 1
 330 358 l 2
 330 376 336 385 352 385 c 0
 362 385 371 376 371 358 c 2
 371 226 l 2
 371 209 362 200 352 200 c 0
 336 200 330 209 330 226 c 2
 330 272 l 1
 185 272 l 1xbf
438 686 m 2
 202 686 l 2
 184 686 176 693 176 706 c 0
 176 719 184 726 202 726 c 2
 438 726 l 2
 456 726 464 719 464 706 c 0
 464 693 456 686 438 686 c 2
EndSplineSet
Ligature: 0 0 'liga' E uni0304
EndChar
StartChar: Imacron
Encoding: 312 298 206
Width: 600
Flags: W
HStem: 0 41<130.796 280 321 467> 522 41<130.796 280 140 467> 686 40<182 420>
VStem: 280 41<40 522>
Fore
321 522 m 1
 321 41 l 1
 458 41 l 2
 478 41 486 35 486 20 c 0
 486 8 476 0 458 0 c 2
 140 0 l 2
 124 0 114 8 114 20 c 0
 114 35 124 41 140 41 c 2
 280 41 l 1
 280 522 l 1
 140 522 l 2
 124 522 114 530 114 542 c 0
 114 557 124 563 140 563 c 2
 458 563 l 2
 478 563 486 557 486 542 c 0
 486 530 478 522 458 522 c 2
 321 522 l 1
418 686 m 2
 182 686 l 2
 164 686 156 693 156 706 c 0
 156 719 164 726 182 726 c 2
 418 726 l 2
 436 726 444 719 444 706 c 0
 444 693 436 686 418 686 c 2
EndSplineSet
Ligature: 0 0 'liga' I uni0304
EndChar
StartChar: Iogonek
Encoding: 313 302 207
Width: 600
Flags: W
HStem: -156 33<409 427> 0 41<123.806 274 315 416> 522 41<123.806 274 134 462>
VStem: 274 41<40 522> 340 38<-95 -86>
Fore
315 522 m 1
 315 41 l 1
 452 41 l 2
 472 41 480 35 480 20 c 0
 480 11 474 5 462 -2 c 1
 444 -9 414 -30 402 -41 c 0
 388 -55 378 -72 378 -88 c 0
 378 -112 394 -123 422 -123 c 0
 444 -123 448 -121 472 -107 c 0
 474 -105 478 -104 480 -104 c 0
 486 -104 494 -110 494 -119 c 0
 494 -135 454 -156 416 -156 c 0
 368 -156 340 -132 340 -93 c 0
 340 -52 362 -27 416 0 c 1
 134 0 l 2
 116 0 106 8 106 20 c 0
 106 35 116 41 134 41 c 2
 274 41 l 1
 274 522 l 1
 134 522 l 2
 116 522 106 530 106 542 c 0
 106 557 116 563 134 563 c 2
 452 563 l 2
 472 563 480 557 480 542 c 0
 480 530 472 522 452 522 c 2
 315 522 l 1
EndSplineSet
Ligature: 0 0 'liga' I uni0328
EndChar
StartChar: Kcommaaccent
Encoding: 314 310 208
Width: 600
Flags: W
HStem: 0 41<53.5824 118 159 242 481 547> 522 41<53.5824 118 64 242 394 438 394 514>
VStem: 118 41<40 220 41 522> 366 174<542 548>
DStem: 318 -74 352 -97 234 -200 268 -223 438 522 496 522 159 274 272 324 438 522 240 294 159 274 159 220
Fore
159 220 m 1
 159 41 l 1
 234 41 l 2
 252 41 260 35 260 20 c 0
 260 8 252 0 234 0 c 2
 64 0 l 2
 46 0 34 8 34 20 c 0
 34 35 46 41 64 41 c 2
 118 41 l 1
 118 522 l 1
 64 522 l 2
 46 522 34 530 34 542 c 0
 34 557 46 563 64 563 c 2
 234 563 l 2
 252 563 260 557 260 542 c 0
 260 530 252 522 234 522 c 2
 159 522 l 1
 159 274 l 1
 438 522 l 1
 394 522 l 2
 374 522 366 530 366 542 c 0
 366 557 374 563 394 563 c 2
 512 563 l 2
 530 563 540 557 540 542 c 0
 540 530 530 522 512 522 c 2
 496 522 l 1
 272 324 l 1
 370 285 406 233 482 41 c 1
 540 41 l 2
 556 41 566 35 566 20 c 0
 566 8 556 0 540 0 c 2
 452 0 l 1
 378 203 334 263 240 294 c 1
 159 220 l 1
352 -97 m 1
 268 -223 l 1
 258 -234 256 -237 246 -237 c 0
 234 -237 226 -228 226 -215 c 0
 226 -212 230 -208 234 -200 c 1
 318 -74 l 2
 324 -64 332 -60 338 -60 c 0
 350 -60 358 -69 358 -82 c 0
 358 -83 358 -88 354 -93 c 1
 352 -97 l 1
EndSplineSet
Ligature: 0 0 'liga' K uni0327
EndChar
StartChar: Lcommaaccent
Encoding: 315 315 209
Width: 600
Flags: W
HStem: 0 41<77.8057 184 224 539> 0 228<516 539> 522 41<77.8057 184 88 330>
VStem: 184 40<41 522> 498 41<41 212>
DStem: 292 -74 326 -97 208 -200 242 -223
Fore
224 522 m 1xb8
 224 41 l 1
 498 41 l 1xb8
 498 201 l 2
 498 219 506 228 518 228 c 0x78
 532 228 539 219 539 201 c 2
 539 0 l 1
 88 0 l 2
 70 0 60 8 60 20 c 0
 60 35 70 41 88 41 c 2
 184 41 l 1
 184 522 l 1
 88 522 l 2
 70 522 60 530 60 542 c 0
 60 557 70 563 88 563 c 2
 320 563 l 2
 340 563 346 557 346 542 c 0
 346 530 340 522 320 522 c 2
 224 522 l 1xb8
326 -97 m 1
 242 -223 l 2
 234 -234 230 -237 222 -237 c 0
 210 -237 202 -228 202 -215 c 0
 202 -212 202 -208 208 -200 c 2
 292 -74 l 2
 298 -64 306 -60 314 -60 c 0
 326 -60 334 -69 334 -82 c 0
 334 -83 332 -88 330 -93 c 1
 326 -97 l 1
EndSplineSet
Ligature: 0 0 'liga' L uni0327
EndChar
StartChar: Ncommaaccent
Encoding: 316 325 210
Width: 600
Flags: W
HStem: 0 41<67.0238 111 153 230> 522 41<58 111 383.024 470 394 546>
VStem: 112 41<40 503> 470 41<60 522>
DStem: 153 503 164 563 458 0 470 60 312 -74 346 -97 228 -200 262 -223
Fore
511 0 m 1
 458 0 l 1
 153 503 l 1
 153 41 l 1
 228 41 l 2
 246 41 256 35 256 20 c 0
 256 8 244 0 228 0 c 2
 78 0 l 2
 58 0 50 8 50 20 c 0
 50 35 58 41 78 41 c 2
 112 41 l 1
 112 522 l 1
 58 522 l 2
 40 522 30 530 30 542 c 0
 30 557 40 563 58 563 c 2
 164 563 l 1
 470 60 l 1
 470 522 l 1
 394 522 l 2
 374 522 366 530 366 542 c 0
 366 557 374 563 394 563 c 2
 544 563 l 2
 562 563 570 557 570 542 c 0
 570 530 562 522 544 522 c 2
 511 522 l 1
 511 0 l 1
346 -97 m 1
 262 -223 l 1
 256 -234 250 -237 242 -237 c 0
 230 -237 222 -228 222 -215 c 0
 222 -212 224 -208 228 -200 c 1
 312 -74 l 1
 320 -64 324 -60 334 -60 c 0
 346 -60 354 -69 354 -82 c 0
 354 -83 352 -88 350 -93 c 1
 346 -97 l 1
EndSplineSet
Ligature: 0 0 'liga' N uni0327
EndChar
StartChar: Omacron
Encoding: 317 332 211
Width: 600
Flags: W
HStem: -16 41<300 307> 535 42<300 307> 686 40<182 420>
VStem: 50 43<280 305> 508 41<255 289>
Fore
300 577 m 0
 440 577 549 447 549 275 c 0
 549 115 438 -16 300 -16 c 0
 162 -16 50 115 50 280 c 0
 50 445 162 577 300 577 c 0
300 535 m 0
 184 535 93 420 93 280 c 0
 93 140 186 25 300 25 c 0
 412 25 508 140 508 277 c 0
 508 421 418 535 300 535 c 0
418 686 m 2
 182 686 l 2
 164 686 156 693 156 706 c 0
 156 719 164 726 182 726 c 2
 418 726 l 2
 436 726 446 719 446 706 c 0
 446 693 436 686 418 686 c 2
EndSplineSet
Ligature: 0 0 'liga' O uni0304
EndChar
StartChar: Rcommaaccent
Encoding: 318 342 212
Width: 600
Flags: W
HStem: 0 41<44.8007 107 150 235 515 555> 252 40<150 282> 522 41<44.8007 107 56 315>
VStem: 108 42<40 252 41 522> 442 39<407 420>
DStem: 308 -74 344 -97 226 -200 260 -223
Fore
150 252 m 1
 150 41 l 1
 226 41 l 2
 244 41 252 35 252 20 c 0
 252 8 244 0 226 0 c 2
 56 0 l 2
 36 0 26 8 26 20 c 0
 26 35 36 41 56 41 c 2
 108 41 l 1
 108 522 l 1
 56 522 l 2
 36 522 26 530 26 542 c 0
 26 557 36 563 56 563 c 2
 302 563 l 2
 400 563 481 492 481 407 c 0
 481 343 436 294 344 263 c 1
 408 219 436 182 516 41 c 1
 546 41 l 2
 564 41 574 35 574 20 c 0
 574 8 564 0 546 0 c 2
 490 0 l 1
 402 162 358 215 282 252 c 1
 150 252 l 1
150 292 m 1
 264 292 l 2
 362 292 442 343 442 407 c 0
 442 469 374 522 302 522 c 2
 150 522 l 1
 150 292 l 1
344 -97 m 1
 260 -223 l 1
 250 -234 248 -237 238 -237 c 0
 226 -237 218 -228 218 -215 c 0
 218 -212 222 -208 226 -200 c 1
 308 -74 l 1
 316 -64 322 -60 330 -60 c 0
 342 -60 350 -69 350 -82 c 0
 350 -83 350 -88 346 -93 c 1
 344 -97 l 1
EndSplineSet
Ligature: 0 0 'liga' R uni0327
EndChar
StartChar: Gcommaaccent
Encoding: 319 290 213
Width: 600
Flags: W
HStem: -16 41<300 346> 209 41<328 467 328 531> 418 145<488 490> 535 42<289 328>
VStem: 50 41<244 324> 468 40<59 209 434 445 522 538>
DStem: 312 -74 346 -97 230 -200 262 -223
Fore
508 209 m 1xdc
 508 36 l 1
 450 3 384 -16 320 -16 c 0
 156 -16 50 86 50 244 c 2
 50 318 l 2
 50 390 82 464 132 511 c 0
 178 553 236 577 302 577 c 0xdc
 368 577 422 558 468 522 c 1
 468 536 l 2
 468 553 474 563 488 563 c 0
 502 563 508 555 508 536 c 2
 508 445 l 2
 508 428 502 418 488 418 c 0xec
 474 418 470 426 470 443 c 1
 464 494 392 535 304 535 c 0
 246 535 202 519 164 481 c 1
 120 440 91 376 91 316 c 2
 91 244 l 2
 91 108 180 25 324 25 c 0
 376 25 412 33 468 60 c 1
 468 209 l 1
 328 209 l 2
 310 209 302 215 302 231 c 0
 302 242 310 250 328 250 c 2
 522 250 l 2
 542 250 550 242 550 231 c 0
 550 215 542 209 522 209 c 2
 508 209 l 1xdc
346 -97 m 1
 262 -223 l 2
 254 -234 250 -237 240 -237 c 0
 230 -237 222 -228 222 -215 c 0
 222 -212 224 -208 230 -200 c 1
 312 -74 l 1
 320 -64 326 -60 332 -60 c 0
 346 -60 354 -69 354 -82 c 0
 354 -83 354 -88 348 -93 c 1
 346 -97 l 1
EndSplineSet
Ligature: 0 0 'liga' G uni0327
EndChar
StartChar: Umacron
Encoding: 320 362 214
Width: 600
Flags: W
HStem: -16 41<281.442 313> 522 41<56.7963 102 66 218 384 457 384 536> 686 40<171.553 425>
VStem: 102 41<184 522> 458 40<184 522>
Fore
498 522 m 1
 498 184 l 2
 498 72 412 -16 300 -16 c 0
 188 -16 102 72 102 184 c 2
 102 522 l 1
 66 522 l 2
 50 522 40 530 40 542 c 0
 40 557 50 563 66 563 c 2
 216 563 l 2
 234 563 242 557 242 542 c 0
 242 530 234 522 216 522 c 2
 143 522 l 1
 143 184 l 2
 143 94 212 25 300 25 c 0
 388 25 458 94 458 184 c 2
 458 522 l 1
 384 522 l 2
 366 522 358 530 358 542 c 0
 358 557 366 563 384 563 c 2
 534 563 l 2
 552 563 560 557 560 542 c 0
 560 530 550 522 534 522 c 2
 498 522 l 1
418 686 m 2
 182 686 l 2
 164 686 156 693 156 706 c 0
 156 719 164 726 182 726 c 2
 418 726 l 2
 436 726 446 719 446 706 c 0
 446 693 436 686 418 686 c 2
EndSplineSet
Ligature: 0 0 'liga' U uni0304
EndChar
StartChar: Uogonek
Encoding: 321 370 215
Width: 600
Flags: W
HStem: -156 33<374 386> -16 41<281.442 313> 522 41<56.7963 102 66 218 384 458 384 536>
VStem: 102 41<165.001 522> 300 38<-95 -86> 458 40<165.126 522>
Fore
498 522 m 1
 498 184 l 2
 498 134 482 86 452 53 c 1
 444 42 412 14 400 3 c 0
 360 -30 338 -61 338 -88 c 0
 338 -112 354 -123 384 -123 c 0
 402 -123 408 -121 432 -107 c 0
 434 -105 438 -104 440 -104 c 0
 448 -104 454 -110 454 -119 c 0
 454 -135 414 -156 376 -156 c 0
 330 -156 300 -132 300 -93 c 0
 300 -58 316 -35 360 -8 c 1
 332 -14 318 -16 300 -16 c 0
 188 -16 102 72 102 184 c 2
 102 522 l 1
 66 522 l 2
 50 522 40 530 40 542 c 0
 40 557 50 563 66 563 c 2
 216 563 l 2
 234 563 242 557 242 542 c 0
 242 530 234 522 216 522 c 2
 143 522 l 1
 143 184 l 2
 143 94 212 25 300 25 c 0
 388 25 458 94 458 184 c 2
 458 522 l 1
 384 522 l 2
 366 522 358 530 358 542 c 0
 358 557 366 563 384 563 c 2
 534 563 l 2
 552 563 560 557 560 542 c 0
 560 530 550 522 534 522 c 2
 498 522 l 1
EndSplineSet
Ligature: 0 0 'liga' U uni0328
EndChar
StartChar: adieresis
Encoding: 322 228 216
Width: 600
Flags: W
HStem: -16 41<209 243> 0 41<454 515> 217 41<257 307> 358 73<138 292> 390 41<273 307> 517 110<194 227 370 398>
VStem: 66 41<97.0699 115> 174 65<533.539 609> 350 65<533.939 609> 412 43<0 310> 412 123<0 27>
Fore
194 627 m 2x27
 220 627 l 2
 232 627 239 619 239 601 c 2
 239 544 l 2
 239 525 232 517 220 517 c 2
 194 517 l 2
 182 517 174 525 174 544 c 2
 174 601 l 2
 174 619 182 627 194 627 c 2x27
370 627 m 2
 396 627 l 2
 406 627 415 619 415 601 c 2
 415 544 l 2
 415 525 406 517 396 517 c 2
 370 517 l 2
 358 517 350 525 350 544 c 2
 350 601 l 2x2780
 350 619 358 627 370 627 c 2
412 0 m 1x7740
 412 66 l 1
 352 9 292 -16 222 -16 c 0
 128 -16 66 36 66 112 c 0
 66 200 150 258 276 258 c 0
 322 258 354 253 412 237 c 1
 412 308 l 2
 412 357 362 390 290 390 c 0xaf40
 252 390 224 384 148 360 c 0
 144 358 140 358 138 358 c 0
 128 358 120 366 120 377 c 0
 120 388 124 395 136 399 c 0
 190 418 256 431 292 431 c 0
 386 431 455 379 455 308 c 2
 455 41 l 1x7740
 508 41 l 2
 524 41 535 35 535 20 c 0x7720
 535 8 524 0 508 0 c 2
 412 0 l 1x7740
412 112 m 1
 412 201 l 1
 378 211 328 217 284 217 c 0
 178 217 107 173 107 110 c 0
 107 60 150 25 220 25 c 0
 292 25 346 49 412 112 c 1
EndSplineSet
KernsSLIF: 121 -91 0 0 119 -46 0 0 118 -67 0 0
Ligature: 0 0 'liga' a uni0308
EndChar
StartChar: aacute
Encoding: 323 225 217
Width: 600
Flags: W
HStem: -16 41<209 243> 0 41<454 515> 217 41<257 307> 358 73<138 292> 390 41<273 307>
VStem: 66 41<97.0699 115> 412 43<0 310> 412 123<0 27>
DStem: 338 657 366 626 224 557 250 525
Fore
366 626 m 2x24
 250 525 l 2
 242 519 238 516 232 516 c 0
 220 516 212 525 212 536 c 0
 212 544 214 547 224 557 c 1
 338 657 l 1
 346 662 350 665 356 665 c 0
 368 665 376 657 376 645 c 0
 376 637 374 634 366 626 c 2x24
412 0 m 1x76
 412 66 l 1
 352 9 292 -16 222 -16 c 0
 128 -16 66 36 66 112 c 0
 66 200 150 258 276 258 c 0
 322 258 354 253 412 237 c 1
 412 308 l 2
 412 357 362 390 290 390 c 0xae
 252 390 224 384 148 360 c 0
 144 358 140 358 138 358 c 0
 128 358 120 366 120 377 c 0
 120 388 124 395 136 399 c 0
 190 418 256 431 292 431 c 0
 386 431 455 379 455 308 c 2
 455 41 l 1x76
 508 41 l 2
 524 41 535 35 535 20 c 0x75
 535 8 524 0 508 0 c 2
 412 0 l 1x76
412 112 m 1
 412 201 l 1
 378 211 328 217 284 217 c 0
 178 217 107 173 107 110 c 0
 107 60 150 25 220 25 c 0
 292 25 346 49 412 112 c 1
EndSplineSet
KernsSLIF: 121 -91 0 0 119 -46 0 0 118 -67 0 0
Ligature: 0 0 'liga' a acutecomb
EndChar
StartChar: agrave
Encoding: 324 224 218
Width: 600
Flags: W
HStem: -16 41<209 243> 0 41<454 515> 217 41<257 307> 358 73<138 292> 390 41<273 307>
VStem: 66 41<97.0699 115> 412 43<0 310> 412 123<0 27>
DStem: 224 626 248 657 338 525 364 557
Fore
248 657 m 2x24
 364 557 l 1
 372 549 l 2
 376 544 376 544 376 538 c 0
 376 525 366 517 354 517 c 0
 350 517 344 519 338 525 c 2
 224 626 l 2
 214 634 212 638 212 646 c 0
 212 657 220 667 230 667 c 0
 238 667 242 662 248 657 c 2x24
412 0 m 1x76
 412 66 l 1
 352 9 292 -16 222 -16 c 0
 128 -16 66 36 66 112 c 0
 66 200 150 258 276 258 c 0
 322 258 354 253 412 237 c 1
 412 308 l 2
 412 357 362 390 290 390 c 0xae
 252 390 224 384 148 360 c 0
 144 358 140 358 138 358 c 0
 128 358 120 366 120 377 c 0
 120 388 124 395 136 399 c 0
 190 418 256 431 292 431 c 0
 386 431 455 379 455 308 c 2
 455 41 l 1x76
 508 41 l 2
 524 41 535 35 535 20 c 0x75
 535 8 524 0 508 0 c 2
 412 0 l 1x76
412 112 m 1
 412 201 l 1
 378 211 328 217 284 217 c 0
 178 217 107 173 107 110 c 0
 107 60 150 25 220 25 c 0
 292 25 346 49 412 112 c 1
EndSplineSet
KernsSLIF: 121 -91 0 0 119 -46 0 0 118 -67 0 0
Ligature: 0 0 'liga' a gravecomb
EndChar
StartChar: acircumflex
Encoding: 325 226 219
Width: 600
Flags: W
HStem: -16 41<209 243> 0 41<454 515> 217 41<257 307> 358 73<138 292> 390 41<273 307>
VStem: 66 41<97.0699 115> 412 43<0 310> 412 123<0 27>
DStem: 294 613 294 667 400 525 426 558 294 667 294 613 162 557 186 525 294 613 294 667 400 525 426 558 294 667 294 613 162 557 186 525 294 613 294 667 400 525 426 558 294 667 294 613 162 557 186 525 294 613 294 667 400 525 426 558 294 667 294 613 162 557 186 525 294 613 294 667 400 525 426 558 294 667 294 613 162 557 186 525 294 613 294 667 400 525 426 558 294 667 294 613 162 557 186 525 294 613 294 667 400 525 426 558 294 667 294 613 162 557 186 525
Fore
294 667 m 1x24
 426 558 l 2
 436 549 438 546 438 536 c 0
 438 525 430 517 418 517 c 0
 414 517 408 519 400 525 c 2
 294 613 l 1
 186 525 l 1
 180 519 172 517 168 517 c 0
 158 517 150 525 150 536 c 0
 150 546 152 550 162 557 c 1
 294 667 l 1x24
412 0 m 1x76
 412 66 l 1
 352 9 292 -16 222 -16 c 0
 128 -16 66 36 66 112 c 0
 66 200 150 258 276 258 c 0
 322 258 354 253 412 237 c 1
 412 308 l 2
 412 357 362 390 290 390 c 0xae
 252 390 224 384 148 360 c 0
 144 358 140 358 138 358 c 0
 128 358 120 366 120 377 c 0
 120 388 124 395 136 399 c 0
 190 418 256 431 292 431 c 0
 386 431 455 379 455 308 c 2
 455 41 l 1x76
 508 41 l 2
 524 41 535 35 535 20 c 0x75
 535 8 524 0 508 0 c 2
 412 0 l 1x76
412 112 m 1
 412 201 l 1
 378 211 328 217 284 217 c 0
 178 217 107 173 107 110 c 0
 107 60 150 25 220 25 c 0
 292 25 346 49 412 112 c 1
EndSplineSet
Ligature: 0 0 'liga' a uni0302
EndChar
StartChar: abreve
Encoding: 326 259 220
Width: 600
Flags: W
HStem: -16 41<209 243> 0 41<454 515> 217 41<257 307> 358 73<138 292> 390 41<273 307> 517 41<294 307>
VStem: 66 41<97.0699 115> 412 43<0 310> 412 123<0 27>
Fore
170 646 m 0x26
 182 646 186 640 190 626 c 1
 194 588 238 558 294 558 c 0
 348 558 394 588 398 626 c 0
 400 640 406 646 418 646 c 0
 430 646 438 638 438 624 c 0
 438 564 376 517 294 517 c 0
 214 517 150 564 150 624 c 0
 150 638 156 646 170 646 c 0x26
412 0 m 1x77
 412 66 l 1
 352 9 292 -16 222 -16 c 0
 128 -16 66 36 66 112 c 0
 66 200 150 258 276 258 c 0
 322 258 354 253 412 237 c 1
 412 308 l 2
 412 357 362 390 290 390 c 0xaf
 252 390 224 384 148 360 c 0
 144 358 140 358 138 358 c 0
 128 358 120 366 120 377 c 0
 120 388 124 395 136 399 c 0
 190 418 256 431 292 431 c 0
 386 431 455 379 455 308 c 2
 455 41 l 1x77
 508 41 l 2
 524 41 535 35 535 20 c 0x7680
 535 8 524 0 508 0 c 2
 412 0 l 1x77
412 112 m 1
 412 201 l 1
 378 211 328 217 284 217 c 0
 178 217 107 173 107 110 c 0
 107 60 150 25 220 25 c 0
 292 25 346 49 412 112 c 1
EndSplineSet
Ligature: 0 0 'liga' a uni0306
EndChar
StartChar: atilde
Encoding: 327 227 221
Width: 600
Flags: W
HStem: -16 41<209 243> 0 41<454 515> 217 41<257 307> 358 73<138 292> 390 41<273 307> 539 41<353 362> 588 39<223 243>
VStem: 66 41<97.0699 115> 412 43<0 310> 412 123<0 27>
Fore
428 626 m 0x2740
 440 626 448 616 448 605 c 0
 448 599 446 593 428 575 c 0
 402 549 382 539 360 539 c 0
 338 539 316 546 278 571 c 1
 258 582 248 588 236 588 c 0
 214 588 206 582 176 550 c 0
 172 546 166 542 160 542 c 0
 148 542 140 550 140 561 c 0
 140 569 146 577 158 591 c 1
 188 618 208 627 234 627 c 0
 252 627 264 624 298 605 c 0
 336 583 344 580 356 580 c 0
 374 580 384 588 412 618 c 1
 420 624 422 626 428 626 c 0x2740
412 0 m 1x7780
 412 66 l 1
 352 9 292 -16 222 -16 c 0
 128 -16 66 36 66 112 c 0
 66 200 150 258 276 258 c 0
 322 258 354 253 412 237 c 1
 412 308 l 2
 412 357 362 390 290 390 c 0xaf80
 252 390 224 384 148 360 c 0
 144 358 140 358 138 358 c 0
 128 358 120 366 120 377 c 0
 120 388 124 395 136 399 c 0
 190 418 256 431 292 431 c 0
 386 431 455 379 455 308 c 2
 455 41 l 1x7780
 508 41 l 2
 524 41 535 35 535 20 c 0x7740
 535 8 524 0 508 0 c 2
 412 0 l 1x7780
412 112 m 1
 412 201 l 1
 378 211 328 217 284 217 c 0
 178 217 107 173 107 110 c 0
 107 60 150 25 220 25 c 0
 292 25 346 49 412 112 c 1
EndSplineSet
Ligature: 0 0 'liga' a tildecomb
EndChar
StartChar: aring
Encoding: 328 229 222
Width: 600
Flags: W
HStem: -16 41<200 243> 0 41<454 515> 217 41<257 307> 358 73<138 292> 390 41<273 307> 484 33<294 296> 632 33<294 296>
VStem: 66 41<97.0699 115> 202 33<575 577> 354 32<570 578> 412 43<0 310> 412 123<0 27>
Fore
294 665 m 0x27c0
 346 665 386 626 386 572 c 0
 386 525 344 484 294 484 c 0
 242 484 202 525 202 575 c 0
 202 624 242 665 294 665 c 0x27c0
294 632 m 0
 262 632 235 605 235 575 c 0
 235 542 262 517 294 517 c 0
 326 517 354 542 354 574 c 0
 354 605 326 632 294 632 c 0
412 0 m 1x77e0
 412 66 l 1
 352 9 292 -16 222 -16 c 0
 128 -16 66 36 66 112 c 0
 66 200 150 258 276 258 c 0
 322 258 354 253 412 237 c 1
 412 308 l 2
 412 357 362 390 290 390 c 0xafe0
 252 390 224 384 148 360 c 0
 144 358 140 358 138 358 c 0
 128 358 120 366 120 377 c 0
 120 388 124 395 136 399 c 0
 190 418 256 431 292 431 c 0
 386 431 455 379 455 308 c 2
 455 41 l 1x77e0
 508 41 l 2
 524 41 535 35 535 20 c 0x77d0
 535 8 524 0 508 0 c 2
 412 0 l 1x77e0
412 112 m 1
 412 201 l 1
 378 211 328 217 284 217 c 0
 178 217 107 173 107 110 c 0
 107 60 150 25 220 25 c 0
 292 25 346 49 412 112 c 1
EndSplineSet
KernsSLIF: 121 -91 0 0 119 -46 0 0 118 -67 0 0
Ligature: 0 0 'liga' a uni030A
EndChar
StartChar: aogonek
Encoding: 329 261 223
Width: 600
Flags: W
HStem: -156 33<464 474> -16 41<201 235> 217 41<249 299> 358 73<130 284> 390 41<265 299>
VStem: 58 41<99 117> 388 39<-95 -86> 404 43<0 310> 404 123<0 27>
Fore
447 41 m 1xf5
 500 41 l 2
 516 41 527 35 527 20 c 0xf480
 527 13 522 6 516 3 c 0
 452 -31 427 -58 427 -88 c 0
 427 -112 444 -123 472 -123 c 0
 490 -123 494 -121 520 -107 c 0
 522 -105 524 -104 528 -104 c 0
 534 -104 542 -110 542 -119 c 0
 542 -135 502 -156 466 -156 c 0
 416 -156 388 -132 388 -93 c 0xf6
 388 -52 408 -27 466 0 c 1
 404 0 l 1
 404 66 l 1
 344 9 284 -16 214 -16 c 0
 120 -16 58 36 58 112 c 0
 58 200 142 258 268 258 c 0
 314 258 346 253 404 237 c 1
 404 308 l 2
 404 357 354 390 282 390 c 0xed
 244 390 216 384 140 360 c 0
 136 358 132 358 130 358 c 0
 120 358 112 366 112 377 c 0
 112 388 116 395 128 399 c 0
 182 418 248 431 284 431 c 0
 378 431 447 379 447 308 c 2
 447 41 l 1xf5
404 112 m 1xe5
 404 201 l 1
 368 211 320 217 276 217 c 0
 170 217 99 173 99 110 c 0
 99 60 142 25 212 25 c 0
 284 25 338 49 404 112 c 1xe5
EndSplineSet
Ligature: 0 0 'liga' a uni0328
EndChar
StartChar: cacute
Encoding: 330 263 224
Width: 600
Flags: W
HStem: -16 41<302 315> 270 148<484 490> 390 41<282 315>
VStem: 74 43<204 225>
DStem: 398 631 426 599 284 530 310 498
Fore
460 376 m 1xb0
 460 390 l 2xb0
 460 407 468 418 484 418 c 0xd0
 494 418 502 407 502 390 c 2xb0
 502 299 l 2
 502 280 494 270 484 270 c 0xd0
 470 270 464 278 460 296 c 1
 456 349 386 390 302 390 c 0
 192 390 117 316 117 204 c 0
 117 99 192 25 302 25 c 0
 374 25 438 49 488 97 c 1
 498 105 498 107 508 107 c 0
 516 107 526 99 526 88 c 0
 526 77 510 58 484 39 c 0
 432 3 366 -16 302 -16 c 0
 170 -16 74 77 74 204 c 0
 74 336 170 431 306 431 c 0
 366 431 418 412 460 376 c 1xb0
426 599 m 1
 310 498 l 2
 302 492 298 491 292 491 c 0
 280 491 270 498 270 511 c 0
 270 519 272 520 284 530 c 2
 398 631 l 1
 406 637 408 640 416 640 c 0
 428 640 436 631 436 618 c 0
 436 610 432 607 426 599 c 1
EndSplineSet
Ligature: 0 0 'liga' c acutecomb
EndChar
StartChar: ccaron
Encoding: 331 269 225
Width: 600
Flags: W
HStem: -16 41<302 324> 270 148<484 490> 390 41<297 324>
VStem: 74 43<204 225>
DStem: 188 599 214 631 322 491 322 542 428 631 454 599 322 542 322 491
Fore
460 376 m 1xb0
 460 390 l 2xb0
 460 407 468 418 484 418 c 0xd0
 494 418 502 407 502 390 c 2xb0
 502 299 l 2
 502 280 494 270 484 270 c 0xd0
 470 270 464 278 460 296 c 1
 456 349 386 390 302 390 c 0
 192 390 117 316 117 204 c 0
 117 99 192 25 302 25 c 0
 374 25 438 49 488 97 c 1
 498 105 498 107 508 107 c 0
 516 107 526 99 526 88 c 0
 526 77 510 58 484 39 c 0
 432 3 366 -16 302 -16 c 0
 170 -16 74 77 74 204 c 0
 74 336 170 431 306 431 c 0
 366 431 418 412 460 376 c 1xb0
322 491 m 1
 188 599 l 2
 180 605 174 610 174 619 c 0
 174 631 184 640 194 640 c 0
 202 640 206 635 214 631 c 1
 322 542 l 1
 428 631 l 2
 434 635 442 640 446 640 c 0
 456 640 466 629 466 619 c 0
 466 610 464 607 454 599 c 2
 322 491 l 1
EndSplineSet
Ligature: 0 0 'liga' c uni030C
EndChar
StartChar: ccedilla
Encoding: 332 231 226
Width: 600
Flags: W
HStem: -173 38<281 302> -82 107<281 308> 270 148<484 488> 390 41<288 315>
VStem: 74 43<204 212> 268 40<-82 -16> 334 38<-110 -103> 460 41<290 299 376 392>
Fore
308 -16 m 1xdf
 308 -47 l 1
 346 -49 372 -71 372 -108 c 0
 372 -146 340 -173 292 -173 c 0
 272 -173 242 -165 222 -156 c 1
 208 -148 206 -143 206 -134 c 0
 206 -123 212 -115 224 -115 c 0
 228 -115 232 -115 238 -119 c 0
 260 -131 276 -135 290 -135 c 0
 316 -135 334 -123 334 -105 c 0
 334 -88 318 -82 290 -82 c 2
 268 -82 l 1
 268 -14 l 1
 220 -8 192 3 164 25 c 1
 108 66 74 131 74 204 c 0
 74 336 170 431 306 431 c 0
 368 431 418 412 460 376 c 1
 460 390 l 2xdf
 460 407 468 418 484 418 c 0xef
 494 418 501 407 501 390 c 2xdf
 501 299 l 2
 501 280 494 270 484 270 c 0xef
 470 270 460 278 460 296 c 1
 456 349 386 390 302 390 c 0
 192 390 117 316 117 204 c 0
 117 99 192 25 302 25 c 0
 374 25 438 49 488 97 c 1
 498 105 498 107 508 107 c 0
 516 107 526 99 526 88 c 0
 526 72 494 42 450 19 c 0
 408 -3 364 -13 308 -16 c 1xdf
EndSplineSet
Ligature: 0 0 'liga' c uni0327
EndChar
StartChar: dcaron
Encoding: 333 271 227
Width: 600
Flags: W
HStem: -16 41<213 231> 0 41<445 504> 390 41<213 231> 563 41<350 404>
VStem: 6 41<208 225> 404 42<0 604> 404 121<0 27>
DStem: 552 602 584 579 468 476 502 453
Fore
446 604 m 1xbc
 446 41 l 1x7c
 500 41 l 2
 518 41 525 35 525 20 c 0x7a
 525 8 518 0 500 0 c 2
 404 0 l 1x7c
 404 88 l 1
 356 19 298 -16 222 -16 c 0
 102 -16 6 85 6 208 c 0
 6 332 102 431 222 431 c 0
 298 431 356 398 404 327 c 1
 404 563 l 1
 350 563 l 2
 332 563 324 571 324 583 c 0
 324 597 332 604 350 604 c 2
 446 604 l 1xbc
224 390 m 0
 126 390 47 310 47 208 c 0
 47 105 126 25 226 25 c 0xbc
 324 25 404 105 404 206 c 0
 404 310 326 390 224 390 c 0
584 579 m 1
 502 453 l 1
 494 442 490 439 480 439 c 0
 468 439 460 448 460 461 c 0
 460 464 462 469 468 476 c 1
 552 602 l 2
 558 612 564 616 572 616 c 0
 584 616 594 607 594 594 c 0
 594 593 592 588 588 582 c 1
 584 579 l 1
EndSplineSet
Ligature: 0 0 'liga' d uni030C
EndChar
StartChar: edieresis
Encoding: 334 235 228
Width: 600
Flags: W
HStem: -16 41<295 329> -16 102<314 506> 200 41<112 528> 390 41<300 319> 511 99<202 204 414.74 427>
VStem: 154 100<558 563> 374 99<558 563>
Fore
528 200 m 1xbe
 112 200 l 1
 126 93 206 25 316 25 c 0xbe
 378 25 450 47 490 79 c 0
 496 83 502 86 506 86 c 0x7e
 516 86 526 77 526 66 c 0
 526 31 406 -16 314 -16 c 0
 178 -16 72 88 72 217 c 0
 72 338 170 431 300 431 c 0
 396 431 476 381 512 297 c 0
 526 264 528 245 528 200 c 1xbe
112 241 m 1
 488 241 l 1
 470 332 398 390 300 390 c 0
 202 390 132 332 112 241 c 1
202 610 m 0
 230 610 254 588 254 560 c 0
 254 535 230 511 202 511 c 0
 178 511 154 535 154 561 c 0
 154 588 178 610 202 610 c 0
424 610 m 0
 452 610 473 588 473 560 c 0
 473 535 450 511 424 511 c 0
 398 511 374 535 374 561 c 0
 374 588 398 610 424 610 c 0
EndSplineSet
Ligature: 0 0 'liga' e uni0308
EndChar
StartChar: eacute
Encoding: 335 233 229
Width: 600
Flags: W
HStem: -16 41<295 329> -16 102<314 506> 200 41<112 528> 390 41<300 319>
DStem: 384 631 410 599 270 530 298 498
Fore
528 200 m 1xb0
 112 200 l 1
 126 93 206 25 316 25 c 0xb0
 378 25 450 47 490 79 c 0
 496 83 502 86 506 86 c 0x70
 516 86 526 77 526 66 c 0
 526 31 406 -16 314 -16 c 0
 178 -16 72 88 72 217 c 0
 72 338 170 431 300 431 c 0
 396 431 476 381 512 297 c 0
 526 264 528 245 528 200 c 1xb0
112 241 m 1
 488 241 l 1
 470 332 398 390 300 390 c 0
 202 390 132 332 112 241 c 1
410 599 m 1
 298 498 l 1
 288 492 284 491 278 491 c 0
 268 491 256 498 256 511 c 0
 256 519 260 520 270 530 c 1
 384 631 l 1
 392 637 398 640 404 640 c 0
 416 640 422 631 422 618 c 0
 422 610 422 607 410 599 c 1
EndSplineSet
KernsSLIF: 121 -78 0 0 119 -46 0 0 118 -50 0 0
Ligature: 0 0 'liga' e acutecomb
EndChar
StartChar: egrave
Encoding: 336 232 230
Width: 600
Flags: W
HStem: -16 41<295 328> 200 41<112 528> 390 41<300 319>
DStem: 210 599 236 631 326 498 352 530
Fore
528 200 m 1
 112 200 l 1
 126 93 206 25 316 25 c 0
 378 25 450 47 490 79 c 0
 496 83 502 86 506 86 c 0
 516 86 526 77 526 66 c 0
 526 31 406 -16 314 -16 c 0
 178 -16 72 88 72 217 c 0
 72 338 170 431 300 431 c 0
 396 431 476 381 512 297 c 0
 526 264 528 245 528 200 c 1
112 241 m 1
 488 241 l 1
 470 332 398 390 300 390 c 0
 202 390 132 332 112 241 c 1
236 631 m 1
 352 530 l 1
 358 522 l 1
 364 517 364 517 364 511 c 0
 364 498 354 491 340 491 c 0
 336 491 330 492 326 498 c 1
 210 599 l 2
 202 607 198 610 198 619 c 0
 198 631 206 640 218 640 c 0
 224 640 230 635 236 631 c 1
EndSplineSet
Ligature: 0 0 'liga' e gravecomb
EndChar
StartChar: ecircumflex
Encoding: 337 234 231
Width: 600
Flags: W
HStem: -16 41<295 329> -16 102<314 506> 200 41<112 528> 390 41<300 319>
DStem: 314 586 314 640 422 497 446 531 314 640 314 586 182 530 206 497 314 586 314 640 422 497 446 531 314 640 314 586 182 530 206 497 314 586 314 640 422 497 446 531 314 640 314 586 182 530 206 497 314 586 314 640 422 497 446 531 314 640 314 586 182 530 206 497 314 586 314 640 422 497 446 531 314 640 314 586 182 530 206 497 314 586 314 640 422 497 446 531 314 640 314 586 182 530 206 497 314 586 314 640 422 497 446 531 314 640 314 586 182 530 206 497
Fore
528 200 m 1xb0
 112 200 l 1
 126 93 206 25 316 25 c 0xb0
 378 25 450 47 490 79 c 0
 496 83 502 86 506 86 c 0x70
 516 86 526 77 526 66 c 0
 526 31 406 -16 314 -16 c 0
 178 -16 72 88 72 217 c 0
 72 338 170 431 300 431 c 0
 396 431 476 381 512 297 c 0
 526 264 528 245 528 200 c 1xb0
112 241 m 1
 488 241 l 1
 470 332 398 390 300 390 c 0
 202 390 132 332 112 241 c 1
314 640 m 1
 446 531 l 2
 456 522 460 519 460 509 c 0
 460 498 450 491 438 491 c 0
 434 491 426 492 422 497 c 1
 314 586 l 1
 206 497 l 1
 198 492 192 491 188 491 c 0
 178 491 168 498 168 509 c 0
 168 519 170 524 182 530 c 1
 314 640 l 1
EndSplineSet
KernsSLIF: 121 -78 0 0 119 -46 0 0 118 -50 0 0
Ligature: 0 0 'liga' e uni0302
EndChar
StartChar: ecaron
Encoding: 338 283 232
Width: 600
Flags: W
HStem: -16 41<295 329> -16 102<314 506> 200 41<112 528> 390 41<300 319>
DStem: 176 626 200 657 308 517 308 571 414 657 440 626 308 571 308 517
Fore
308 517 m 1x30
 176 626 l 2
 166 634 164 637 164 646 c 0
 164 657 172 667 182 667 c 0
 186 667 194 662 200 657 c 2
 308 571 l 1
 414 657 l 1
 422 662 428 667 432 667 c 0
 442 667 452 657 452 646 c 0
 452 638 450 634 440 626 c 2
 308 517 l 1x30
528 200 m 1
 112 200 l 1
 126 93 206 25 316 25 c 0xb0
 378 25 450 47 490 79 c 0
 496 83 502 86 506 86 c 0x70
 516 86 526 77 526 66 c 0
 526 31 406 -16 314 -16 c 0xb0
 178 -16 72 88 72 217 c 0
 72 338 170 431 300 431 c 0
 396 431 476 381 512 297 c 0
 526 264 528 245 528 200 c 1
112 241 m 1
 488 241 l 1
 470 332 398 390 300 390 c 0
 202 390 132 332 112 241 c 1
EndSplineSet
Ligature: 0 0 'liga' e uni030C
EndChar
StartChar: edotaccent
Encoding: 339 279 233
Width: 600
Flags: W
HStem: -16 41<294 339> 200 41<112 528> 390 41<300 321> 517 110<296 321>
VStem: 276 63<533.081 609>
Fore
296 627 m 2
 318 627 l 2
 332 627 339 619 339 601 c 2
 339 544 l 2
 339 525 332 517 318 517 c 2
 296 517 l 2
 282 517 276 525 276 544 c 2
 276 601 l 2
 276 619 282 627 296 627 c 2
528 200 m 1
 112 200 l 1
 126 93 206 25 316 25 c 0
 378 25 450 47 490 79 c 0
 496 83 502 86 506 86 c 0
 516 86 526 77 526 66 c 0
 526 31 406 -16 314 -16 c 0
 178 -16 72 88 72 217 c 0
 72 338 170 431 300 431 c 0
 396 431 476 381 512 297 c 0
 526 264 528 245 528 200 c 1
112 241 m 1
 488 241 l 1
 470 332 398 390 300 390 c 0
 202 390 132 332 112 241 c 1
EndSplineSet
Ligature: 0 0 'liga' e uni0307
EndChar
StartChar: eogonek
Encoding: 340 281 234
Width: 600
Flags: W
HStem: -156 33<390 400> -16 41<316 329> 200 41<112 528> 390 41<300 318>
VStem: 316 39<-95 -86>
Fore
528 200 m 1
 112 200 l 1
 126 93 206 25 316 25 c 0
 378 25 450 47 490 79 c 0
 496 83 502 86 506 86 c 0
 516 86 526 77 526 66 c 0
 526 53 512 42 478 22 c 1
 378 -31 355 -53 355 -88 c 0
 355 -112 370 -123 398 -123 c 0
 418 -123 422 -121 448 -107 c 0
 450 -105 452 -104 456 -104 c 0
 462 -104 470 -110 470 -119 c 0
 470 -135 430 -156 392 -156 c 0
 344 -156 316 -132 316 -93 c 0
 316 -60 334 -33 370 -11 c 1
 346 -14 330 -16 316 -16 c 0
 178 -16 72 86 72 217 c 0
 72 338 170 431 300 431 c 0
 396 431 476 381 512 297 c 0
 526 264 528 245 528 200 c 1
112 241 m 1
 488 241 l 1
 470 332 398 390 300 390 c 0
 202 390 132 332 112 241 c 1
EndSplineSet
Ligature: 0 0 'liga' e uni0328
EndChar
StartChar: gbreve
Encoding: 341 287 235
Width: 600
Flags: W
HStem: -186 41<188 308> 9 41<241 275> 376 42<428 531> 390 41<241 275> 491 40<288 306> 599 20G<157 171 406 418>
VStem: 50 41<220 231> 428 41<-30 107 213 376> 428 121<333 398>
Fore
428 333 m 1xdf
 428 418 l 1
 522 418 l 2
 542 418 549 410 549 396 c 0xee80
 549 384 542 376 522 376 c 2
 469 376 l 1xef
 469 -28 l 2
 469 -69 456 -99 426 -132 c 0
 392 -168 354 -186 304 -186 c 2
 188 -186 l 2
 172 -186 164 -178 164 -165 c 0
 164 -151 172 -145 188 -145 c 2
 306 -145 l 2
 374 -145 428 -90 428 -22 c 2
 428 107 l 1
 384 41 330 9 256 9 c 0
 146 9 50 105 50 220 c 0
 50 338 146 431 256 431 c 0
 332 431 384 401 428 333 c 1xdf
260 390 m 0xdf
 166 390 91 316 91 220 c 0
 91 126 166 50 260 50 c 0
 354 50 428 126 428 219 c 0
 428 316 354 390 260 390 c 0xdf
164 619 m 0
 178 619 182 613 184 599 c 0
 188 560 232 531 288 531 c 0
 344 531 388 560 392 599 c 0
 394 613 400 619 412 619 c 0
 424 619 432 610 432 597 c 0
 432 536 370 491 288 491 c 0
 208 491 144 536 144 597 c 0
 144 610 150 619 164 619 c 0
EndSplineSet
Ligature: 0 0 'liga' g uni0306
EndChar
StartChar: idieresis
Encoding: 342 239 236
Width: 600
Flags: W
HStem: 0 41<109.024 280 320 482> 376 42<162 280> 511 99<176 178 398 400>
VStem: 126 99<558 563> 280 41<40 418> 348 99<558 563>
Fore
321 418 m 1
 321 41 l 1
 480 41 l 2
 498 41 508 35 508 20 c 0
 508 8 496 0 480 0 c 2
 120 0 l 2
 100 0 92 8 92 20 c 0
 92 35 100 41 120 41 c 2
 280 41 l 1
 280 376 l 1
 162 376 l 2
 144 376 134 384 134 396 c 0
 134 410 144 418 162 418 c 2
 321 418 l 1
176 610 m 0
 204 610 225 588 225 560 c 0
 225 535 202 511 176 511 c 0
 148 511 126 535 126 561 c 0
 126 588 148 610 176 610 c 0
398 610 m 0
 426 610 447 588 447 560 c 0
 447 535 424 511 398 511 c 0
 370 511 348 535 348 561 c 0
 348 588 370 610 398 610 c 0
EndSplineSet
Ligature: 0 0 'liga' i uni0308
EndChar
StartChar: iacute
Encoding: 343 237 237
Width: 600
Flags: W
HStem: 0 41<109.024 280 320 482> 376 42<162 280>
VStem: 280 41<40 418>
DStem: 364 631 392 599 250 530 276 498
Fore
321 418 m 1
 321 41 l 1
 480 41 l 2
 498 41 508 35 508 20 c 0
 508 8 496 0 480 0 c 2
 120 0 l 2
 100 0 92 8 92 20 c 0
 92 35 100 41 120 41 c 2
 280 41 l 1
 280 376 l 1
 162 376 l 2
 144 376 134 384 134 396 c 0
 134 410 144 418 162 418 c 2
 321 418 l 1
392 599 m 2
 276 498 l 2
 268 492 264 491 258 491 c 0
 246 491 236 498 236 511 c 0
 236 519 240 520 250 530 c 1
 364 631 l 1
 372 637 376 640 384 640 c 0
 394 640 402 631 402 618 c 0
 402 610 400 607 392 599 c 2
EndSplineSet
Ligature: 0 0 'liga' i acutecomb
EndChar
